<?xml version="1.0" encoding="UTF-8" standalone="no"?>
<!-- Created with Inkscape (http://www.inkscape.org/) -->

<svg
   width="297mm"
   height="210mm"
   viewBox="0 0 297 210"
   version="1.1"
   id="svg886"
   inkscape:version="1.1 (c68e22c387, 2021-05-23)"
   sodipodi:docname="piktogramos.svg"
   xmlns:inkscape="http://www.inkscape.org/namespaces/inkscape"
   xmlns:sodipodi="http://sodipodi.sourceforge.net/DTD/sodipodi-0.dtd"
   xmlns:xlink="http://www.w3.org/1999/xlink"
   xmlns="http://www.w3.org/2000/svg"
   xmlns:svg="http://www.w3.org/2000/svg">
  <sodipodi:namedview
     id="namedview888"
     pagecolor="#ffffff"
     bordercolor="#666666"
     borderopacity="1.0"
     inkscape:pageshadow="2"
     inkscape:pageopacity="0.0"
     inkscape:pagecheckerboard="0"
     inkscape:document-units="mm"
     showgrid="false"
     inkscape:zoom="0.72337262"
     inkscape:cx="412.6504"
     inkscape:cy="351.82421"
     inkscape:window-width="1920"
     inkscape:window-height="1001"
     inkscape:window-x="-9"
     inkscape:window-y="-9"
     inkscape:window-maximized="1"
     inkscape:current-layer="layer1" />
  <defs
     id="defs883">
    <linearGradient
       inkscape:collect="always"
       id="linearGradient35888">
      <stop
         style="stop-color:#200fff;stop-opacity:1;"
         offset="0"
         id="stop35884" />
      <stop
         style="stop-color:#200fff;stop-opacity:0;"
         offset="1"
         id="stop35886" />
    </linearGradient>
    <rect
       x="158.97754"
       y="543.28847"
       width="536.3764"
       height="120.26997"
       id="rect4782" />
    <linearGradient
       inkscape:collect="always"
       id="linearGradient1451">
      <stop
         style="stop-color:#2ad4ff;stop-opacity:1"
         offset="0"
         id="stop1447" />
      <stop
         style="stop-color:#ab00b9;stop-opacity:1"
         offset="1"
         id="stop1449" />
    </linearGradient>
    <linearGradient
       inkscape:collect="always"
       xlink:href="#linearGradient1451"
       id="linearGradient1453"
       x1="18.369837"
       y1="20.038929"
       x2="87.533394"
       y2="100.76746"
       gradientUnits="userSpaceOnUse"
       gradientTransform="translate(0.72504077,1.4662794)" />
    <rect
       x="158.97754"
       y="543.28845"
       width="536.3764"
       height="120.26997"
       id="rect4782-2" />
    <rect
       x="158.97754"
       y="543.28845"
       width="536.3764"
       height="120.26997"
       id="rect4782-7" />
    <linearGradient
       inkscape:collect="always"
       xlink:href="#linearGradient35888"
       id="linearGradient35890"
       x1="134.04353"
       y1="138.64638"
       x2="134.23521"
       y2="113.02094"
       gradientUnits="userSpaceOnUse"
       gradientTransform="translate(-83.394089,-8.7783252)" />
  </defs>
  <g
     inkscape:label="Layer 1"
     inkscape:groupmode="layer"
     id="layer1">
    <g
       id="g23557"
       transform="matrix(1,0,0,1.0385001,144.84236,-11.545267)">
      <rect
         style="fill:url(#linearGradient1453);fill-opacity:1;stroke-width:0.264583"
         id="rect969"
         width="92.903938"
         height="88.514771"
         x="19.094877"
         y="21.505209"
         transform="rotate(-0.25373762)"
         ry="14.646596" />
      <text
         xml:space="preserve"
         transform="matrix(0.75730554,0,0,0.81993852,-92.413075,-397.357)"
         id="text4780"
         style="font-style:normal;font-weight:normal;font-size:40px;line-height:1.15;font-family:sans-serif;white-space:pre;shape-inside:url(#rect4782);fill:#000000;fill-opacity:1;stroke:none"><tspan
           x="158.97656"
           y="576.67969"
           id="tspan58957"><tspan
             style="font-family:'Script MT Bold';-inkscape-font-specification:'Script MT Bold, ';fill:#fcfcfc;stroke:#fcfcfc"
             id="tspan58955">Canva</tspan></tspan></text>
    </g>
    <text
       xml:space="preserve"
       transform="matrix(0.75730554,0,0,0.85150624,-8.287458,-324.46659)"
       id="text4780-2"
       style="font-style:normal;font-weight:normal;font-size:40px;line-height:1.15;font-family:sans-serif;white-space:pre;shape-inside:url(#rect4782-7);fill:#000000;fill-opacity:1;stroke:none" />
    <g
       id="g36715"
       transform="translate(159.10714,18.653943)">
      <rect
         style="fill:#dcdcdc;fill-opacity:1;stroke-width:0.269628"
         id="rect969-3"
         width="92.904007"
         height="91.922531"
         x="5.094882"
         y="91.830917"
         transform="matrix(0.99998942,-0.00459904,0.00426436,0.99999091,0,0)"
         ry="15.210481" />
      <g
         id="g36704"
         transform="matrix(1.1188119,0,0,1.1188119,-3.9292849,-17.540733)">
        <g
           id="g34153"
           transform="translate(-33.650246,-13.533251)">
          <circle
             style="fill:#00e549;fill-opacity:1;stroke:none;stroke-width:3;stroke-miterlimit:4;stroke-dasharray:none;stroke-opacity:0.947154"
             id="path31791"
             cx="83.75985"
             cy="152.15762"
             r="36.942116" />
          <circle
             style="fill:#14ec59;fill-opacity:1;stroke:#cbcbcb;stroke-width:0.950957;stroke-miterlimit:4;stroke-dasharray:none;stroke-opacity:0.849594"
             id="path31791-2"
             cx="83.75985"
             cy="152.15762"
             r="24.347794" />
        </g>
        <path
           id="path34975"
           style="fill:url(#linearGradient35890);fill-opacity:1;stroke:none;stroke-width:0.976657;stroke-miterlimit:4;stroke-dasharray:none;stroke-opacity:0.849594"
           d="m 66.182469,105.60934 a 35.982769,37.678316 0 0 0 -32.99319,1.28587 l 17.09439,35.77458 17.08542,-36.44372 a 35.982769,37.678316 0 0 0 -1.18662,-0.61674 z" />
        <g
           id="g34951"
           transform="matrix(0.670333,0,0,0.670333,-72.359497,31.35665)">
          <circle
             style="fill:#ffffff;fill-opacity:1;stroke:#f7f7f7;stroke-width:0.735491;stroke-miterlimit:4;stroke-dasharray:none;stroke-opacity:0.849594"
             id="path34771"
             cx="182.6989"
             cy="160.02155"
             r="11.836688" />
          <circle
             style="fill:#0057ff;fill-opacity:1;stroke:#f7f7f7;stroke-width:0.964115;stroke-miterlimit:4;stroke-dasharray:none;stroke-opacity:0.849594"
             id="path34177"
             cx="182.6989"
             cy="160.02155"
             r="9.3449135" />
        </g>
      </g>
    </g>
    <g
       id="g58904"
       transform="matrix(1.3635412,0,0,1.3635412,-323.94216,-50.194495)">
      <rect
         style="fill:#b4ecb2;fill-opacity:1;stroke:none;stroke-width:3.0182;stroke-miterlimit:4;stroke-dasharray:none;stroke-opacity:1"
         id="rect23581"
         width="86.320198"
         height="85.519615"
         x="258.22903"
         y="70.661423"
         ry="14.068161" />
      <g
         id="g58024"
         transform="matrix(0.46598414,0,0,0.45340726,248.23345,45.351705)">
        <path
           id="path50278"
           style="stroke-width:2.95044;stroke-opacity:0.849594"
           d="m 110.09483,184.25382 c 0,6.63819 0.22279,15.12392 -3.0404,19.78808 -3.91539,5.59635 -11.884581,6.751 -18.343093,6.82367 -6.424911,0.0723 -13.68733,-1.31768 -17.682978,-6.77486 -3.368386,-4.60048 -3.991866,-12.67277 -4.0907,-19.35128 -0.216073,-14.60072 7.136241,2.47594 18.973503,2.07628 11.837261,-0.39965 23.751608,-17.15531 24.183668,-2.56189"
           sodipodi:nodetypes="csssssc" />
        <path
           id="rect49048"
           style="stroke-width:0.503386;stroke-opacity:0.849594"
           d="m 130.51354,156.93639 18.28276,0.71201 c 5.48162,0.21348 7.02874,12.36619 7.95334,17.47031 l 3.27675,18.08888 c 0.81666,4.5083 0.11219,11.88078 -5.43405,15.91202 -2.20517,1.60281 -1.32548,1.11483 -2.20517,1.60281 -5.19881,2.88385 -14.92464,2.87675 -22.34597,2.10078 -3.1085,-0.32502 -6.23823,-1.31351 -8.00075,-2.69515 -4.86349,-3.81245 -4.35205,-8.41822 -4.68288,-13.54005 l -1.69885,-26.30137 0.38086,-12.28222 c 0,0 8.99226,-1.2815 14.47396,-1.06802 z"
           sodipodi:nodetypes="ssssssaascss" />
        <path
           id="path47562"
           style="stroke-width:3.77953;stroke-opacity:0.849594"
           d="m 32.244897,140.70222 c 0.629235,-13.13101 14.226142,-23.18221 30.469561,-22.52392 16.243416,0.65831 -0.370317,7.07399 -0.703112,20.21702 -0.332831,13.14304 15.739543,28.10335 -0.509955,27.68488 -8.188277,-0.21087 -11.043849,-5.80476 -16.346079,-10.29424 -5.219985,-4.41983 -12.950584,-7.68573 -12.932555,-14.20967"
           sodipodi:nodetypes="cssssc" />
        <path
           id="path48084"
           style="stroke-width:3.64498;stroke-opacity:0.849594"
           d="m 150.82491,122.81271 c -3.09232,13.27051 -13.88642,17.99889 -36.37177,13.21236 -22.485347,-4.78655 -46.176846,-14.91406 -31.230059,-18.71543 7.161473,-1.82243 9.531815,-13.22143 17.314549,-19.239792 6.1204,-4.732893 16.94785,-9.364072 23.69056,-10.729732 22.00037,-4.455941 26.59672,35.472594 26.59672,35.472594"
           sodipodi:nodetypes="cssssc" />
        <path
           id="path40574"
           style="fill:#fefefe;fill-opacity:1;stroke-width:1.38761;stroke-opacity:0.849594"
           d="m 155.49517,140.79612 c 0.89303,3.46752 0.36382,7.19601 -0.37789,10.73537 -0.74171,3.53936 -0.86748,7.07357 -2.62636,10.85241 -3.22637,6.93166 -9.58975,9.57698 -16.57185,14.58755 -5.79218,4.15666 -12.65126,7.78966 -21.54158,9.78861 -14.449866,3.24898 -21.597676,3.24255 -31.416057,-0.0193 -10.501746,-3.48889 -19.976576,-7.46294 -25.005895,-20.13262 -5.232761,-13.18218 -5.381332,-31.05632 3.694345,-41.76781 6.999473,-8.26107 16.417001,-11.80262 29.565121,-17.53924 10.395126,-4.53547 37.071516,-2.20216 47.469226,5.40638 8.08934,5.9194 14.08954,17.52179 16.81094,28.08865 z"
           sodipodi:nodetypes="asssssssssa" />
        <path
           id="path41406"
           style="fill:#000000;fill-opacity:1;stroke-width:4.18202;stroke-opacity:0.849594"
           d="m 95.245286,145.246 c 0,0 -3.93893,4.03729 -4.60044,6.62973 -1.13352,4.4422 5.94802,11.01717 1.51203,13.60702 -6.08738,3.55397 -12.27243,1.08043 -16.760661,-6.50694 -2.55538,-4.31988 -2.088055,-8.20352 0.12043,-11.4288 1.670461,-2.43956 4.707911,-4.76139 7.294161,-6.35153 4.21096,-2.58908 11.84713,-4.97919 14.28485,-1.97309 2.437723,3.0061 -1.85037,6.02361 -1.85037,6.02361 m -12.8549,11.78748"
           sodipodi:nodetypes="casssszc" />
        <path
           id="path41406-8"
           style="fill:#000000;fill-opacity:1;stroke-width:4.30484;stroke-opacity:0.849594"
           d="m 109.70455,138.52136 c 0,0 4.78913,-2.45104 7.05782,-1.51627 5.28545,2.17774 4.91847,15.69906 9.92953,14.39864 4.86406,-1.26227 4.40404,-2.90016 5.90403,-8.54134 0.54321,-2.0429 0.463,-5.07961 -0.24079,-7.69913 -1.36918,-5.09612 -3.45499,-5.75029 -7.36741,-6.55087 -2.95928,-0.60554 -6.53857,-2.89392 -9.51884,-2.19575 -4.8525,1.13675 -11.96418,4.92219 -11.47446,8.94974 0.48974,4.02759 5.71012,3.15498 5.71012,3.15498"
           sodipodi:nodetypes="cassssszc" />
        <path
           id="path43548"
           style="stroke-width:3.34854;stroke-opacity:0.849594"
           d="m 115.18849,149.53262 c 1.07458,3.20441 -1.25279,7.2007 -5.33402,8.60183 -4.08124,1.4011 -8.39159,-0.3163 -9.54065,-3.49515 0,0 2.53434,-2.92829 6.5946,-4.38742 4.06025,-1.45915 8.20366,-0.93066 8.20366,-0.93066"
           sodipodi:nodetypes="csssc" />
        <g
           id="g46193"
           transform="matrix(0.15700394,0.03565914,-0.03565914,0.15700394,92.205718,116.27002)">
          <path
             id="path44261"
             style="stroke-width:4.35562;stroke-opacity:0.849594"
             inkscape:transform-center-x="-3.5273213"
             inkscape:transform-center-y="0.26295129"
             d="m 163.75159,223.79076 28.61259,21.12789 -22.075,13.79692 z"
             sodipodi:nodetypes="cccc" />
          <path
             id="path44621"
             style="stroke-width:4.49467;stroke-opacity:0.849594"
             d="m 201.76918,219.99112 c 1.82031,9.62655 4.62816,4.49374 1.82031,9.62655 -1.19188,2.1788 -2.42849,8.68602 -4.71617,13.43375 -2.20963,4.58572 -4.5212,8.34864 -13.63049,14.15863 -16.3599,10.43436 -27.18715,8.82766 -38.62162,5.36072 -6.14838,-1.86426 2.36626,7.25517 -1.48115,1.49896 -11.00279,-16.46138 9.94767,3.19673 34.90339,-13.14859 24.95577,-16.34533 10.26759,-47.09313 21.72573,-30.93002"
             sodipodi:nodetypes="cssssssc"
             inkscape:transform-center-x="-152.07808"
             inkscape:transform-center-y="18.383064" />
        </g>
        <path
           style="fill:#fafafa;fill-opacity:1;stroke:none;stroke-width:3.77953;stroke-miterlimit:4;stroke-dasharray:none;stroke-opacity:0.849594"
           id="path46217-7"
           sodipodi:type="arc"
           sodipodi:cx="85.771553"
           sodipodi:cy="149.78018"
           sodipodi:rx="2.7432265"
           sodipodi:ry="2.7432265"
           sodipodi:start="0"
           sodipodi:end="6.2466905"
           sodipodi:open="true"
           sodipodi:arc-type="arc"
           d="m 88.51478,149.78018 a 2.7432265,2.7432265 0 0 1 -2.718199,2.74311 2.7432265,2.7432265 0 0 1 -2.767798,-2.69305 2.7432265,2.7432265 0 0 1 2.667694,-2.79226 2.7432265,2.7432265 0 0 1 2.816476,2.64211" />
        <path
           style="fill:#fafafa;fill-opacity:1;stroke:none;stroke-width:3.77953;stroke-miterlimit:4;stroke-dasharray:none;stroke-opacity:0.849594"
           id="path46217-7-1"
           sodipodi:type="arc"
           sodipodi:cx="119.97044"
           sodipodi:cy="132.77217"
           sodipodi:rx="2.7432265"
           sodipodi:ry="2.7432265"
           sodipodi:start="0"
           sodipodi:end="6.2466905"
           sodipodi:open="true"
           sodipodi:arc-type="arc"
           d="m 122.71367,132.77217 a 2.7432265,2.7432265 0 0 1 -2.7182,2.74311 2.7432265,2.7432265 0 0 1 -2.7678,-2.69305 2.7432265,2.7432265 0 0 1 2.6677,-2.79226 2.7432265,2.7432265 0 0 1 2.81647,2.64211" />
        <path
           id="path52679"
           style="stroke-width:1.86381;stroke-opacity:0.849594"
           d="m 194.9509,180.77945 c 1.20246,7.01441 1.65878,14.59691 -0.85518,19.82451 -2.43375,5.06084 -8.4449,5.36352 -11.77259,5.17412 -2.70997,-0.15431 -6.94683,-0.84687 -9.65799,-3.50748 -3.36328,-3.30057 -1.44803,-11.09585 -1.07947,-20.90119 0.16615,-4.42042 -0.90815,-11.08212 -0.90815,-11.08212 -1.82566,-6.06299 -3.20789,-15.57284 -3.20789,-15.57284 l -0.27645,-0.73153 c -2.75474,-16.21342 -1.55195,-16.33429 -9.78453,-27.87834 0,0 12.04659,4.27202 20.59493,16.99665 8.57239,12.76046 17.12305,31.82456 16.94728,37.67822"
           sodipodi:nodetypes="cssssssccsc" />
      </g>
    </g>
  </g>
</svg>
