<?xml version="1.0" encoding="UTF-8" standalone="no"?>
<!-- Created with Inkscape (http://www.inkscape.org/) -->

<svg
   xmlns:osb="http://www.openswatchbook.org/uri/2009/osb"
   xmlns:dc="http://purl.org/dc/elements/1.1/"
   xmlns:cc="http://creativecommons.org/ns#"
   xmlns:rdf="http://www.w3.org/1999/02/22-rdf-syntax-ns#"
   xmlns:svg="http://www.w3.org/2000/svg"
   xmlns="http://www.w3.org/2000/svg"
   xmlns:sodipodi="http://sodipodi.sourceforge.net/DTD/sodipodi-0.dtd"
   xmlns:inkscape="http://www.inkscape.org/namespaces/inkscape"
   width="297mm"
   height="210mm"
   viewBox="0 0 297 210"
   version="1.1"
   id="svg8"
   inkscape:version="0.92.3 (2405546, 2018-03-11)"
   sodipodi:docname="ikonos.svg">
  <defs
     id="defs2">
    <inkscape:perspective
       sodipodi:type="inkscape:persp3d"
       inkscape:vp_x="0 : 105 : 1"
       inkscape:vp_y="0 : 1000 : 0"
       inkscape:vp_z="297 : 105 : 1"
       inkscape:persp3d-origin="148.5 : 70 : 1"
       id="perspective8654" />
    <linearGradient
       id="linearGradient6010"
       osb:paint="solid">
      <stop
         style="stop-color:#2db9f6;stop-opacity:1;"
         offset="0"
         id="stop6008" />
    </linearGradient>
    <filter
       inkscape:collect="always"
       style="color-interpolation-filters:sRGB"
       id="filter6458"
       x="-0.097203056"
       width="1.1944061"
       y="-0.090254508"
       height="1.180509">
      <feGaussianBlur
         inkscape:collect="always"
         stdDeviation="2.4719777"
         id="feGaussianBlur6460" />
    </filter>
    <filter
       inkscape:collect="always"
       style="color-interpolation-filters:sRGB"
       id="filter6674"
       x="-0.20146364"
       width="1.4029273"
       y="-0.19698667"
       height="1.3939733">
      <feGaussianBlur
         inkscape:collect="always"
         stdDeviation="4.4419932"
         id="feGaussianBlur6676" />
    </filter>
  </defs>
  <sodipodi:namedview
     id="base"
     pagecolor="#ffffff"
     bordercolor="#666666"
     borderopacity="1.0"
     inkscape:pageopacity="0.0"
     inkscape:pageshadow="2"
     inkscape:zoom="0.88"
     inkscape:cx="355.28866"
     inkscape:cy="455.39127"
     inkscape:document-units="mm"
     inkscape:current-layer="layer1"
     showgrid="false"
     inkscape:snap-global="false"
     inkscape:window-width="1920"
     inkscape:window-height="1017"
     inkscape:window-x="-8"
     inkscape:window-y="-8"
     inkscape:window-maximized="1" />
  <metadata
     id="metadata5">
    <rdf:RDF>
      <cc:Work
         rdf:about="">
        <dc:format>image/svg+xml</dc:format>
        <dc:type
           rdf:resource="http://purl.org/dc/dcmitype/StillImage" />
        <dc:title></dc:title>
      </cc:Work>
    </rdf:RDF>
  </metadata>
  <g
     inkscape:label="Layer 1"
     inkscape:groupmode="layer"
     id="layer1"
     transform="translate(0,-87)">
    <g
       id="g6474"
       transform="matrix(0.93823895,0,0,0.87600087,-21.952906,74.525872)">
      <ellipse
         ry="32.86676"
         rx="30.517284"
         cy="156.08362"
         cx="145.97183"
         id="path4531"
         style="fill:#2db9f6;fill-opacity:1;stroke-width:0.19767192;filter:url(#filter6458)" />
      <path
         id="path4547"
         transform="matrix(0.26458333,0,0,0.26458333,0,87)"
         d="m 551.97461,182.33789 c 0,0 -32.65625,98.77319 -32.65625,116.51758 0,17.74439 1.09405,37.26395 32.66992,38.02734 34.47489,0.8335 36.64844,-20.61889 36.64844,-38.36328 0,-17.74443 -36.66211,-116.18164 -36.66211,-116.18164 z m 29.41992,103.93555 c 0,0 0.89327,0.0792 0.40235,22.86718 -0.44055,20.44755 -32.26563,20.63282 -32.26563,20.63282 z"
         style="fill:#ffffff;fill-opacity:1;stroke-width:0.38474593"
         inkscape:connector-curvature="0" />
    </g>
    <g
       id="g8607"
       transform="matrix(1.1659223,0,0,1.0566796,-128.67941,52.284459)">
      <ellipse
         ry="27.059658"
         rx="26.458332"
         cy="149.07387"
         cx="140.40956"
         id="path6478"
         style="fill:#e5ff80;fill-opacity:1;stroke-width:0.26458332;filter:url(#filter6674)" />
      <path
         inkscape:connector-curvature="0"
         id="path8599"
         d="m 124.17648,141.69602 0.13619,18.80327 h 32.33255 v -18.19496 l -15.95174,9.17839 z"
         style="fill:#ffffff;fill-opacity:1;stroke-width:0.12260956" />
      <path
         inkscape:connector-curvature="0"
         id="rect6678"
         d="m 124.17648,140.71676 16.517,9.78671 15.95174,-9.17839 v -0.69079 l -32.47136,-0.27987 z"
         style="fill:#ffffff;fill-opacity:1;stroke-width:0.12260956" />
    </g>
    <g
       id="g8627"
       transform="matrix(1.45625,0,0,1.3333334,22.096844,-90.581447)">
      <ellipse
         ry="24.804686"
         rx="24.053032"
         cy="167.56464"
         cx="65.243843"
         id="path8609"
         style="fill:#ff5555;fill-opacity:1;stroke-width:0.24524337" />
      <path
         inkscape:connector-curvature="0"
         id="rect8611"
         d="m 54.269577,152.08027 v 30.96865 h 21.948532 v -30.96865 z m 3.608049,1.80402 H 72.61006 v 27.05984 H 57.877626 Z"
         style="fill:#ffffff;fill-opacity:1;stroke-width:0.18402426" />
      <rect
         y="177.03549"
         x="59.230587"
         height="2.7059646"
         width="12.026514"
         id="rect8616"
         style="fill:#ffffff;fill-opacity:1;stroke-width:0.06887216" />
      <rect
         style="fill:#ffffff;fill-opacity:1;stroke-width:0.06887216"
         id="rect8618"
         width="12.026514"
         height="2.7059646"
         x="59.230587"
         y="172.22488" />
      <rect
         y="149.67517"
         x="59.230587"
         height="2.7059646"
         width="12.026514"
         id="rect8620"
         style="fill:#ffffff;fill-opacity:1;stroke-width:0.06887216" />
    </g>
    <g
       id="g8689"
       transform="matrix(1.0048077,0,0,1.0392157,-44.746732,-56.717015)">
      <ellipse
         ry="30.667612"
         rx="31.26894"
         cy="181.2448"
         cx="82.982956"
         id="path8629"
         style="fill:#5fbcd3;fill-opacity:1;stroke-width:0.26458332" />
      <g
         transform="translate(0.10777988,-2.4068227)"
         style="fill:#ffffff"
         id="g8652">
        <path
           style="fill:#ffffff;fill-opacity:1;stroke-width:0.30066288"
           d="m 64.177554,181.24488 c -2.36336,-0.71241 -3.54522,-2.51774 -3.54522,-5.41541 0,-2.34964 0.63631,-3.72422 2.20454,-4.76227 l 1.20858,-0.79999 17.76136,-0.0951 c 12.15064,-0.065 18.244626,0.01 19.291206,0.23618 1.66431,0.36036 3.14363,1.59957 3.71331,3.11059 0.44635,1.18391 0.39763,3.64968 -0.0949,4.80069 -0.96281,2.25022 -2.96397,3.21786 -6.660856,3.22079 -2.0654,0.002 -2.12158,-0.0187 -2.44874,-0.88543 -0.53954,-1.42939 -1.99773,-2.11708 -4.49188,-2.11839 -2.37128,-0.001 -3.34137,0.4921 -4.18839,2.13006 l -0.45271,0.87544 h -4.13564 -4.13564 l -0.33485,-0.88711 c -0.53954,-1.42939 -1.99773,-2.11708 -4.49188,-2.11839 -2.37128,-0.001 -3.34137,0.4921 -4.18839,2.13006 -0.42908,0.82974 -0.55041,0.87409 -2.32413,0.8496 -1.02928,-0.0142 -2.2379,-0.13632 -2.68581,-0.27134 z"
           id="path8646"
           inkscape:connector-curvature="0" />
        <path
           style="fill:#ffffff;fill-opacity:1;stroke-width:0.30066288"
           d="m 64.168926,196.87936 c -1.29335,-0.38987 -2.5285,-1.4094 -3.05716,-2.52347 -0.40659,-0.85681 -0.48722,-2.17536 -0.483,-7.89832 l 0.005,-6.86981 0.63415,0.99038 c 0.97392,1.52098 2.52899,2.16658 5.21871,2.16658 2.2677,0 2.28466,0.006 3.42304,1.20265 1.13404,1.19212 1.16356,1.20264 3.37042,1.20153 2.39157,-0.001 3.82319,-0.57311 4.47272,-1.78677 0.30915,-0.57765 0.60157,-0.61741 4.54117,-0.61741 h 4.21075 l 1.14405,1.20265 c 1.13404,1.19212 1.16356,1.20264 3.37042,1.20153 2.39157,-0.001 3.82319,-0.57311 4.47272,-1.78677 0.29885,-0.5584 0.61251,-0.61741 3.28202,-0.61741 3.317314,0 4.352414,-0.43525 5.664154,-2.38175 l 0.68365,-1.01447 v 6.81904 c 0,7.42626 -0.11906,8.09853 -1.69178,9.55284 -0.47512,0.43934 -1.40505,0.94596 -2.0665,1.12581 -1.428294,0.38834 -35.914334,0.4191 -37.194604,0.0332 z"
           id="path8648"
           inkscape:connector-curvature="0" />
      </g>
      <rect
         ry="2.2549717"
         y="177.03552"
         x="70.655777"
         height="4.5099435"
         width="6.0132575"
         id="rect8670"
         style="fill:#ffffff;fill-opacity:1;stroke-width:0.18585373" />
      <rect
         style="fill:#ffffff;fill-opacity:1;stroke-width:0.18585373"
         id="rect8672"
         width="6.0132575"
         height="4.5099435"
         x="88.39489"
         y="177.03552"
         ry="2.2549717" />
      <path
         inkscape:connector-curvature="0"
         id="rect8674"
         d="m 78.349687,158.39418 c -2.857184,0 -5.250061,3.29823 -5.981162,7.81771 h 1.93663 c 0.863903,-3.59888 2.654278,-6.06276 4.73449,-6.06276 h 7.886338 c 2.080249,0 3.870858,2.46377 4.734777,6.06276 h 1.936627 c -0.731096,-4.51949 -3.124252,-7.81771 -5.981446,-7.81771 z"
         style="fill:#ffffff;fill-opacity:1;stroke-width:0.1217563" />
    </g>
    <g
       id="g8794"
       transform="translate(-17.73911)">
      <ellipse
         ry="33.373577"
         rx="36.079544"
         cy="134.3414"
         cx="221.28787"
         id="path8691"
         style="fill:#e5ff80;fill-opacity:1;stroke-width:0.26458332" />
      <path
         inkscape:connector-curvature="0"
         id="path8790"
         d="m 207.64101,158.21825 c -0.63876,-0.23115 -1.54578,-0.78855 -2.0156,-1.23867 -1.8538,-1.77605 -1.78395,-0.88872 -1.78395,-22.66311 0,-18.91979 0.0276,-19.93962 0.56933,-21.00096 0.65372,-1.28085 1.25648,-1.86595 2.73796,-2.65773 0.98175,-0.5247 1.92941,-0.56242 14.13115,-0.56242 h 13.07884 l 1.40198,0.82417 c 0.77109,0.45328 1.71818,1.33272 2.10464,1.9543 l 0.70266,1.13015 0.0833,20.0066 0.0833,20.00661 -0.70769,1.34046 c -0.38924,0.73725 -1.28379,1.74635 -1.9879,2.24245 l -1.28021,0.90198 -12.97819,0.0682 c -10.4916,0.0551 -13.20073,-0.0123 -14.13959,-0.35205 z m 8.0383,-2.05626 c 0.40678,-0.29744 0.506,-0.72776 0.4333,-1.87914 l -0.0943,-1.49336 h -4.05895 -4.05894 l -0.0894,1.70402 c -0.10717,2.042 -0.254,1.97083 4.16608,2.01939 2.15816,0.0237 3.34359,-0.0887 3.70225,-0.35091 z m 9.62121,0 c 0.40678,-0.29744 0.506,-0.72776 0.4333,-1.87914 l -0.0943,-1.49336 h -4.05894 -4.05895 l -0.0894,1.70402 c -0.10717,2.042 -0.25399,1.97083 4.16608,2.01939 2.15816,0.0237 3.34359,-0.0887 3.70225,-0.35091 z m 9.01989,0 c 0.40678,-0.29744 0.506,-0.72776 0.43329,-1.87914 l -0.0943,-1.49336 h -4.05895 -4.05894 l -0.0894,1.70402 c -0.10716,2.042 -0.25399,1.97083 4.16608,2.01939 2.15817,0.0237 3.34359,-0.0887 3.70226,-0.35091 z m -18.90724,-4.12271 c 0.72961,-0.2774 0.78036,-0.41441 0.69606,-1.87914 l -0.0909,-1.57993 h -4.05895 -4.05894 l -0.0894,1.70402 c -0.0752,1.43216 -0.003,1.72639 0.45099,1.84427 1.04972,0.27241 6.37477,0.20598 7.1512,-0.0892 z m 9.62121,0 c 0.72961,-0.2774 0.78036,-0.41441 0.69606,-1.87914 l -0.0909,-1.57993 h -4.05894 -4.05895 l -0.0894,1.70402 c -0.0752,1.43216 -0.003,1.72639 0.45099,1.84427 1.04972,0.27241 6.37477,0.20598 7.1512,-0.0892 z m 9.01989,0 c 0.72961,-0.2774 0.78036,-0.41441 0.69606,-1.87914 l -0.0909,-1.57993 h -4.05895 -4.05894 l -0.0894,1.70402 c -0.0752,1.43216 -0.003,1.72639 0.451,1.84427 1.04972,0.27241 6.37477,0.20598 7.1512,-0.0892 z m -18.03597,-6.0147 v -1.65365 h -4.05895 -4.05894 l -0.0941,1.31221 c -0.15901,2.21663 -0.24753,2.17305 4.22218,2.07902 l 3.98985,-0.0839 z m 9.62121,0 v -1.65365 h -4.05894 -4.05895 l -0.0941,1.31221 c -0.15901,2.21663 -0.24753,2.17305 4.22218,2.07902 l 3.98985,-0.0839 z m 9.01989,0 v -1.65365 h -4.05895 -4.05894 l -0.0941,1.31221 c -0.15901,2.21663 -0.24753,2.17305 4.22218,2.07902 l 3.98985,-0.0839 z m -0.31903,-5.15761 c 1.80157,-0.82085 1.81353,-0.90031 1.91706,-12.73183 0.0627,-7.16268 -0.0154,-11.19775 -0.23093,-11.9292 -0.1791,-0.60793 -0.73947,-1.45354 -1.24527,-1.87914 l -0.91962,-0.77381 h -12.46938 c -13.6809,0 -13.76704,0.0105 -14.68939,1.79413 -0.67383,1.30306 -0.6799,22.75792 -0.007,24.05955 0.95882,1.85415 0.58717,1.8073 14.33596,1.8073 8.84119,0 12.77172,-0.10248 13.30838,-0.347 z"
         style="fill:#ffffff;fill-opacity:1;stroke-width:0.30066288" />
    </g>
  </g>
</svg>
