<?xml version="1.0" encoding="UTF-8" standalone="no"?>
<!-- Created with Inkscape (http://www.inkscape.org/) -->

<svg
   xmlns:dc="http://purl.org/dc/elements/1.1/"
   xmlns:cc="http://creativecommons.org/ns#"
   xmlns:rdf="http://www.w3.org/1999/02/22-rdf-syntax-ns#"
   xmlns:svg="http://www.w3.org/2000/svg"
   xmlns="http://www.w3.org/2000/svg"
   xmlns:sodipodi="http://sodipodi.sourceforge.net/DTD/sodipodi-0.dtd"
   xmlns:inkscape="http://www.inkscape.org/namespaces/inkscape"
   width="210mm"
   height="297mm"
   viewBox="0 0 744.09448819 1052.3622047"
   id="svg2"
   version="1.1"
   inkscape:version="0.91 r13725"
   sodipodi:docname="piktogramos.svg">
  <defs
     id="defs4" />
  <sodipodi:namedview
     id="base"
     pagecolor="#ffffff"
     bordercolor="#666666"
     borderopacity="1.0"
     inkscape:pageopacity="0.0"
     inkscape:pageshadow="2"
     inkscape:zoom="1.4"
     inkscape:cx="362.16833"
     inkscape:cy="728.41706"
     inkscape:document-units="px"
     inkscape:current-layer="layer1"
     showgrid="false"
     inkscape:window-width="1920"
     inkscape:window-height="1017"
     inkscape:window-x="-8"
     inkscape:window-y="-8"
     inkscape:window-maximized="1" />
  <metadata
     id="metadata7">
    <rdf:RDF>
      <cc:Work
         rdf:about="">
        <dc:format>image/svg+xml</dc:format>
        <dc:type
           rdf:resource="http://purl.org/dc/dcmitype/StillImage" />
        <dc:title></dc:title>
      </cc:Work>
    </rdf:RDF>
  </metadata>
  <g
     inkscape:label="Sluoksnis 1"
     inkscape:groupmode="layer"
     id="layer1">
    <g
       id="g8115"
       transform="matrix(0.74703555,0,0,0.71595331,-9.7684913,176.56592)">
      <g
         id="g8132"
         transform="matrix(1.265,0,0,1.2979798,119.96072,53.210253)">
        <ellipse
           style="fill:#008080;fill-opacity:0.175;stroke:none"
           id="path8079"
           cx="133.57141"
           cy="136.64792"
           rx="71.428566"
           ry="70.714287" />
        <path
           style="fill:#20dfff;fill-opacity:1;fill-rule:evenodd;stroke:none;stroke-width:0.98759627px;stroke-linecap:butt;stroke-linejoin:miter;stroke-opacity:1"
           d="m 133.16002,92.285203 c -2.78245,-0.0084 -27.2167,44.772717 -27.11754,58.656017 0.10996,15.3948 11.74605,27.87536 26.23598,27.87536 14.48991,0 26.777,-12.49199 26.23655,-27.87536 -0.63216,-17.9937 -26.82888,-48.57687 -25.18272,-57.402965 0.15956,-0.855481 0.0894,-1.252271 -0.17227,-1.253052 z m 11.26324,60.923137 c 1.39699,0.0101 3.68607,1.64282 4.45507,3.61321 1.1718,3.00249 -1.92857,7.68162 -4.70512,9.31912 -2.77656,1.63752 -13.55137,3.03249 -6.83585,-0.93076 7.32782,-4.32462 6.34329,-6.68876 5.97157,-10.4966 -0.10445,-1.06999 0.38258,-1.51026 1.11433,-1.50497 z"
           id="path3336"
           inkscape:connector-curvature="0" />
      </g>
    </g>
    <g
       id="g8109"
       transform="matrix(1.1666667,0,0,1.204878,-335.35715,208.94113)">
      <ellipse
         ry="73.214287"
         rx="75"
         cy="193.43362"
         cx="548.57147"
         id="path8105"
         style="fill:#dde968;fill-opacity:0.31958762;stroke:none" />
      <g
         transform="matrix(0.54064676,0,0,0.5444705,312.97494,68.250982)"
         id="g8101">
        <path
           inkscape:connector-curvature="0"
           style="fill:#241c1c;fill-opacity:1;stroke:none"
           d="m 351.18945,186.60742 c -1.6214,3.26393 -2.61718,6.89589 -2.61718,10.80078 l 0,77.05078 c 0,13.47982 10.85026,24.33204 24.33007,24.33204 l 127.05078,0 c 13.47982,0 24.33204,-10.85222 24.33204,-24.33204 l 0,-77.05078 c 0,-4.88455 -1.45944,-9.40192 -3.91797,-13.20508 l -83.70508,58.72852 -85.47266,-56.32422 z"
           id="path8099" />
        <path
           style="fill:#241c1c;fill-opacity:1;stroke:none"
           d="m 351.18945,180.60742 85.47266,56.32422 83.70508,-58.72852 c -4.32625,-6.69234 -11.8188,-11.12695 -20.41407,-11.12695 l -127.05078,0 c -9.57492,0 -17.73714,5.52799 -21.71289,13.53125 z"
           id="rect8090"
           inkscape:connector-curvature="0" />
      </g>
    </g>
    <g
       id="g8261"
       transform="translate(-115,152.14286)">
      <ellipse
         ry="90"
         rx="91.428574"
         cy="249.50505"
         cx="587.85718"
         id="path8259"
         style="fill:#fb241c;fill-opacity:1;stroke:none" />
      <g
         style="fill:#ffffff;fill-opacity:1"
         transform="matrix(0.69615727,0,0,0.74243762,235.04476,152.77475)"
         id="g8255">
        <path
           style="fill:#ffffff;fill-opacity:1;stroke:none"
           d="m 492.14231,76.638393 -37.60596,37.293897 0,0.19426 -26.53607,0 0,36.36082 26.02538,0 c 0.54842,-0.32359 0.9274,-0.42695 1.09532,-0.26922 l 37.02133,34.77766 0,-108.357417 z"
           id="rect8144"
           inkscape:connector-curvature="0" />
        <path
           style="fill:#ffffff;fill-opacity:1;stroke:none"
           d="m 519.28516,60.691685 0,6.386719 a 70.714287,67.5 0 0 1 63,67.068366 70.714287,67.5 0 0 1 -63,67.01562 l 0,6.51172 a 76.428574,73.928574 0 0 0 68.57226,-73.52734 76.428574,73.928574 0 0 0 -68.57226,-73.455085 z m -7.85743,15.322266 0,5.052734 a 47.879745,53.394815 0 0 1 42.65625,53.052735 47.879745,53.394815 0 0 1 -42.65625,53.01172 l 0,5.15039 a 51.748816,58.480037 0 0 0 46.42969,-58.16211 51.748816,58.480037 0 0 0 -46.42969,-58.105469 z m -6.07031,17.5 0,3.625 a 30.937988,38.305548 0 0 1 27.5625,38.060549 30.937988,38.305548 0 0 1 -27.5625,38.0293 l 0,3.69531 a 33.438027,41.953696 0 0 0 30,-41.72461 33.438027,41.953696 0 0 0 -30,-41.685549 z"
           id="path8212"
           inkscape:connector-curvature="0" />
      </g>
    </g>
    <path
       style="fill:#55e300;fill-opacity:1;stroke:none"
       d="m 366.78544,203.07673 a 87.499892,86.78583 0 0 0 -87.50056,86.78516 87.499892,86.78583 0 0 0 87.50056,86.78515 87.499892,86.78583 0 0 0 87.50056,-86.78515 87.499892,86.78583 0 0 0 -87.50056,-86.78516 z m -24.30622,46.62984 50.32111,0 c 16.56432,0 29.899,14.45091 29.899,32.40099 l 0,17.95253 c 0,17.95006 -13.33468,32.40099 -29.899,32.40099 l -22.13309,0 -38.31388,11.44496 -1.28382,-13.87468 c -10.87122,-4.84094 -18.49167,-16.40507 -18.49167,-29.97127 l 0,-17.95253 c 0,-17.95008 13.33703,-32.40099 29.90135,-32.40099 z"
       id="path8141"
       inkscape:connector-curvature="0" />
  </g>
</svg>
