<?xml version="1.0" encoding="UTF-8" standalone="no"?>
<!-- Created with Inkscape (http://www.inkscape.org/) -->

<svg
   width="297mm"
   height="210mm"
   viewBox="0 0 297 210"
   version="1.1"
   id="svg5"
   inkscape:version="1.1.2 (b8e25be833, 2022-02-05)"
   sodipodi:docname="lanscape.svg"
   xmlns:inkscape="http://www.inkscape.org/namespaces/inkscape"
   xmlns:sodipodi="http://sodipodi.sourceforge.net/DTD/sodipodi-0.dtd"
   xmlns:xlink="http://www.w3.org/1999/xlink"
   xmlns="http://www.w3.org/2000/svg"
   xmlns:svg="http://www.w3.org/2000/svg">
  <sodipodi:namedview
     id="namedview7"
     pagecolor="#ffffff"
     bordercolor="#666666"
     borderopacity="1.0"
     inkscape:pageshadow="2"
     inkscape:pageopacity="0.0"
     inkscape:pagecheckerboard="0"
     inkscape:document-units="mm"
     showgrid="false"
     inkscape:zoom="0.71090067"
     inkscape:cx="579.54651"
     inkscape:cy="454.35321"
     inkscape:window-width="1177"
     inkscape:window-height="1020"
     inkscape:window-x="0"
     inkscape:window-y="0"
     inkscape:window-maximized="0"
     inkscape:current-layer="layer1" />
  <defs
     id="defs2">
    <linearGradient
       inkscape:collect="always"
       id="linearGradient30151">
      <stop
         style="stop-color:#008066;stop-opacity:1"
         offset="0"
         id="stop30147" />
      <stop
         style="stop-color:#afe9c6;stop-opacity:1"
         offset="1"
         id="stop30149" />
    </linearGradient>
    <linearGradient
       inkscape:collect="always"
       id="linearGradient1382">
      <stop
         style="stop-color:#217867;stop-opacity:1;"
         offset="0"
         id="stop1378" />
      <stop
         style="stop-color:#d5ffd5;stop-opacity:1"
         offset="1"
         id="stop1380" />
    </linearGradient>
    <linearGradient
       inkscape:collect="always"
       xlink:href="#linearGradient1382"
       id="linearGradient1384"
       x1="142.54512"
       y1="-0.37218046"
       x2="143.28947"
       y2="175.66917"
       gradientUnits="userSpaceOnUse"
       gradientTransform="translate(-7.4609376e-6)" />
    <linearGradient
       inkscape:collect="always"
       xlink:href="#linearGradient30151"
       id="linearGradient30153"
       x1="146.26691"
       y1="237.45113"
       x2="146.6391"
       y2="129.89098"
       gradientUnits="userSpaceOnUse"
       gradientTransform="translate(0.37219238)" />
  </defs>
  <g
     inkscape:label="Sluoksnis 1"
     inkscape:groupmode="layer"
     id="layer1">
    <rect
       style="fill:url(#linearGradient1384);fill-opacity:1;fill-rule:evenodd;stroke:none;stroke-width:0.265033"
       id="rect492"
       width="298.11652"
       height="129.89098"
       x="-0.74436826"
       y="0.37216818" />
    <path
       style="fill:none;stroke:none;stroke-width:0.264583px;stroke-linecap:butt;stroke-linejoin:miter;stroke-opacity:1;fill-opacity:1"
       d="M 0,83.199673 -0.74436085,130.26315 H 297.37216 l 1.11657,-83.087545 v 0"
       id="path2505" />
    <path
       style="fill:none;fill-opacity:1;stroke:none;stroke-width:1.40667"
       d="m 177.32677,-92.488307 c 0.55267,-39.263573 1.39223,-78.667813 1.86569,-87.564973 l 0.86082,-16.17666 14.81648,-1.23956 14.81648,-1.23954 6.28352,-12.82712 6.28351,-12.82711 20.76222,-9.73627 20.76222,-9.73626 9.42103,6.55839 c 19.30088,13.43617 31.61031,25.69359 51.74117,51.52256 10.83133,13.89717 20.06531,25.29623 20.51993,25.33124 0.45463,0.035 1.93488,-8.95659 3.28941,-19.98134 1.35455,-11.02475 2.77207,-21.1719 3.15004,-22.54923 0.40609,-1.47978 6.95886,-5.64958 16.01821,-10.19301 l 15.331,-7.68879 6.9695,-14.77531 c 3.83321,-8.12642 7.35431,-14.77531 7.82465,-14.77531 0.47034,0 6.68613,3.92191 13.81286,8.71534 10.14441,6.82313 15.24825,9.26399 23.5077,11.24236 5.8025,1.38986 11.26381,2.53195 12.13625,2.53799 0.87245,0.006 6.99628,-7.19163 13.60854,-15.99482 11.52347,-15.34172 12.68145,-16.41836 27.91026,-25.94958 8.73839,-5.46908 15.98852,-9.81871 16.11139,-9.66586 0.1228,0.15285 7.33356,16.54521 16.02375,36.42745 l 15.80033,36.14954 13.13793,11.32545 c 7.22585,6.229 13.63574,11.32545 14.2442,11.32545 0.60844,0 9.40009,-8.27674 19.53697,-18.39277 l 18.43071,-18.39277 15.96391,20.85444 c 14.01828,18.31274 17.82442,22.28154 31.22909,32.56377 l 15.26517,11.70936 11.8049,-9.94083 11.8049,-9.94082 3.96415,3.2886 c 5.9854,4.96541 46.60754,31.85767 48.12263,31.85767 0.72738,0 14.40365,-6.45126 30.39172,-14.33615 28.48983,-14.0504 29.25264,-14.54106 38.27025,-24.61666 5.06056,-5.65428 9.76611,-10.28051 10.45679,-10.28051 0.69069,0 5.65535,3.19997 11.03259,7.11104 l 9.77679,7.11103 29.93999,-23.20975 29.93999,-23.20976 3.87078,3.70424 c 3.54088,3.38854 4.02042,3.5034 5.62667,1.34768 0.96573,-1.2961 12.20038,-16.46992 24.96588,-33.71959 23.02572,-31.11403 23.40324,-31.53019 47.54968,-52.41727 13.38682,-11.57984 25.84308,-22.18162 27.68048,-23.55952 l 3.3408,-2.50528 10.9298,18.2231 10.9299,18.22309 8.1727,2.29315 c 4.495,1.26124 8.9588,1.81047 9.9197,1.22053 0.9608,-0.58995 9.8533,-7.34009 19.7612,-15.00033 16.9119,-13.07545 19.9193,-14.779 49.1478,-27.84001 17.1234,-7.65176 31.5252,-13.9123 32.0039,-13.9123 0.4786,0 5.2162,8.88393 10.5279,19.74208 l 9.6577,19.74208 27.2391,21.81915 c 14.9815,12.00054 28.0309,22.123 28.9987,22.49437 0.9677,0.37137 17.8227,-14.53428 37.4554,-33.12366 19.6327,-18.58939 35.9568,-33.53794 36.2757,-33.21901 0.6139,0.61392 -1.8171,196.69472 -3.3021,266.339907 l -0.8773,41.144989 H 738.23134 176.32191 Z"
       id="path29065"
       transform="scale(0.26458333)" />
    <path
       style="fill:#008066;fill-opacity:0.58208954;stroke:none;stroke-width:0.372181"
       d="M 0.29428497,111.37499 C 0.44051224,100.98651 0.66264582,90.5608 0.78791544,88.20676 l 0.22775866,-4.280074 3.9201936,-0.327967 3.9201936,-0.327962 1.6625147,-3.393842 1.662512,-3.393839 5.493337,-2.576055 5.493338,-2.576052 2.492647,1.73524 c 5.106691,3.554987 8.363561,6.798096 13.689851,13.632011 2.865789,3.676959 5.308947,6.692961 5.429232,6.702224 0.120287,0.0093 -2.279416,-5.533299 -1.92103,-8.450264 0.358391,-2.916965 3.338706,-4.2991 3.438711,-4.663518 0.107444,-0.391525 2.027288,0.366117 4.424241,-0.835999 l 4.056327,-2.034325 1.844014,-3.909301 c 1.014203,-2.150115 1.945827,-3.909301 2.070271,-3.909301 0.124445,0 1.769039,1.037672 3.654653,2.305934 2.684042,1.805286 4.034433,2.451097 6.219746,2.974541 1.535244,0.367734 2.980216,0.669912 3.211049,0.67151 0.230836,0.0016 1.851099,-1.902786 3.600593,-4.231963 3.048918,-4.059163 3.3553,-4.344024 7.384589,-6.865826 2.312033,-1.447028 0.880672,-1.481326 0.913182,-1.440885 0.03249,0.04044 2.69772,5.758541 6.100519,10.382457 l 5.669226,7.703664 3.476077,2.996525 c 1.911839,1.64809 3.607789,2.996526 3.768779,2.996526 0.16098,0 2.48711,-2.189888 5.16916,-4.866421 l 4.87645,-4.86642 4.22379,5.517737 c 3.709,4.845246 4.71604,5.895324 8.2627,8.615831 l 4.0389,3.098101 3.12338,-2.630178 3.12338,-2.630175 1.04885,0.870109 c 1.58364,1.313765 12.33158,8.429008 12.73245,8.429008 0.19245,0 3.81096,-1.706896 8.04114,-3.793106 7.53793,-3.717502 7.73976,-3.847322 10.12567,-6.513158 1.33894,-1.496028 2.58395,-2.720051 2.76669,-2.720051 0.18275,0 1.49631,0.846658 2.91904,1.881462 l 2.58678,1.88146 7.92162,-6.140913 7.92162,-6.140915 1.02415,0.98008 c 0.93685,0.896551 1.06373,0.926941 1.48872,0.356573 0.25552,-0.342926 3.22802,-4.357666 6.60555,-8.921641 6.09223,-8.232254 6.19211,-8.342363 12.58086,-13.868736 3.54193,-3.063832 6.83765,-5.868887 7.32379,-6.233456 l 0.88392,-0.662855 2.89184,4.821528 2.89187,4.821526 2.16236,0.606729 c 1.18931,0.333703 2.37035,0.47902 2.62459,0.322932 0.25421,-0.156091 2.60702,-1.942065 5.22848,-3.968837 4.47461,-3.459546 5.27032,-3.910277 13.00369,-7.366003 4.53057,-2.024528 8.34105,-3.680962 8.4677,-3.680962 0.12663,0 1.38012,2.350539 2.78551,5.223425 l 2.55527,5.223425 7.20701,5.772984 c 3.96385,3.175142 7.41651,5.853377 7.67257,5.951635 0.25604,0.09826 4.71559,-3.845528 9.91007,-8.763968 5.19449,-4.918443 9.51357,-8.87358 9.59795,-8.789197 0.16243,0.162433 -0.48077,52.042148 -0.87368,70.469098 l -0.23212,10.88628 H 148.70028 0.02841577 Z"
       id="path29104"
       sodipodi:nodetypes="sscccccccsscssscssssssssscssscsscccsssssscccssssscccsssssscssssscccs" />
    <rect
       style="fill:url(#linearGradient30153);fill-opacity:1;stroke:none;stroke-width:0.264583"
       id="rect29917"
       width="296.97156"
       height="80.018806"
       x="0.40060815"
       y="130.26315" />
    <path
       style="fill:#165044;stroke:none;stroke-width:0.264583px;stroke-linecap:butt;stroke-linejoin:miter;stroke-opacity:1"
       d="m 205.78616,213.41844 1.65375,-3.96498 -1.16862,0.0914 2.43584,-3.90283 -1.44517,-0.0899 2.6587,-4.24965 -1.15196,-0.13619 2.58305,-4.56597 -1.25884,-0.011 2.44203,-3.87666 -1.16097,0.17256 2.19969,-3.5855 1.90772,3.62796 -1.06929,-0.39651 2.375,5.07031 -1.11123,-0.19954 2.07674,3.96053 -1.03665,0.0482 1.98034,3.90105 -1.04539,-0.29759 2.07754,3.99653 -1.08225,-0.16053 1.8949,4.69991 z"
       id="path16725-47"
       sodipodi:nodetypes="cccccccccccccccccccccccc" />
    <path
       style="fill:#165044;stroke:none;stroke-width:0.264583px;stroke-linecap:butt;stroke-linejoin:miter;stroke-opacity:1"
       d="m 185.30973,200.4715 1.65375,-3.96498 -1.16862,0.0914 2.43584,-3.90283 -1.44517,-0.0899 2.6587,-4.24965 -1.15196,-0.13619 2.58305,-4.56597 -1.25884,-0.011 2.44203,-3.87666 -1.16097,0.17256 2.19969,-3.5855 1.90772,3.62796 -1.06929,-0.39651 2.375,5.07031 -1.11123,-0.19954 2.07674,3.96053 -1.03665,0.0482 1.98034,3.90105 -1.04539,-0.29759 2.07754,3.99653 -1.08225,-0.16053 1.8949,4.69991 z"
       id="path16725-5"
       sodipodi:nodetypes="cccccccccccccccccccccccc" />
    <path
       style="fill:#165044;stroke:none;stroke-width:0.619087px;stroke-linecap:butt;stroke-linejoin:miter;stroke-opacity:1"
       d="m 186.88833,247.56081 4.51374,-7.95344 -3.18963,0.18334 6.64837,-7.82876 -3.94444,-0.18034 7.25664,-8.52446 -3.14415,-0.27318 7.05016,-9.15898 -3.43587,-0.0221 6.66526,-7.77627 -3.16874,0.34614 6.00382,-7.19223 5.20692,7.2774 -2.91852,-0.79537 6.48231,10.17064 -3.03298,-0.40026 5.66824,7.94451 -2.82942,0.0967 5.40512,7.8252 -2.85328,-0.59694 5.67043,8.01672 -2.95389,-0.32201 5.17193,9.42765 z"
       id="path16725-1"
       sodipodi:nodetypes="cccccccccccccccccccccccc" />
    <path
       style="fill:#165044;stroke:none;stroke-width:0.264583px;stroke-linecap:butt;stroke-linejoin:miter;stroke-opacity:1"
       d="m 113.6313,208.22054 1.65375,-3.96498 -1.16862,0.0914 2.43584,-3.90283 -1.44517,-0.0899 2.6587,-4.24965 -1.15196,-0.13619 2.58305,-4.56597 -1.25884,-0.011 2.44203,-3.87666 -1.16097,0.17256 2.19969,-3.5855 1.90772,3.62796 -1.06929,-0.39651 2.375,5.07031 -1.11123,-0.19954 2.07674,3.96053 -1.03665,0.0482 1.98034,3.90105 -1.04539,-0.29759 2.07754,3.99653 -1.08225,-0.16053 1.8949,4.69991 z"
       id="path16725-57"
       sodipodi:nodetypes="cccccccccccccccccccccccc" />
    <path
       style="fill:#165044;stroke:none;stroke-width:0.290787px;stroke-linecap:butt;stroke-linejoin:miter;stroke-opacity:1"
       d="m 165.37262,208.85802 1.4245,-5.55998 -1.00662,0.12817 2.09818,-5.47282 -1.24484,-0.12606 2.29015,-5.95916 -0.99227,-0.19098 2.22498,-6.40272 -1.08434,-0.0154 2.10351,-5.43613 -1.00003,0.24198 1.89477,-5.02784 1.64327,5.08738 -0.92107,-0.55601 2.04578,7.10994 -0.95719,-0.27981 1.78886,5.55373 -0.89295,0.0676 1.70582,5.47033 -0.90048,-0.4173 1.78955,5.60421 -0.93222,-0.22511 1.63222,6.59055 z"
       id="path16725-41"
       sodipodi:nodetypes="cccccccccccccccccccccccc" />
    <path
       style="fill:#165044;stroke:none;stroke-width:0.264583px;stroke-linecap:butt;stroke-linejoin:miter;stroke-opacity:1"
       d="m 102.60172,206.43299 1.65375,-3.96498 -1.16862,0.0914 2.43584,-3.90283 -1.44517,-0.0899 2.6587,-4.24965 -1.15196,-0.13619 2.58305,-4.56597 -1.25884,-0.011 2.44203,-3.87666 -1.16097,0.17256 2.19969,-3.5855 1.90772,3.62796 -1.06929,-0.39651 2.375,5.07031 -1.11123,-0.19954 2.07674,3.96053 -1.03665,0.0482 1.98034,3.90105 -1.04539,-0.29759 2.07754,3.99653 -1.08225,-0.16053 1.8949,4.69991 z"
       id="path16725-50"
       sodipodi:nodetypes="cccccccccccccccccccccccc" />
    <path
       style="fill:#165044;stroke:none;stroke-width:0.264583px;stroke-linecap:butt;stroke-linejoin:miter;stroke-opacity:1"
       d="m 83.005749,218.08058 1.65375,-3.96498 -1.16862,0.0914 2.43584,-3.90283 -1.44517,-0.0899 2.6587,-4.24965 -1.15196,-0.13619 2.58305,-4.56597 -1.25884,-0.011 2.44203,-3.87666 -1.16097,0.17256 2.19969,-3.5855 1.90772,3.62796 -1.06929,-0.39651 2.375,5.07031 -1.11123,-0.19954 2.07674,3.96053 -1.03665,0.0482 1.98034,3.90105 -1.04539,-0.29759 2.07754,3.99653 -1.08225,-0.16053 1.8949,4.69991 z"
       id="path16725-59"
       sodipodi:nodetypes="cccccccccccccccccccccccc" />
    <path
       style="fill:#165044;stroke:none;stroke-width:0.264583px;stroke-linecap:butt;stroke-linejoin:miter;stroke-opacity:1"
       d="m 137.02271,204.06402 1.65375,-3.96498 -1.16862,0.0914 2.43584,-3.90283 -1.44517,-0.0899 2.6587,-4.24965 -1.15196,-0.13619 2.58305,-4.56597 -1.25884,-0.011 2.44203,-3.87666 -1.16097,0.17256 2.19969,-3.5855 1.90772,3.62796 -1.06929,-0.39651 2.375,5.07031 -1.11123,-0.19954 2.07674,3.96053 -1.03665,0.0482 1.98034,3.90105 -1.04539,-0.29759 2.07754,3.99653 -1.08225,-0.16053 1.8949,4.69991 z"
       id="path16725-71"
       sodipodi:nodetypes="cccccccccccccccccccccccc" />
    <path
       style="fill:#165044;stroke:none;stroke-width:0.236603px;stroke-linecap:butt;stroke-linejoin:miter;stroke-opacity:1"
       d="m 101.94214,215.3959 0.81924,-6.40057 -0.57891,0.14754 1.20667,-6.30024 -0.71591,-0.14512 1.31707,-6.86011 -0.57066,-0.21985 1.27959,-7.37073 -0.62361,-0.0178 1.20974,-6.25799 -0.57512,0.27855 1.08968,-5.78798 0.94505,5.85653 -0.52971,-0.64008 1.17653,8.18488 -0.55048,-0.32211 1.02878,6.39338 -0.51354,0.0778 0.98102,6.29737 -0.51786,-0.48039 1.02917,6.4515 -0.53613,-0.25914 0.9387,7.58695 z"
       id="path16725-65"
       sodipodi:nodetypes="cccccccccccccccccccccccc" />
    <path
       style="fill:#165044;stroke:none;stroke-width:0.264583px;stroke-linecap:butt;stroke-linejoin:miter;stroke-opacity:1"
       d="m 74.061979,218.70848 1.65375,-3.96498 -1.16862,0.0914 2.43584,-3.90283 -1.44517,-0.0899 2.6587,-4.24965 -1.15196,-0.13619 2.58305,-4.56597 -1.25884,-0.011 2.44203,-3.87666 -1.16097,0.17256 2.19969,-3.5855 1.90772,3.62796 -1.06929,-0.39651 2.375,5.07031 -1.11123,-0.19954 2.07674,3.96053 -1.03665,0.0482 1.98034,3.90105 -1.04539,-0.29759 2.07754,3.99653 -1.08225,-0.16053 1.8949,4.69991 z"
       id="path16725-13"
       sodipodi:nodetypes="cccccccccccccccccccccccc" />
    <path
       style="fill:#165044;stroke:none;stroke-width:0.193562px;stroke-linecap:butt;stroke-linejoin:miter;stroke-opacity:1"
       d="m 67.067222,220.20615 0.729417,-3.95767 -0.6397,0.18197 1.163183,-3.96049 -0.800385,0.0292 1.270076,-4.31294 -0.640953,-0.0389 1.213892,-4.61202 -0.694104,0.0904 1.167795,-3.93574 -0.631764,0.25965 1.047617,-3.63541 1.217442,3.34669 -0.607338,-0.29668 1.541029,4.70059 -0.621416,-0.10331 1.325816,3.65396 -0.568967,0.1297 1.269975,3.60431 -0.589635,-0.20318 1.327907,3.68862 -0.603661,-0.068 1.259522,4.38181 z"
       id="path16725-38"
       sodipodi:nodetypes="cccccccccccccccccccccccc" />
    <path
       style="fill:#165044;stroke:none;stroke-width:0.187549px;stroke-linecap:butt;stroke-linejoin:miter;stroke-opacity:1"
       d="m 169.51561,188.4171 2.46352,-3.19026 -0.57142,-0.17426 2.79273,-2.96315 -0.61909,-0.39732 3.04382,-3.22505 -0.46564,-0.37454 3.14585,-3.52507 -0.56832,-0.28575 2.78425,-2.93834 -0.60295,-0.0999 2.54832,-2.73057 -0.69686,3.66893 -0.31569,-0.58967 -1.10645,5.06376 -0.41976,-0.42237 -0.76341,4.00398 -0.49268,-0.18407 -0.78163,3.92955 -0.34748,-0.4958 -0.77858,4.03642 -0.4234,-0.38107 -1.16519,4.62664 z"
       id="path16725-31"
       sodipodi:nodetypes="cccccccccccccccccccccccc" />
    <path
       style="fill:#165044;stroke:none;stroke-width:0.255945px;stroke-linecap:butt;stroke-linejoin:miter;stroke-opacity:1"
       d="m 151.6166,182.90465 1.66356,-3.68844 -1.17555,0.085 2.45029,-3.63062 -1.45374,-0.0836 2.67447,-3.95326 -1.15879,-0.12669 2.59837,-4.24752 -1.26631,-0.0102 2.45652,-3.60628 -1.16786,0.16052 2.21274,-3.33543 1.91904,3.37493 -1.07563,-0.36885 2.38909,4.71668 -1.11782,-0.18563 2.08906,3.6843 -1.0428,0.0448 1.99209,3.62897 -1.0516,-0.27683 2.08987,3.71779 -1.08867,-0.14933 1.90614,4.37211 z"
       id="path16725-7"
       sodipodi:nodetypes="cccccccccccccccccccccccc" />
    <path
       style="fill:#165044;stroke:none;stroke-width:0.264583px;stroke-linecap:butt;stroke-linejoin:miter;stroke-opacity:1"
       d="m 124.56109,196.21277 0.0995,-4.29489 -1.05548,0.5099 0.85073,-4.52125 -1.37901,0.44151 0.9323,-4.92534 -1.12268,0.29181 0.74685,-5.19253 -1.17674,0.44729 0.86601,-4.49912 -1.01886,0.58273 0.74607,-4.13979 3.09587,2.68646 -1.14028,0.0192 4.05543,3.86034 -1.10776,0.21799 3.37421,2.93486 -0.94824,0.42169 3.26278,2.91448 -1.08206,0.10272 3.38804,2.9681 -1.06658,0.24381 3.47353,3.68976 z"
       id="path16725-05"
       sodipodi:nodetypes="cccccccccccccccccccccccc" />
    <path
       style="fill:#165044;stroke:none;stroke-width:0.264583px;stroke-linecap:butt;stroke-linejoin:miter;stroke-opacity:1"
       d="m 108.44099,198.49334 1.65375,-3.96498 -1.16862,0.0914 2.43584,-3.90283 -1.44517,-0.0899 2.6587,-4.24965 -1.15196,-0.13619 2.58305,-4.56597 -1.25884,-0.011 2.44203,-3.87666 -1.16097,0.17256 2.19969,-3.5855 1.90772,3.62796 -1.06929,-0.39651 2.375,5.07031 -1.11123,-0.19954 2.07674,3.96053 -1.03665,0.0482 1.98034,3.90105 -1.04539,-0.29759 2.07754,3.99653 -1.08225,-0.16053 1.8949,4.69991 z"
       id="path16725-63"
       sodipodi:nodetypes="cccccccccccccccccccccccc" />
    <path
       style="fill:#008066;fill-opacity:1;stroke:none;stroke-width:0.264583px;stroke-linecap:butt;stroke-linejoin:miter;stroke-opacity:1"
       d="m 0.74436088,41.684209 17.86466112,13.770676 3.349624,-3.349622 19.725563,22.330825 6.69925,11.537595 5.954887,1.488721 7.071426,9.676693 3.349625,5.582703 8.187971,3.72181 1.48872,9.30451 2.977444,0.37218 4.093985,6.32707 3.721806,2.60526 2.977444,-0.74436 6.699247,-6.32707 2.977444,3.90789 c 1.754561,1.66684 2.915732,5.77528 4.479862,6.48896 7.80209,3.55992 7.80209,3.55992 7.80209,3.55992 l 5.39662,4.09398 6.51316,1.67482 8.18797,2.41917 -10.42106,0.93045 -12.65413,-0.74436 -15.631581,-1.48872 -14.887218,1.8609 -14.515036,0.74436 -21.586467,-4.46617 -39.82330712,3.34963 z"
       id="path30844"
       sodipodi:nodetypes="ccccccccccccccccscccccccccccc" />
    <path
       style="fill:#008066;stroke:none;stroke-width:0.264583px;stroke-linecap:butt;stroke-linejoin:miter;stroke-opacity:1"
       d="m 161.76304,138.23311 8.6956,-1.27071 2.79136,-5.02443 6.32707,-0.18609 1.8609,-9.30451 11.90977,-10.23497 4.52455,4.15784 9.54123,-6.30836 5.64108,-6.90404 6.90404,0.6805 12.84023,-14.515032 12.65414,-8.746241 10.79323,-21.586467 12.84022,-11.351504 7.62971,4.466167 5.21052,-10.421054 6.51317,-6.513158 3.16351,8.37406 2.60528,-14.887217 3.34962,-5.024436 L 297,140.49812 l -57.50188,-1.8609 -39.82331,1.48872 -12.84023,1.30263 -12.84022,-0.37218 z"
       id="path33272"
       sodipodi:nodetypes="cccccccccccccccccccccccccc" />
    <path
       style="fill:#005544;stroke:none;stroke-width:0.276952px;stroke-linecap:butt;stroke-linejoin:miter;stroke-opacity:1"
       d="m 1.0024165,83.944361 1.6677665,-1.532396 0.1387328,2.911519 1.8778289,-1.49162 -0.1275964,2.625731 0.7240167,-1.235755 0.089013,2.123837 1.1547168,-3.376371 0.3156829,4.428954 0.5857009,-1.270994 0.3690983,2.255104 1.3277696,-2.59811 -0.4289596,3.344626 0.7863638,-1.017939 -0.071074,1.612022 0.9921703,-3.130278 -0.09712,3.873664 0.837746,-1.755827 0.109245,2.542357 1.48088,-1.48822 -0.431361,2.359905 0.777574,-0.919293 c 0.323393,0.466455 -0.06509,1.511284 0.104827,1.652186 v 0 l 0.799291,-2.66257 0.852742,4.034677 1.018919,-1.077628 0.136888,2.037593 0.954234,-3.775994 -0.21945,4.386279 1.116538,-2.257027 1.947535,2.729676 1.644054,-4.869937 1.967412,5.427039 0.454523,-2.219924 1.490913,2.520025 0.980924,-1.222275 0.313084,1.421877 0.359127,-3.262784 1.980704,3.623708 2.040425,-1.975287 0.712531,2.39996 0.612819,-1.043784 1.64116,1.391487 c 0.252243,0.03893 0.199814,-2.145272 0.40972,-3.158932 l 1.321117,4.261178 1.665913,-0.783591 0.548527,3.024921 0.855247,-2.17606 c -0.333454,-0.30319 0.350092,3.39605 0.510663,3.55856 l 0.723507,-0.32672 0.532962,1.59844 1.356204,-1.36644 c 0.238664,0.28478 -0.234999,2.57923 0.02519,2.87009 0.147944,0.16538 0.417411,0.74596 0.453127,0.49879 0.609202,-4.21592 0.511286,0.54849 0.777137,0.82563 0.229458,0.23919 0.915291,-3.06351 1.153327,-2.8219 0.158858,0.16178 -0.13239,3.86714 0.02922,4.02947 0.319144,0.31255 1.055738,-2.5025 1.310156,-2.25333 0.636026,0.62291 0.629599,4.15304 0.941249,4.45825 1.227065,1.20172 1.040491,0.0762 1.70246,-1.40203 0.149012,-0.33274 -0.538026,2.36649 0.459658,3.34357 0.291377,0.28537 0.338469,-2.48114 0.722479,-2.10505 l 1.953985,3.98022 0.18512,-1.96581 1.639877,2.26778 1.36844,-5.41044 1.352492,5.86068 1.393319,-1.62296 2.058708,2.19418 1.492275,-1.00748 1.602437,1.51956 2.547821,-3.89479 -0.182311,4.28623 1.135501,-1.61312 0.673504,2.81241 c 0.22284,0.23702 2.69083,-5.34755 0.668521,0.71107 l 1.224412,-0.48173 1.054406,2.90559 0.609986,-2.5013 1.878121,5.14776 c 0.375924,0.39985 1.38786,-4.41832 1.127772,1.19955 0.539104,-0.57818 0.959817,-3.90676 1.804148,2.32742 0.238336,1.75974 0.814931,-0.78326 1.530333,-2.38354 0.09898,-0.22141 0.452418,1.83628 1.332613,3.56229 0.641023,1.25701 0.988622,2.93841 1.108522,3.05523 0.242494,0.23626 0.699058,-1.64529 0.941552,-1.41236 0.243455,0.23386 0.272843,2.58219 0.516298,2.81481 0.445825,0.42599 0.720395,-1.4267 1.166221,-0.99484 0.460036,0.44562 1.091329,3.17618 1.551368,3.64206 0.331381,0.3356 0.619946,-5.01759 0.951327,-4.6651 l 0.593296,6.24624 1.151449,-2.92204 0.181411,4.25466 1.009205,-1.56896 0.82909,3.40692 c 0.344238,0.34418 0,0 1.204191,-1.73382 l 0.311922,3.24965 0.69607,-1.75362 0.306357,2.75587 1.098958,-4.98238 -0.111786,5.96937 0.954128,-2.33773 0.363482,3.65509 1.020981,-5.04891 0.24385,6.31351 1.292389,-2.49366 0.540346,4.32604 1.005603,-2.06964 1.03532,4.1102 0.639135,-1.49946 0.410498,2.5489 0.956438,-3.6831 0.05714,4.69646 0.769475,-1.19186 0.34315,2.04193 -22.75638,7.72733 -40.460759,-0.23163 -37.02077342,-1.85303 z"
       id="path33947"
       sodipodi:nodetypes="cccccccccccccccccccccccccccccccccccccccccccccccccccccsssccssssccccccccccccccccccccsssssssscccccccccccccccccccccccccccccc" />
    <path
       style="fill:#002b22;stroke:none;stroke-width:0.264583px;stroke-linecap:butt;stroke-linejoin:miter;stroke-opacity:1"
       d="m -9.3768808,107.95903 1.4866696,3.03145 2.0213882,-2.7092 c 0.6041313,0.0555 0.1992097,10.20152 1.8123937,0.16649 l 1.5428403,3.50052 2.1254534,-4.82918 1.6463869,2.84805 1.312301,-2.18721 1.511478,2.04952 1.646905,-3.71841 1.7178507,4.46456 1.763593,-2.55933 1.288973,3.6607 0.954364,-1.58717 0.831042,2.95012 1.242922,-4.69669 0.904344,6.42152 1.129299,-2.80305 0.551771,4.54342 1.130261,-1.90609 0.713717,4.057 0.757947,-1.97317 1.13693,4.06492 c 0.35875,0.39602 0.717501,-17.31587 1.076251,1.18807 l 1.047039,-2.05692 0.1376,3.36463 1.314034,-5.04499 0.770381,7.34597 1.347115,-2.78885 0.682371,3.82674 1.300587,-5.64065 1.331332,6.31599 1.343731,-2.3898 2.098708,2.78229 c 0.516556,0.13422 -1.665,-21.31644 1.549667,0.40267 l 1.219883,-3.27806 1.663267,4.02723 0.641788,-1.10247 2.219124,2.78146 0.858023,-6.10715 2.028149,5.9215 1.184835,-3.06544 2.547269,4.0352 1.255749,-1.75084 1.351192,2.75786 0.983885,-1.23196 0.949149,2.37829 1.139553,-0.6351 c 0.0478,-1.59001 0.803229,1.76804 1.093973,1.95963 l 0.616305,-1.36693 1.519452,2.63349 1.170174,-1.81843 0.77541,2.9722 0.840707,-1.5544 1.193171,2.76054 1.217152,-5.54077 1.06746,6.8956 0.7677,1.70417 0.916397,-0.70546 0.632355,-2.77082 0.845801,3.85442 0.554494,-1.33901 0.762712,2.50195 1.987018,-4.02835 -0.557728,5.29024 0.69041,-0.87464 0.694247,2.09713 0.596065,0.52626 c 1.038105,-10.49361 0.583019,0.51473 0.874528,0.7721 l 0.550432,0.48597 c 0.507476,-9.68372 0.465549,0.41103 0.698324,0.61654 0.862275,-1.40264 2.727466,-5.57805 0.807077,0.71255 l 1.736092,-2.82942 -0.335113,4.06632 0.823921,-0.43372 0.658664,1.74267 c 0.301669,0.26634 0.197198,-9.82388 0.905006,0.79901 l 0.684167,0.60404 c 1.801534,-7.15199 0.630873,0.55699 0.94631,0.83548 l 0.790786,-1.34347 0.374197,2.37202 1.14421,-1.73976 0.256768,2.97666 0.709686,-4.07199 0.218137,4.89115 0.738237,-1.6569 0.220063,2.50296 0.789367,-1.1183 0.282018,2.06421 0.675507,-3.25248 1.455712,4.50284 0.832729,4.23493 c 0.09363,2.9575 -3.658192,4.71071 -7.902788,4.44552 -2.763817,-0.27891 -10.509705,4.5802 -13.910245,3.34963 0,0 13.910245,-3.34963 0,0 -4.609582,4.23796 -15.679297,8.64178 -18.892032,9.40964 l 7.447483,-3.64084 -7.447483,3.64084 -9.300637,-1.96603 -21.772556,4.83835 -1.488722,3.16353 -7.8157887,-1.67481 -9.4906017,0.37218 h -9.3045116 l 4.3882702,-77.69268 v 0"
       id="path52467"
       sodipodi:nodetypes="cccccccccccccccccccccccccccccccccccccccccccccccccccccccccccccccccccccccccccccccccccccccccccccccccccccccccc" />
    <path
       style="fill:#000000;stroke:#000000;stroke-width:0.264583px;stroke-linecap:butt;stroke-linejoin:miter;stroke-opacity:1"
       d="m 0.61996987,152.671 c 0.0414745,-0.15304 0.39314023,5.3689 1.47422633,0.76708 0.083698,-0.35627 0.49897,1.98165 0.812465,2.16661 0.4165144,0.24575 0.6664438,-1.48218 1.0787333,-1.23627 0.2299998,0.13718 0.6238213,1.35997 0.852497,1.49718 0.4049389,0.24297 0.5117288,-1.25753 0.9124868,-1.01454 0.2353933,0.14272 0.76613,2.02895 1.0000708,2.17166 0.3188594,0.19451 0.65581,0.36044 0.9525107,0.58342 l 0.7847773,-1.49087 0.6638405,2.57954 0.6953102,-1.212 1.2087382,2.64293 0.671627,-1.64129 1.079653,2.95742 0.4954,-0.86878 1.292958,2.21277 0.907446,-2.32835 0.570535,3.43909 0.43379,-1.43385 0.612774,2.22037 0.741666,-1.54799 1.16251,2.97902 0.634674,-1.59342 0.706338,2.60122 0.792181,-3.87053 0.790916,5.06027 0.79416,-2.24105 1.030892,3.61262 0.648493,-1.86189 1.055517,3.14249 0.986477,-5.50451 0.41786,6.5599 1.216625,-2.17928 0.697999,3.61817 0.993195,-1.98686 0.789683,3.32673 0.662084,-6.20082 1.520614,7.84117 0.488907,-5.98248 1.215488,7.26338 0.981872,-3.70515 0.659069,4.93835 c 0.338203,0.22675 0.554165,-20.44987 1.015093,0.76287 l 1.407032,-3.40988 0.181416,4.60363 0.950631,-2.21707 0.548246,3.34351 0.86456,-7.53851 0.229401,8.36065 0.816057,-4.79489 0.546106,5.81859 1.275185,-3.7179 0.302815,4.9038 1.031869,-7.26165 0.546004,8.44746 0.962829,-2.13798 0.472979,3.21703 1.322583,-5.40361 0.250066,6.58549 0.889184,-2.7516 0.45718,3.76342 1.206407,-1.55934 0.502955,2.84397 0.706632,-4.19312 0.472257,5.07908 c 0,0 0.372182,5.58271 -4.093985,7.25752 -4.466164,1.67481 -14.515036,2.41917 -17.49248,4.28007 -2.977443,1.8609 -7.81579,8.74624 -11.165414,8.74624 H 0.24330877 L -0.15728745,153.734 Z"
       id="path68121"
       sodipodi:nodetypes="cssssssscccccccccccccccccccccccccccccccccccccccccccccccccccccccccsssccc" />
    <path
       style="fill:#005544;stroke:none;stroke-width:0.265;stroke-linecap:butt;stroke-linejoin:miter;stroke-opacity:1;fill-opacity:1;stroke-miterlimit:4;stroke-dasharray:none"
       d="m 179.76316,142.91729 8.37406,-7.6297 8.18797,-2.97744 5.02443,1.48872 10.04888,-13.21241 9.67669,-1.30263 6.32706,-3.90789 7.6297,-10.04887 7.25752,-4.09399 7.81579,-0.18609 8.74624,-6.140976 3.34962,-13.212405 5.95491,-3.163536 4.83832,-5.024434 10.23496,-2.605263 7.62971,-6.140979 6.69925,-10.607143 -0.37219,90.812036 -77.41352,-0.93046 -26.23873,-1.48872 z"
       id="path60"
       sodipodi:nodetypes="ccccccccccccccccccccc" />
    <path
       style="fill:#0b2822;stroke:none;stroke-width:0.264583px;stroke-linecap:butt;stroke-linejoin:miter;stroke-opacity:1;fill-opacity:1"
       d="m 196.69737,145.52256 2.81801,-1.1272 0.55923,-2.59882 0.54109,2.15868 2.56365,-1.02546 0.54109,-2.41391 0.13953,2.14166 1.21146,-0.48458 0.25194,-4.35924 0.24872,3.99877 1.66908,-1.20175 0.26165,-1.65425 0.39958,1.17817 1.01976,-0.73423 0.55675,-3.00798 0.14979,2.49927 1.79546,-1.29273 0.10508,-3.88213 0.46358,3.4727 1.61101,-1.15993 0.35858,-4.58198 0.41353,4.02606 1.4627,-1.87606 0.0542,-2.3355 0.37344,1.78697 1.29217,-1.65734 0.13738,-4.34605 0.70552,3.26494 3.78225,-4.85115 0.0958,-2.5613 0.65664,1.59617 2.00846,0.83686 0.84552,-2.63871 -0.14356,2.93119 1.75574,0.73156 2.53436,-3.30234 0.45284,-3.56469 0.0953,2.85043 1.39964,-1.82378 0.01,-1.83006 0.30443,1.4205 1.34452,-1.75194 1.37777,-0.28366 0.6775,-2.27752 0.19408,2.09803 1.61228,-0.33194 0.15942,-2.77357 0.34552,2.66957 1.9605,-0.40363 2.23308,-1.67481 0.67106,-2.60848 0.30139,2.11666 2.84904,-1.44089 0.394,-3.22536 0.18442,2.93283 2.58558,-1.30765 0.63692,-4.25154 0.0728,3.89261 0.39324,-0.19888 0.32865,-1.64618 0.28831,1.33415 1.4179,-0.71709 0.52588,-5.59405 0.0522,5.30166 1.32576,-0.67049 0.63021,-2.58783 c 0.35927,-0.35593 0.19024,2.15275 0.31465,2.10996 l 1.79879,-0.90973 0.40679,-2.08083 0.42004,1.66266 0.5922,-0.2995 1.69004,0.23046 0.55083,-2.43847 0.68962,2.60762 1.1635,0.15866 1.26515,-1.6718 c 0.10193,-0.13682 -0.77965,-5.63831 0.30674,-0.40534 l 0.12664,-0.16734 1.953,-2.58076 0.18411,-3.071193 0.3126,2.414843 1.06229,-1.63402 0.95553,-0.38271 0.17375,-1.521043 0.46517,1.111168 1.15955,-0.743865 0.4333,-1.964991 0.48661,1.374862 1.93655,-1.242315 c 0.36745,-3.498772 0.16569,-4.784115 0.51403,-0.329761 l 0.92826,-0.595488 0.0938,-1.319565 c 0.10656,-0.284187 0.27891,1.080449 0.38547,1.012089 l 0.2977,-0.190973 0.4299,-2.332128 0.0393,2.03114 c 1.36566,0.06662 0.95484,-0.120538 1.43225,-0.180807 l 0.99942,-1.613663 -0.0886,-1.666623 0.81133,1.007637 0.54905,-1.972231 0.56626,0.955332 0.58236,-2.672146 0.63756,1.559868 0.34169,-1.328428 0.70969,0.369816 0.19848,-2.502101 0.67802,1.702937 0.83523,-1.056635 0.60187,0.649743 0.36255,-0.915178 0.72316,0.943016 c 0.46761,-2.463184 0.36893,-0.622601 0.42906,0.011 l 1.04947,0.02691 0.26624,-2.389551 0.78744,2.416568 c 1.03811,-2.897255 0.81203,0.02082 1.21805,0.03123 l 0.39787,0.0102 0.45685,-1.401988 0.6031,1.429166 0.16466,-2.394325 0.74462,1.384012 0.86858,-0.965083 0.0774,-1.917261 0.59159,1.173911 0.88493,-0.983257 0.249,-3.164235 0.42002,2.420885 0.62158,-0.690642 -0.0149,-1.270056 0.54652,0.679374 0.27808,-0.308972 0.12795,-1.286231 0.52634,0.559239 0.61287,-0.680967 -0.37219,128.774426 -18.23683,0.1861 c 0,0 -1.27997,-15.46739 -20.46992,-23.44737 -18.79511,-7.81579 -20.09774,-12.09586 -20.09774,-12.09586 l 4.46616,-0.1861 c 0,0 -16.93421,-18.42293 -28.28571,-20.8421 -10.74435,-2.28977 -17.67857,-5.7688 -17.67857,-5.7688 l -7.6297,-2.23308 3.29657,-0.16901 0.52497,-2.36255 0.33146,2.31865 2.11331,-0.10834 0.46279,-2.19321 z"
       id="path1406"
       sodipodi:nodetypes="cccccccccccccccccccccccccccccccccccccccccccccccccccccccccccccccccccccccccccccccccccccccccccccccccccccccccccccccccccccccccccccccccccccccccsccscccccccc" />
    <ellipse
       style="fill:#d5ffe6;fill-opacity:1;fill-rule:evenodd;stroke:none;stroke-width:0.233485;stroke-miterlimit:4;stroke-dasharray:none"
       id="path16385"
       cx="146.453"
       cy="72.019188"
       rx="15.073308"
       ry="15.259398" />
    <path
       style="fill:#165044;stroke:none;stroke-width:0.221779px;stroke-linecap:butt;stroke-linejoin:miter;stroke-opacity:1"
       d="m 135.34614,196.01469 0.0608,-5.10617 -0.61946,0.22291 0.50155,-5.10136 -0.80918,0.0223 0.54961,-5.55528 -0.65874,-0.0628 0.44097,-5.94333 -0.69054,0.1035 0.51049,-5.06925 -0.59799,0.32362 0.43993,-4.68305 1.81461,4.35367 -0.66891,-0.39568 2.37683,6.11164 -0.64994,-0.14577 1.97774,4.75329 -0.55649,0.15666 1.9124,4.68797 -0.63481,-0.27435 1.98583,4.7982 -0.62581,-0.0998 2.0356,5.69372 z"
       id="path16725"
       sodipodi:nodetypes="cccccccccccccccccccccccc" />
    <path
       style="fill:#165044;stroke:none;stroke-width:0.350489px;stroke-linecap:butt;stroke-linejoin:miter;stroke-opacity:1"
       d="m 185.91606,203.56019 4.16498,-3.81296 -1.4748,-0.53836 5.08518,-3.30557 -1.71387,-0.90782 5.54487,-3.59576 -1.33119,-0.8006 5.62397,-4.01495 -1.52936,-0.71047 5.07854,-3.27092 -1.50944,-0.43733 4.62525,-3.05791 0.36127,5.38395 -1.08933,-1.06528 0.1498,7.36311 -1.2472,-0.85358 0.38726,5.87424 -1.29043,-0.51683 0.3019,5.74989 -1.11378,-0.93405 0.36873,5.91763 -1.23298,-0.79102 -0.23509,6.65538 z"
       id="path16725-4"
       sodipodi:nodetypes="cccccccccccccccccccccccc" />
    <path
       style="fill:#165044;stroke:none;stroke-width:0.264583px;stroke-linecap:butt;stroke-linejoin:miter;stroke-opacity:1"
       d="m 224.45829,218.93271 1.65375,-3.96498 -1.16862,0.0914 2.43584,-3.90283 -1.44517,-0.0899 2.6587,-4.24965 -1.15196,-0.13619 2.58305,-4.56597 -1.25884,-0.011 2.44203,-3.87665 -1.16097,0.17256 2.19969,-3.5855 1.90772,3.62796 -1.06929,-0.39651 2.375,5.07031 -1.11123,-0.19954 2.07674,3.96053 -1.03665,0.0482 1.98034,3.90105 -1.04539,-0.29759 2.07754,3.99653 -1.08225,-0.16053 1.8949,4.69991 z"
       id="path16725-0"
       sodipodi:nodetypes="cccccccccccccccccccccccc" />
    <path
       style="fill:#165044;stroke:none;stroke-width:0.264583px;stroke-linecap:butt;stroke-linejoin:miter;stroke-opacity:1"
       d="m 95.185336,208.99848 -0.361579,-4.2808 -0.994716,0.62014 0.361009,-4.5864 -1.323715,0.58683 0.398769,-4.99691 -1.084912,0.41051 0.185742,-5.24268 -1.121998,0.57089 0.378577,-4.56602 -0.950492,0.68861 0.297853,-4.19591 3.36609,2.339 -1.131638,0.14141 4.445992,3.40321 -1.077995,0.33552 3.669457,2.55612 -0.89755,0.52093 3.55649,2.54781 -1.0648,0.21816 3.68677,2.58768 -1.03429,0.35677 3.84917,3.29602 z"
       id="path16725-6"
       sodipodi:nodetypes="cccccccccccccccccccccccc" />
    <path
       style="fill:#165044;stroke:none;stroke-width:0.185417px;stroke-linecap:butt;stroke-linejoin:miter;stroke-opacity:1"
       d="m 176.0968,188.66137 2.32195,-1.06542 -1.07801,-0.4534 3.01779,-0.70708 -1.29095,-0.65108 3.29176,-0.7672 -1.01564,-0.54768 3.28889,-0.93997 -1.13868,-0.53677 3.01797,-0.69281 -1.08791,-0.4141 2.7379,-0.6657 0.97551,2.42121 -0.88668,-0.62856 1.09948,3.26069 -0.96558,-0.55864 1.05963,2.64068 -0.94946,-0.41682 0.98462,2.57346 -0.88557,-0.57444 1.05288,2.65705 -0.94744,-0.52899 0.74131,2.89286 z"
       id="path16725-2"
       sodipodi:nodetypes="cccccccccccccccccccccccc" />
    <path
       style="fill:#165044;stroke:none;stroke-width:0.390691px;stroke-linecap:butt;stroke-linejoin:miter;stroke-opacity:1"
       d="m 143.69094,195.65971 0.0839,-6.79684 -1.44811,0.82179 1.11624,-7.16568 -1.89478,0.71819 1.22362,-7.8062 -1.54342,0.47769 0.96476,-8.22632 -1.61598,0.72445 1.13757,-7.13086 -1.39674,0.9365 0.97674,-6.56064 4.29936,4.20648 -1.57103,0.0467 5.63616,6.05013 -1.52377,0.36068 4.68599,4.59553 -1.30142,0.6807 4.53219,4.56488 -1.48979,0.17792 4.70545,4.64794 -1.4667,0.40093 4.83222,5.78853 z"
       id="path16725-66"
       sodipodi:nodetypes="cccccccccccccccccccccccc" />
    <path
       style="fill:#165044;stroke:none;stroke-width:0.264583px;stroke-linecap:butt;stroke-linejoin:miter;stroke-opacity:1"
       d="m 154.23504,192.35846 3.00643,-3.06877 -1.11916,-0.34857 3.70967,-2.72097 -1.30874,-0.61952 4.04528,-2.96039 -1.01927,-0.55374 4.09235,-3.28221 -1.16497,-0.47713 3.70572,-2.69436 -1.14216,-0.27036 3.37267,-2.51387 0.42601,4.07677 -0.84595,-0.76484 0.32497,5.58955 -0.95795,-0.59747 0.45962,4.44831 -0.98059,-0.33974 0.39216,4.35731 -0.86045,-0.66411 0.44701,4.48203 -0.94551,-0.55049 0.0165,5.0675 z"
       id="path16725-49"
       sodipodi:nodetypes="cccccccccccccccccccccccc" />
    <path
       style="fill:#165044;stroke:none;stroke-width:0.264583px;stroke-linecap:butt;stroke-linejoin:miter;stroke-opacity:1"
       d="m 211.29379,209.22597 2.10202,-3.74666 -1.17134,-0.0446 2.87165,-3.59431 -1.42502,-0.25674 3.13319,-3.91297 -1.12843,-0.26875 3.0947,-4.23592 -1.24908,-0.15679 2.87476,-3.56758 -1.17315,0.0369 2.60032,-3.30647 1.47451,3.82456 -1.01615,-0.51773 1.77152,5.31134 -1.08062,-0.32695 1.60385,4.17448 -1.03525,-0.0722 1.515,4.10424 -1.00387,-0.41672 1.60048,4.21034 -1.05636,-0.28485 1.33757,4.88781 z"
       id="path16725-3"
       sodipodi:nodetypes="cccccccccccccccccccccccc" />
    <path
       style="fill:#165044;stroke:none;stroke-width:0.264583px;stroke-linecap:butt;stroke-linejoin:miter;stroke-opacity:1"
       d="m 95.185335,208.99848 20.326515,-10.67221 19.27563,-7.19484 12.12493,-3.08391 10.94525,-4.71363 3.69159,-1.24739 10.42988,3.14034 6.43962,2.36911 8.36678,5.00924 18.52288,13.42143 20.62568,5.03978 -131.063602,-1.39013 33.515742,-1.32413"
       id="path20273" />
    <path
       style="fill:#0b2822;stroke:none;stroke-width:0.315036px;stroke-linecap:butt;stroke-linejoin:miter;stroke-opacity:1"
       d="m 151.31407,203.38338 1.65375,-5.62131 -1.16862,0.12958 2.43584,-5.53319 -1.44517,-0.12746 2.6587,-6.0249 -1.15196,-0.19308 2.58305,-6.47335 -1.25884,-0.0156 2.44203,-5.49609 -1.16097,0.24464 2.19969,-5.0833 1.90772,5.1435 -1.06929,-0.56215 2.375,7.18838 -1.11123,-0.28289 2.07674,5.61499 -1.03665,0.0683 1.98034,5.53067 -1.04539,-0.4219 2.07754,5.66603 -1.08225,-0.22759 1.8949,6.66325 z"
       id="path16725-08"
       sodipodi:nodetypes="cccccccccccccccccccccccc" />
    <path
       style="fill:#0b2822;stroke:none;stroke-width:0.264583px;stroke-linecap:butt;stroke-linejoin:miter;stroke-opacity:1"
       d="m 175.36406,211.17631 3.05949,-3.01587 -1.11291,-0.36804 3.75656,-2.65585 -1.29773,-0.64225 4.0963,-2.88938 -1.00947,-0.57144 4.14898,-3.21033 -1.15647,-0.49737 3.75215,-2.62933 -1.13727,-0.29025 3.416,-2.45465 0.35485,4.08357 -0.83249,-0.77947 0.22744,5.59437 -0.94738,-0.61409 0.38195,4.45564 -0.9745,-0.35679 0.3161,4.36349 -0.84874,-0.67901 0.36877,4.48914 -0.93576,-0.56689 -0.0719,5.06701 z"
       id="path16725-08-4"
       sodipodi:nodetypes="cccccccccccccccccccccccc" />
    <path
       style="fill:#0b2822;stroke:none;stroke-width:0.266177px;stroke-linecap:butt;stroke-linejoin:miter;stroke-opacity:1"
       d="m 157.21774,215.12711 2.8868,-4.3487 -0.93055,-0.16971 3.45911,-4.08761 -1.06771,-0.45263 3.77137,-4.44931 -0.82468,-0.438 3.84304,-4.8458 -0.95758,-0.31378 3.45311,-4.05482 -0.95792,-0.0707 3.14872,-3.76435 -0.0269,4.79587 -0.65494,-0.72969 -0.26014,6.63303 -0.76761,-0.50404 -0.0339,5.2341 -0.812,-0.18987 -0.0832,5.13993 -0.67716,-0.60563 -0.048,5.27735 -0.76142,-0.45045 -0.47548,6.07526 z"
       id="path16725-08-8-94"
       sodipodi:nodetypes="cccccccccccccccccccccccc" />
    <path
       style="fill:#0b2822;stroke:none;stroke-width:0.19864px;stroke-linecap:butt;stroke-linejoin:miter;stroke-opacity:1"
       d="m 150.62722,194.98391 0.25745,-3.92303 -0.65791,0.2116 0.7194,-3.94817 -0.84923,0.07 0.78702,-4.29969 -0.68827,-0.005 0.68785,-4.59042 -0.72792,0.12453 0.72757,-3.9241 -0.63924,0.28747 0.63894,-3.62306 1.7373,3.22285 -0.68631,-0.25996 2.26008,4.53536 -0.67589,-0.0694 1.89318,3.51892 -0.58939,0.15665 1.82714,3.47306 -0.65515,-0.16906 1.89996,3.55283 -0.65233,-0.0356 1.91816,4.23691 z"
       id="path16725-08-8-7"
       sodipodi:nodetypes="cccccccccccccccccccccccc" />
    <path
       style="fill:#0b2822;stroke:none;stroke-width:0.19864px;stroke-linecap:butt;stroke-linejoin:miter;stroke-opacity:1"
       d="m 95.854643,221.65068 -0.08877,-3.93047 -0.636736,0.26868 0.369183,-3.99616 -0.83978,0.14444 0.405602,-4.35228 -0.686052,0.0554 0.281232,-4.63314 -0.714139,0.1881 0.379435,-3.97291 -0.611461,0.34261 0.317632,-3.66523 2.01417,3.05747 -0.706521,-0.19856 2.65041,4.31889 -0.679373,-0.01 2.195485,3.33867 -0.57331,0.2079 2.12568,3.29881 -0.66749,-0.11076 2.20523,3.37186 -0.65293,0.0219 2.28355,4.05168 z"
       id="path16725-08-8-11"
       sodipodi:nodetypes="cccccccccccccccccccccccc" />
    <path
       style="fill:#0b2822;stroke:none;stroke-width:0.19864px;stroke-linecap:butt;stroke-linejoin:miter;stroke-opacity:1"
       d="m 117.7285,219.58971 -0.21367,-3.92566 -0.62788,0.28878 0.24197,-4.00588 -0.83477,0.17106 0.26704,-4.36296 -0.68394,0.0772 0.1338,-4.63974 -0.70779,0.21071 0.25294,-3.98296 -0.60026,0.36188 0.20096,-3.67348 2.11035,2.99189 -0.71248,-0.17599 2.78637,4.23244 -0.67934,0.012 2.30051,3.26718 -0.56641,0.22603 2.22947,3.22956 -0.67067,-0.0895 2.3113,3.30006 -0.6519,0.0427 2.4112,3.97704 z"
       id="path16725-08-8-0"
       sodipodi:nodetypes="cccccccccccccccccccccccc" />
    <path
       style="fill:#0b2822;stroke:none;stroke-width:0.264583px;stroke-linecap:butt;stroke-linejoin:miter;stroke-opacity:1"
       d="m 103.18664,216.35473 1.65375,-3.96498 -1.16862,0.0914 2.43584,-3.90283 -1.44517,-0.0899 2.6587,-4.24965 -1.15196,-0.13619 2.58305,-4.56597 -1.25884,-0.011 2.44203,-3.87666 -1.16097,0.17256 2.19969,-3.5855 1.90772,3.62796 -1.06929,-0.39651 2.375,5.07031 -1.11123,-0.19954 2.07674,3.96053 -1.03665,0.0482 1.98034,3.90105 -1.04539,-0.29759 2.07754,3.99653 -1.08225,-0.16053 1.8949,4.69991 z"
       id="path16725-08-3"
       sodipodi:nodetypes="cccccccccccccccccccccccc" />
    <path
       style="fill:#0b2822;stroke:none;stroke-width:0.264583px;stroke-linecap:butt;stroke-linejoin:miter;stroke-opacity:1"
       d="m 146.03046,204.36224 0.17277,-4.29257 -1.06402,0.49183 0.92771,-4.50608 -1.38634,0.41793 1.01615,-4.90874 -1.12749,0.27263 0.83529,-5.17904 -1.1842,0.42715 0.9426,-4.48369 -1.02864,0.56527 0.81656,-4.12646 3.0496,2.73886 -1.14044,-1.9e-4 3.98901,3.92893 -1.11131,0.19907 3.32366,2.99197 -0.95529,0.40545 3.21261,2.9697 -1.08365,0.0842 3.33692,3.02545 -1.07058,0.22558 3.41011,3.74846 z"
       id="path16725-08-2"
       sodipodi:nodetypes="cccccccccccccccccccccccc" />
    <path
       style="fill:#0b2822;stroke:none;stroke-width:0.331295px;stroke-linecap:butt;stroke-linejoin:miter;stroke-opacity:1"
       d="m 153.98592,217.11785 2.70779,-5.83506 -1.17576,-0.0617 3.46109,-5.60332 -1.39876,-0.38968 3.77495,-6.10015 -1.0974,-0.41025 3.78655,-6.60169 -1.23673,-0.23557 3.46006,-5.56184 -1.19031,0.0649 3.14215,-5.15435 0.89134,5.93292 -0.94514,-0.79785 0.95897,8.2411 -1.04005,-0.501 0.96728,6.47577 -1.03404,-0.1055 0.88852,6.36719 -0.94851,-0.64097 0.95826,6.5315 -1.02213,-0.43574 0.58696,7.58585 z"
       id="path16725-08-0"
       sodipodi:nodetypes="cccccccccccccccccccccccc" />
    <path
       style="fill:#0b2822;stroke:none;stroke-width:0.12459px;stroke-linecap:butt;stroke-linejoin:miter;stroke-opacity:1"
       d="m 214.31211,210.2902 1.29602,-1.46286 -0.56628,-0.12772 1.6591,-1.32454 -0.67414,-0.24487 1.80959,-1.44133 -0.52905,-0.22282 1.81448,-1.58767 -0.59588,-0.18456 1.65868,-1.31244 -0.57313,-0.0919 1.50613,-1.22228 0.43734,1.82703 -0.45624,-0.32261 0.47305,2.51182 -0.50154,-0.2442 0.47464,1.99368 -0.49811,-0.12735 0.43657,1.95442 -0.45765,-0.2768 0.47038,2.00921 -0.49282,-0.2233 0.293,2.28454 z"
       id="path16725-08-27"
       sodipodi:nodetypes="cccccccccccccccccccccccc" />
    <path
       style="fill:#0b2822;stroke:none;stroke-width:0.264583px;stroke-linecap:butt;stroke-linejoin:miter;stroke-opacity:1"
       d="m 193.61867,213.96765 2.75364,-3.29748 -1.14327,-0.25874 3.48226,-3.00654 -1.35375,-0.51379 3.79782,-3.27181 -1.05997,-0.47119 3.81923,-3.59635 -1.19913,-0.38326 3.48042,-2.97971 -1.16,-0.17895 3.16273,-2.77336 0.74791,4.03015 -0.90393,-0.69535 0.76714,5.54618 -1.00231,-0.51963 0.81087,4.39786 -1.00444,-0.26093 0.73641,4.3125 -0.91039,-0.59379 0.80097,4.43248 -0.98618,-0.47379 0.41825,5.05023 z"
       id="path16725-08-1"
       sodipodi:nodetypes="cccccccccccccccccccccccc" />
    <path
       style="fill:#0b2822;stroke:none;stroke-width:0.264583px;stroke-linecap:butt;stroke-linejoin:miter;stroke-opacity:1"
       d="m 201.28355,211.31955 3.19671,-2.87001 -1.09455,-0.4195 3.87625,-2.47791 -1.26639,-0.70202 4.22649,-2.69536 -0.98173,-0.61786 4.29407,-3.01349 -1.13203,-0.55073 3.8706,-2.45162 -1.12251,-0.34292 3.52668,-2.2928 0.16415,4.09567 -0.79525,-0.81742 -0.0335,5.59889 -0.91774,-0.65757 0.17391,4.4686 -0.95683,-0.40182 0.11241,4.37348 -0.81616,-0.71782 0.15917,4.50145 -0.90834,-0.60989 -0.30793,5.05816 z"
       id="path16725-08-7"
       sodipodi:nodetypes="cccccccccccccccccccccccc" />
    <path
       style="fill:#0b2822;stroke:none;stroke-width:0.264583px;stroke-linecap:butt;stroke-linejoin:miter;stroke-opacity:1"
       d="m 216.21409,220.641 2.36773,-3.58467 -1.16503,-0.12929 3.1243,-3.377 -1.40269,-0.35923 3.40823,-3.67589 -1.10601,-0.34973 3.39323,-4.00078 -1.23446,-0.2468 3.12548,-3.35013 -1.17274,-0.0481 2.83286,-3.10956 1.19377,3.92127 -0.976,-0.58994 1.38238,5.42565 -1.05412,-0.40432 1.29745,4.27964 -1.02731,-0.14699 1.21392,4.20313 -0.97107,-0.48829 1.29149,4.31515 -1.03297,-0.36057 0.98023,4.97181 z"
       id="path16725-08-22"
       sodipodi:nodetypes="cccccccccccccccccccccccc" />
    <path
       style="fill:#0b2822;stroke:none;stroke-width:0.264583px;stroke-linecap:butt;stroke-linejoin:miter;stroke-opacity:1"
       d="m 189.55692,208.01926 1.65375,-3.96498 -1.16862,0.0914 2.43584,-3.90283 -1.44517,-0.0899 2.6587,-4.24965 -1.15196,-0.13619 2.58305,-4.56597 -1.25884,-0.011 2.44203,-3.87666 -1.16097,0.17256 2.19969,-3.5855 1.90772,3.62796 -1.06929,-0.39651 2.375,5.07031 -1.11123,-0.19954 2.07674,3.96053 -1.03665,0.0482 1.98034,3.90105 -1.04539,-0.29759 2.07754,3.99653 -1.08225,-0.16053 1.8949,4.69991 z"
       id="path16725-08-06"
       sodipodi:nodetypes="cccccccccccccccccccccccc" />
    <path
       style="fill:#0b2822;stroke:none;stroke-width:0.264583px;stroke-linecap:butt;stroke-linejoin:miter;stroke-opacity:1"
       d="m 81.772589,222.64467 1.259883,-4.10715 -1.154171,0.20474 2.044309,-4.12143 -1.447057,0.0512 2.232345,-4.4883 -1.159747,-0.0234 2.126259,-4.79576 -1.253931,0.11161 2.053017,-4.09599 -1.138655,0.28477 1.840173,-3.78262 2.251859,3.425 -1.102813,-0.29053 2.857339,4.81501 -1.125378,-0.0904 2.452453,3.73954 -1.027033,0.14889 2.350718,3.68972 -1.069394,-0.1944 2.456752,3.77529 -1.092737,-0.0544 2.343459,4.49311 z"
       id="path16725-08-20"
       sodipodi:nodetypes="cccccccccccccccccccccccc" />
    <path
       style="fill:#0b2822;stroke:none;stroke-width:0.264583px;stroke-linecap:butt;stroke-linejoin:miter;stroke-opacity:1"
       d="m 122.38247,207.29646 1.65375,-3.96498 -1.16862,0.0914 2.43584,-3.90283 -1.44517,-0.0899 2.6587,-4.24965 -1.15196,-0.13619 2.58305,-4.56597 -1.25884,-0.011 2.44203,-3.87666 -1.16097,0.17256 2.19969,-3.5855 1.90772,3.62796 -1.06929,-0.39651 2.375,5.07031 -1.11123,-0.19954 2.07674,3.96053 -1.03665,0.0482 1.98034,3.90105 -1.04539,-0.29759 2.07754,3.99653 -1.08225,-0.16053 1.8949,4.69991 z"
       id="path16725-08-9"
       sodipodi:nodetypes="cccccccccccccccccccccccc" />
    <path
       style="fill:#0b2822;stroke:none;stroke-width:0.19864px;stroke-linecap:butt;stroke-linejoin:miter;stroke-opacity:1"
       d="m 70.571657,222.47032 0.970071,-3.80991 -0.685499,0.0878 1.428836,-3.7502 -0.84772,-0.0864 1.559563,-4.08345 -0.675727,-0.13087 1.515188,-4.3874 -0.738421,-0.0106 1.432467,-3.72505 -0.681012,0.16581 1.290314,-3.44528 1.119047,3.48608 -0.627234,-0.38101 1.393149,4.87202 -0.651835,-0.19173 1.218192,3.80564 -0.608087,0.0463 1.161644,3.74849 -0.613213,-0.28595 1.21866,3.84023 -0.634835,-0.15425 1.111527,4.51611 z"
       id="path16725-08-8"
       sodipodi:nodetypes="cccccccccccccccccccccccc" />
    <path
       style="fill:#0b2822;stroke:none;stroke-width:0.19864px;stroke-linecap:butt;stroke-linejoin:miter;stroke-opacity:1"
       d="m 61.90883,224.00821 0.970071,-3.80991 -0.685499,0.0878 1.428836,-3.7502 -0.84772,-0.0864 1.559563,-4.08345 -0.675727,-0.13087 1.515188,-4.3874 -0.738421,-0.0106 1.432467,-3.72505 -0.681012,0.16581 1.290314,-3.44528 1.119047,3.48608 -0.627234,-0.38101 1.393149,4.87202 -0.651835,-0.19173 1.218192,3.80564 -0.608087,0.0463 1.161644,3.74849 -0.613213,-0.28595 1.21866,3.84023 -0.634835,-0.15425 1.111527,4.51611 z"
       id="path16725-08-8-1"
       sodipodi:nodetypes="cccccccccccccccccccccccc" />
    <path
       style="fill:#0b2822;stroke:none;stroke-width:0.19864px;stroke-linecap:butt;stroke-linejoin:miter;stroke-opacity:1"
       d="m 97.295748,210.54372 0.970071,-3.80991 -0.685499,0.0878 1.428836,-3.7502 -0.84772,-0.0864 1.559563,-4.08345 -0.675727,-0.13087 1.515188,-4.3874 -0.738421,-0.0106 1.432471,-3.72505 -0.68102,0.16581 1.29032,-3.44528 1.11905,3.48608 -0.62724,-0.38101 1.39315,4.87202 -0.65184,-0.19173 1.2182,3.80564 -0.60809,0.0463 1.16164,3.74849 -0.61321,-0.28595 1.21866,3.84023 -0.63483,-0.15425 1.11152,4.51611 z"
       id="path16725-08-8-8"
       sodipodi:nodetypes="cccccccccccccccccccccccc" />
    <path
       style="fill:#0b2822;stroke:none;stroke-width:0.243544px;stroke-linecap:butt;stroke-linejoin:miter;stroke-opacity:1"
       d="m 167.38216,214.15253 1.59488,-4.96971 -0.77702,0.0399 2.099,-4.83848 -0.93471,-0.21058 2.2897,-5.26801 -0.73672,-0.2505 2.281,-5.67819 -0.82287,-0.0972 2.09966,-4.80455 -0.78249,0.14441 1.90337,-4.44759 0.7807,4.77312 -0.64897,-0.5785 0.90042,6.6515 -0.70187,-0.32894 0.84844,5.21027 -0.68503,-0.007 0.79299,5.12771 -0.6461,-0.45019 0.84431,5.25642 -0.68794,-0.27707 0.63389,6.14537 z"
       id="path16725-08-8-9"
       sodipodi:nodetypes="cccccccccccccccccccccccc" />
    <path
       style="fill:#0b2822;stroke:none;stroke-width:0.19864px;stroke-linecap:butt;stroke-linejoin:miter;stroke-opacity:1"
       d="m 178.25131,200.98765 0.97007,-3.80991 -0.6855,0.0878 1.42884,-3.7502 -0.84772,-0.0864 1.55956,-4.08345 -0.67572,-0.13087 1.51518,-4.3874 -0.73842,-0.0106 1.43247,-3.72505 -0.68101,0.16581 1.29031,-3.44528 1.11905,3.48608 -0.62724,-0.38101 1.39315,4.87202 -0.65183,-0.19173 1.21819,3.80564 -0.60809,0.0463 1.16165,3.74849 -0.61321,-0.28595 1.21866,3.84023 -0.63484,-0.15425 1.11153,4.51611 z"
       id="path16725-08-8-84"
       sodipodi:nodetypes="cccccccccccccccccccccccc" />
    <path
       style="fill:#0b2822;stroke:none;stroke-width:0.19864px;stroke-linecap:butt;stroke-linejoin:miter;stroke-opacity:1"
       d="m 120.74749,206.65963 -0.44155,-3.9066 -0.61002,0.3248 0.009,-4.01317 -0.8234,0.21931 0.0129,-4.37112 -0.67828,0.11683 -0.13618,-4.63967 -0.69436,0.25151 0.0209,-3.99094 -0.5782,0.39617 -0.013,-3.67895 2.28072,2.86414 -0.72149,-0.13428 3.02772,4.06329 -0.6775,0.0515 2.48658,3.1279 -0.55231,0.25858 2.41346,3.09447 -0.67473,-0.0503 2.49926,3.16009 -0.64834,0.0805 2.63835,3.83013 z"
       id="path16725-08-8-3"
       sodipodi:nodetypes="cccccccccccccccccccccccc" />
    <path
       style="fill:#0b2822;stroke:none;stroke-width:0.264583px;stroke-linecap:butt;stroke-linejoin:miter;stroke-opacity:1"
       d="m 131.65851,199.25367 1.65375,-3.96498 -1.16862,0.0914 2.43584,-3.90283 -1.44517,-0.0899 2.6587,-4.24965 -1.15196,-0.13619 2.58305,-4.56597 -1.25884,-0.011 2.44203,-3.87666 -1.16097,0.17256 2.19969,-3.5855 1.90772,3.62796 -1.06929,-0.39651 2.375,5.07031 -1.11123,-0.19954 2.07674,3.96053 -1.03665,0.0482 1.98034,3.90105 -1.04539,-0.29759 2.07754,3.99653 -1.08225,-0.16053 1.8949,4.69991 z"
       id="path16725-08-5"
       sodipodi:nodetypes="cccccccccccccccccccccccc" />
    <path
       style="fill:#0b2822;stroke:none;stroke-width:0.0983243px;stroke-linecap:butt;stroke-linejoin:miter;stroke-opacity:1"
       d="m 238.00257,213.64553 0.70395,-1.70396 -0.36356,7.1e-4 0.94117,-1.64965 -0.43956,-0.0893 1.02676,-1.79601 -0.34719,-0.0998 1.01914,-1.93905 -0.38619,-0.048 0.94175,-1.63782 -0.3652,0.0369 0.85293,-1.51682 0.40688,1.67607 -0.30893,-0.21261 0.47921,2.33247 -0.33156,-0.12654 0.44238,1.8295 -0.32086,-0.0141 0.4157,1.79981 -0.30647,-0.16786 0.44085,1.84551 -0.32457,-0.10825 0.35,2.15158 z"
       id="path16725-08-8-38"
       sodipodi:nodetypes="cccccccccccccccccccccccc" />
    <path
       style="fill:#0b2822;stroke:none;stroke-width:0.19864px;stroke-linecap:butt;stroke-linejoin:miter;stroke-opacity:1"
       d="m 232.25349,227.14003 0.97008,-3.80991 -0.6855,0.0878 1.42883,-3.7502 -0.84772,-0.0864 1.55956,-4.08345 -0.67572,-0.13087 1.51519,-4.3874 -0.73842,-0.0106 1.43246,-3.72505 -0.68101,0.16581 1.29031,-3.44528 1.11905,3.48608 -0.62723,-0.38101 1.39315,4.87202 -0.65184,-0.19173 1.21819,3.80564 -0.60808,0.0463 1.16164,3.74849 -0.61321,-0.28595 1.21866,3.84023 -0.63484,-0.15425 1.11153,4.51611 z"
       id="path16725-08-8-840"
       sodipodi:nodetypes="cccccccccccccccccccccccc" />
    <path
       style="fill:#0b2822;stroke:none;stroke-width:0.19864px;stroke-linecap:butt;stroke-linejoin:miter;stroke-opacity:1"
       d="m 173.52365,209.52628 0.97008,-3.80991 -0.6855,0.0878 1.42883,-3.7502 -0.84772,-0.0864 1.55956,-4.08345 -0.67572,-0.13087 1.51519,-4.3874 -0.73842,-0.0106 1.43246,-3.72505 -0.68101,0.16581 1.29031,-3.44528 1.11905,3.48608 -0.62723,-0.38101 1.39315,4.87202 -0.65184,-0.19173 1.21819,3.80564 -0.60808,0.0463 1.16164,3.74849 -0.61321,-0.28595 1.21866,3.84023 -0.63484,-0.15425 1.11153,4.51611 z"
       id="path16725-08-8-87"
       sodipodi:nodetypes="cccccccccccccccccccccccc" />
    <path
       style="fill:#0b2822;stroke:none;stroke-width:0.264583px;stroke-linecap:butt;stroke-linejoin:miter;stroke-opacity:1"
       d="m 106.10761,208.57832 10.45358,-0.82327 4.40112,-1.31887 13.2849,-7.54403 10.43337,-2.4188 1.38634,-0.41793 17.97746,-3.93942 4.04029,1.98831 3.24719,4.22256 13.97787,2.14463 7.16816,-0.22865 28.96273,8.92234 -0.14437,3.28846 -24.92394,-1.78348 -40.85436,0.55092 -33.56325,-1.41882 2.3113,3.30006 31.25195,-1.88124 -58.222202,-0.67737 8.811862,-1.9654"
       id="path22207" />
    <path
       style="fill:#0b2822;stroke:none;stroke-width:0.264583px;stroke-linecap:butt;stroke-linejoin:miter;stroke-opacity:1"
       d="m 104.66244,208.48842 40.8713,0.27223 -0.52634,3.48702 -41.33563,0.23348 0.99067,-3.99273 7.51434,2.50918"
       id="path22508" />
  </g>
</svg>
