<?xml version="1.0" encoding="UTF-8" standalone="no"?>
<!-- Created with Inkscape (http://www.inkscape.org/) -->

<svg
   width="297mm"
   height="210mm"
   viewBox="0 0 297 210"
   version="1.1"
   id="svg5"
   inkscape:version="1.1.1 (c3084ef, 2021-09-22)"
   sodipodi:docname="peizaÅ¾as.svg.2022_03_05_18_13_09.0.svg"
   xmlns:inkscape="http://www.inkscape.org/namespaces/inkscape"
   xmlns:sodipodi="http://sodipodi.sourceforge.net/DTD/sodipodi-0.dtd"
   xmlns:xlink="http://www.w3.org/1999/xlink"
   xmlns="http://www.w3.org/2000/svg"
   xmlns:svg="http://www.w3.org/2000/svg">
  <sodipodi:namedview
     id="namedview7"
     pagecolor="#ffffff"
     bordercolor="#666666"
     borderopacity="1.0"
     inkscape:pageshadow="2"
     inkscape:pageopacity="0.0"
     inkscape:pagecheckerboard="false"
     inkscape:document-units="mm"
     showgrid="false"
     units="mm"
     showguides="false"
     inkscape:zoom="0.43543761"
     inkscape:cx="551.16966"
     inkscape:cy="237.69192"
     inkscape:window-width="1440"
     inkscape:window-height="803"
     inkscape:window-x="0"
     inkscape:window-y="23"
     inkscape:window-maximized="1"
     inkscape:current-layer="layer1"
     inkscape:snap-bbox="true"
     inkscape:snap-nodes="true"
     inkscape:snap-bbox-edge-midpoints="true"
     inkscape:snap-bbox-midpoints="true"
     inkscape:bbox-paths="true" />
  <defs
     id="defs2">
    <linearGradient
       inkscape:collect="always"
       id="linearGradient27217">
      <stop
         style="stop-color:#2d0b55;stop-opacity:1;"
         offset="0"
         id="stop27213" />
      <stop
         style="stop-color:#2d0b55;stop-opacity:0;"
         offset="1"
         id="stop27215" />
    </linearGradient>
    <linearGradient
       inkscape:collect="always"
       id="linearGradient21570">
      <stop
         style="stop-color:#32267a;stop-opacity:1;"
         offset="0"
         id="stop21566" />
      <stop
         style="stop-color:#32267a;stop-opacity:0;"
         offset="1"
         id="stop21568" />
    </linearGradient>
    <linearGradient
       inkscape:collect="always"
       id="linearGradient6317">
      <stop
         style="stop-color:#28397e;stop-opacity:1;"
         offset="0"
         id="stop6313" />
      <stop
         style="stop-color:#3c93e3;stop-opacity:1"
         offset="1"
         id="stop6315" />
    </linearGradient>
    <linearGradient
       inkscape:collect="always"
       xlink:href="#linearGradient6317"
       id="linearGradient6319"
       x1="164.13158"
       y1="34.984966"
       x2="164.13158"
       y2="137.70677"
       gradientUnits="userSpaceOnUse" />
    <radialGradient
       inkscape:collect="always"
       xlink:href="#linearGradient21570"
       id="radialGradient21572"
       cx="78.424019"
       cy="183.30018"
       fx="78.424019"
       fy="183.30018"
       r="82.546589"
       gradientTransform="matrix(1,0,0,0.38273486,0,113.14481)"
       gradientUnits="userSpaceOnUse" />
    <filter
       inkscape:collect="always"
       style="color-interpolation-filters:sRGB"
       id="filter21574"
       x="-0.0033838158"
       y="-0.0090035976"
       width="1.0067676"
       height="1.0180072">
      <feGaussianBlur
         inkscape:collect="always"
         stdDeviation="0.23019346"
         id="feGaussianBlur21576" />
    </filter>
    <linearGradient
       inkscape:collect="always"
       xlink:href="#linearGradient27217"
       id="linearGradient27219"
       x1="248.12056"
       y1="136.1571"
       x2="242.53918"
       y2="164.68706"
       gradientUnits="userSpaceOnUse"
       gradientTransform="matrix(1.113014,0.01091547,0.01471396,1.0014212,-18.219567,-2.8041974)" />
    <filter
       inkscape:collect="always"
       style="color-interpolation-filters:sRGB"
       id="filter19909"
       x="-0.60587228"
       y="-0.31888014"
       width="2.2117446"
       height="1.6377603">
      <feGaussianBlur
         inkscape:collect="always"
         stdDeviation="0.76696647"
         id="feGaussianBlur19911" />
    </filter>
    <filter
       inkscape:collect="always"
       style="color-interpolation-filters:sRGB"
       id="filter23683"
       x="-0.082544536"
       y="-0.74623737"
       width="1.1650891"
       height="2.4924747">
      <feGaussianBlur
         inkscape:collect="always"
         stdDeviation="4.9854068"
         id="feGaussianBlur23685" />
    </filter>
  </defs>
  <g
     inkscape:label="Sluoksnis 1"
     inkscape:groupmode="layer"
     id="layer1">
    <rect
       style="fill:#344f92;fill-opacity:1;stroke-width:0.281308"
       id="rect1431"
       width="298.11652"
       height="82.882118"
       x="-3.2267174e-08"
       y="127.77202" />
    <rect
       style="fill:url(#linearGradient6319);fill-opacity:1;stroke-width:0.264418"
       id="rect3768"
       width="298.11649"
       height="136.09415"
       x="-3.226716e-08"
       y="-0.37218046" />
    <path
       style="fill:none;stroke:#000000;stroke-width:0.264583px;stroke-linecap:butt;stroke-linejoin:miter;stroke-opacity:1"
       d="m 298.11654,150.73308 -2e-5,59.92106 -124.68043,0.37218"
       id="path10426" />
    <path
       style="fill:#2e0851;fill-opacity:1;stroke-width:0.388574"
       d="m 176.98145,210.44093 c 0,-0.11704 0.66004,-0.79312 1.46675,-1.50242 1.61299,-1.41821 5.63226,-2.78699 8.18365,-2.78699 0.83423,0 2.30922,-0.27001 3.27775,-0.60005 2.05656,-0.70075 5.14142,-0.96932 10.269,-0.89398 2.29634,0.0338 3.78125,-0.10071 3.95161,-0.35763 0.1501,-0.22642 0.45715,-0.30552 0.68232,-0.17577 1.08587,0.62564 5.13097,-4.6782 5.17804,-6.78935 0.01,-0.41269 0.28262,-1.07808 0.6076,-1.47863 0.32498,-0.40056 0.59086,-1.20416 0.59086,-1.78579 0,-0.59322 0.35337,-1.33957 0.80489,-1.69999 0.49076,-0.39174 0.80489,-1.10676 0.80489,-1.8321 0,-2.29508 2.7423,-2.26386 7.53593,0.0858 l 3.53122,1.73085 3.42076,-0.22421 c 4.55509,-0.29856 5.90253,-0.71204 7.72409,-2.37027 l 1.53207,-1.3947 v -4.98881 c 0,-5.4307 0.0291,-5.50814 2.67362,-7.12102 0.96766,-0.59017 2.02261,-0.68166 7.86009,-0.68166 5.45785,0 6.85693,-0.10722 7.34345,-0.56277 0.33057,-0.30953 1.15966,-1.82734 1.84244,-3.3729 2.05018,-4.6409 1.87071,-4.50593 5.99171,-4.50593 2.99473,0 3.72702,-0.12362 4.62264,-0.78041 0.58533,-0.42922 0.98032,-0.90697 0.87775,-1.06166 -0.10262,-0.15469 0.70274,-0.91343 1.78951,-1.68609 1.08677,-0.77264 2.09329,-1.74941 2.23667,-2.1706 0.22851,-0.67118 0.51853,-0.74585 2.34782,-0.60443 1.29476,0.10011 2.53937,0.4727 3.27833,0.98142 0.87322,0.60117 1.81605,0.83333 3.53217,0.86977 1.28753,0.0273 2.51528,-0.11283 2.72833,-0.31144 0.21303,-0.19862 0.54361,-1.61395 0.73458,-3.14518 0.19503,-1.56372 0.92306,-4.14081 1.66091,-5.87932 l 1.31363,-3.09524 2.65352,0.003 c 1.45944,8.8e-4 3.87595,0.11029 5.37,0.24184 l 2.71649,0.23918 v 29.96031 29.96031 h -60.56755 c -33.31215,0 -60.56754,-0.0958 -60.56754,-0.21279 z"
       id="path10502" />
    <path
       style="opacity:1;mix-blend-mode:normal;fill:url(#radialGradient21572);fill-opacity:1;stroke:none;stroke-width:0.237989px;stroke-linecap:butt;stroke-linejoin:miter;stroke-opacity:1;filter:url(#filter21574)"
       d="m -3.2093125,204.57615 9.327259,5.7811 c 0,0 0.620374,8.13454 4.0938585,0.0262 3.473483,-8.10838 -0.2298295,-8.43317 9.837105,-8.66999 10.066934,-0.23682 9.901557,2.47232 18.047857,-2.89602 8.1463,-5.36834 11.753075,-9.56114 22.228927,-10.39761 10.475855,-0.83647 14.606463,-1.41234 18.107647,2.22361 3.50118,3.63596 8.33938,3.66686 13.82537,-0.81507 5.486,-4.48194 8.591979,-6.57002 10.581449,-8.66523 1.98948,-2.09521 6.95163,-10.19409 9.96574,-10.77709 3.0141,-0.58302 9.76827,-1.44326 12.46532,-2.93169 2.69705,-1.48843 10.88011,-7.4588 10.88011,-7.4588 0,0 4.03406,-5.09347 9.2628,-5.3612 5.22875,-0.26773 10.77452,0.36997 12.31832,-0.52357 1.5438,-0.89352 2.3249,-1.49081 2.3249,-1.49081 L 0.67720055,153.10741 -1.1416775,207.29959"
       id="path15514-1"
       sodipodi:nodetypes="ccssssssssscssccc"
       transform="matrix(1.0939661,0,0,0.74721023,0.26049883,39.623829)" />
    <g
       id="g28892"
       transform="matrix(0.67104883,-0.07525025,0.08736782,0.77910802,81.765055,71.558034)" />
    <path
       style="opacity:1;fill:#2d0b55;fill-opacity:1;stroke:#ffffff;stroke-width:0.133972;stroke-opacity:1"
       d="m 802.62435,541.36922 c 0,-0.22438 2.48195,-3.27185 2.66424,-3.27129 0.11888,3.7e-4 0.39702,0.15113 0.61807,0.33503 l 0.40191,0.33436 -0.6843,0.63627 c -0.63102,0.58672 -2.99992,2.13889 -2.99992,1.96563 z"
       id="path29818"
       transform="scale(0.26458333)" />
    <path
       style="opacity:1;fill:#2d0b55;fill-opacity:1;stroke:#ffffff;stroke-width:0.133972;stroke-opacity:1"
       d=""
       id="path30635"
       transform="scale(0.26458333)" />
    <path
       style="opacity:1;fill:#2d0b55;fill-opacity:1;stroke:#ffffff;stroke-width:0.00592077;stroke-opacity:1"
       d="m 802.60174,541.43444 c -0.0291,-0.0156 -0.0441,-0.0472 -0.0388,-0.082 0.018,-0.11989 0.40313,-0.65542 1.06587,-1.48201 0.60891,-0.75946 1.16947,-1.4117 1.44558,-1.68202 0.0945,-0.0925 0.14901,-0.1364 0.18362,-0.14783 0.0833,-0.0275 0.30692,0.0675 0.53484,0.2271 0.0892,0.0625 0.11002,0.0792 0.38156,0.30548 l 0.23058,0.1922 -0.0331,0.03 c -0.0182,0.0165 -0.1939,0.1796 -0.39044,0.36242 -0.35817,0.33315 -0.42595,0.39383 -0.56229,0.50333 -0.65226,0.52384 -2.04004,1.44781 -2.56005,1.70446 -0.16333,0.0806 -0.21144,0.0935 -0.25734,0.0689 z m 0.37333,-0.27344 c 0.71126,-0.39976 2.05775,-1.32334 2.52467,-1.73171 0.0941,-0.0823 0.70754,-0.65401 0.70754,-0.65942 0,-0.005 -0.337,-0.28664 -0.4112,-0.3436 -0.12694,-0.0975 -0.33303,-0.21598 -0.43116,-0.24797 -0.0681,-0.0222 -0.0705,-0.0214 -0.14675,0.0476 -0.38905,0.35222 -1.79547,2.05656 -2.34082,2.83666 -0.0772,0.11038 -0.13964,0.20741 -0.13964,0.21685 0,0.008 0.11583,-0.0501 0.23736,-0.11843 z"
       id="path30674"
       transform="scale(0.26458333)" />
    <path
       style="opacity:1;fill:#2d0b55;fill-opacity:1;stroke:#ffffff;stroke-width:0.00592077;stroke-opacity:1"
       d="m 802.05757,541.93853 c 0.004,-0.0109 0.56356,-0.742 0.56583,-0.73973 0.001,10e-4 -0.007,0.0184 -0.0187,0.0381 -0.0448,0.0765 -0.0595,0.13268 -0.0429,0.16456 0.0161,0.031 0.0357,0.0443 0.0705,0.0479 0.0383,0.004 0.0764,-0.006 0.15383,-0.04 0.0295,-0.013 0.0548,-0.0225 0.0562,-0.0212 0.001,10e-4 -0.0237,0.0191 -0.0555,0.0394 -0.15612,0.0996 -0.42932,0.29094 -0.60838,0.426 -0.11619,0.0877 -0.12414,0.0932 -0.12085,0.085 z"
       id="path30713"
       transform="scale(0.26458333)" />
    <path
       style="opacity:1;fill:#2d0b55;fill-opacity:1;stroke:#ffffff;stroke-width:0.00592077;stroke-opacity:1"
       d="m 803.95146,539.45379 c 0,-0.003 0.14844,-0.19966 0.32986,-0.43793 0.18142,-0.23827 0.42405,-0.5571 0.53917,-0.70853 0.11512,-0.15142 0.21591,-0.28304 0.22398,-0.29249 l 0.0147,-0.0172 0.0684,0.004 c 0.0376,0.002 0.0928,0.008 0.1226,0.0139 0.0503,0.01 0.0525,0.0105 0.0305,0.0138 -0.013,0.002 -0.0374,0.011 -0.0541,0.0201 -0.11696,0.0639 -0.5427,0.52902 -1.10882,1.21145 -0.16187,0.19512 -0.16629,0.20025 -0.16629,0.19321 z"
       id="path30752"
       transform="scale(0.26458333)" />
    <path
       style="opacity:1;fill:#2d0b55;fill-opacity:1;stroke:#ffffff;stroke-width:0.00592077;stroke-opacity:1"
       d=""
       id="path30828"
       transform="scale(0.26458333)" />
    <path
       style="opacity:1;fill:#2d0b55;fill-opacity:1;stroke:none;stroke-width:0.00592077;stroke-opacity:1"
       d="m 804.27444,540.49884 c 0.003,-0.003 0.0616,-0.0432 0.12996,-0.0898 0.48836,-0.3327 0.93842,-0.66734 1.18564,-0.88157 0.0448,-0.0388 0.22129,-0.20091 0.39225,-0.36024 0.17096,-0.15934 0.31178,-0.28727 0.31294,-0.2843 0.001,0.003 -0.006,0.0223 -0.0164,0.043 -0.04,0.0812 -0.33863,0.37435 -0.62216,0.61068 -0.27701,0.2309 -0.6092,0.47223 -0.99469,0.72263 -0.26805,0.17411 -0.41677,0.26605 -0.38752,0.23955 z"
       id="path30867"
       transform="scale(0.26458333)" />
    <path
       style="opacity:1;fill:#2d0b55;fill-opacity:1;stroke:none;stroke-width:0.00592077;stroke-opacity:1"
       d="m 806.07406,538.48114 c -0.19973,-0.16797 -0.32105,-0.25686 -0.44288,-0.32451 -0.0222,-0.0123 -0.039,-0.0236 -0.0375,-0.0251 0.004,-0.004 0.0511,0.0178 0.13034,0.0613 0.14877,0.0817 0.26551,0.16532 0.36752,0.26333 0.0614,0.059 0.12843,0.13591 0.11761,0.13497 -0.003,-2.3e-4 -0.0634,-0.0497 -0.13509,-0.10997 z"
       id="path31017"
       transform="scale(0.26458333)" />
    <path
       style="opacity:1;fill:#2d0b55;fill-opacity:1;stroke:none;stroke-width:0.00592077;stroke-opacity:1"
       d=""
       id="path31056"
       transform="scale(0.26458333)" />
    <path
       style="opacity:1;fill:#2d0b55;fill-opacity:1;stroke:none;stroke-width:0.00390625;stroke-opacity:1"
       d=""
       id="path31095"
       transform="scale(0.26458333)" />
    <path
       style="opacity:1;fill:#2d0b55;fill-opacity:1;stroke:none;stroke-width:0.00390625;stroke-opacity:1"
       d="m 802.7623,541.24512 c 0.083,-0.13578 0.32673,-0.47093 0.5816,-0.79981 0.67526,-0.87137 1.50779,-1.85756 1.83727,-2.17637 0.0707,-0.0684 0.10237,-0.0937 0.12183,-0.0974 0.0488,-0.009 0.27648,0.10608 0.43919,0.2223 0.0594,0.0424 0.2849,0.22658 0.42098,0.34379 l 0.0362,0.0312 -0.009,0.01 c -0.0337,0.0368 -0.63415,0.59453 -0.71199,0.6614 -0.54242,0.46596 -2.05294,1.48792 -2.65252,1.79459 -0.0398,0.0203 -0.074,0.037 -0.0761,0.037 -0.002,0 0.003,-0.0119 0.0123,-0.0264 z"
       id="path31134"
       transform="scale(0.26458333)" />
    <path
       style="opacity:1;fill:#2d0b55;fill-opacity:1;stroke:none;stroke-width:0.00390625;stroke-opacity:1"
       d=""
       id="path31173"
       transform="scale(0.26458333)" />
    <path
       style="opacity:1;fill:#2d0b55;fill-opacity:1;stroke:none;stroke-width:0.00390625;stroke-opacity:1"
       d="m 802.61133,541.43321 c -0.0266,-0.0146 -0.0447,-0.0413 -0.0448,-0.0664 -7e-4,-0.0994 0.34559,-0.5882 0.9877,-1.39416 0.48274,-0.60593 0.98214,-1.19988 1.29898,-1.54493 0.21928,-0.23879 0.35175,-0.36314 0.40627,-0.38136 0.0986,-0.033 0.3958,0.11166 0.65458,0.31853 0.0951,0.076 0.4841,0.40215 0.48107,0.40332 -0.002,7.2e-4 -0.13418,0.12271 -0.29398,0.27109 -0.54903,0.50977 -0.57276,0.53079 -0.78861,0.69868 -0.63768,0.49598 -1.78483,1.26132 -2.35144,1.5688 -0.0759,0.0412 -0.19504,0.0983 -0.24036,0.11529 -0.0467,0.0175 -0.0898,0.0219 -0.10937,0.0111 z m 0.17544,-0.16713 c 0.2897,-0.13538 1.07876,-0.63466 1.77731,-1.1246 0.46265,-0.32448 0.7956,-0.57802 0.98843,-0.75268 0.20399,-0.18476 0.65597,-0.60941 0.65759,-0.61782 10e-4,-0.007 -0.0369,-0.0403 -0.20424,-0.17975 -0.16535,-0.13785 -0.22709,-0.18633 -0.29364,-0.23054 -0.17682,-0.11746 -0.34079,-0.19858 -0.40141,-0.19858 -0.0266,0 -0.0411,0.009 -0.10573,0.069 -0.4253,0.39187 -1.93146,2.22835 -2.391,2.91537 -0.0995,0.14882 -0.10069,0.15389 -0.0273,0.1196 z"
       id="path31212"
       transform="scale(0.26458333)" />
    <path
       style="opacity:1;fill:#2d0b55;fill-opacity:1;stroke:none;stroke-width:0.00390625;stroke-opacity:1"
       d="m 802.61133,541.43321 c -0.0266,-0.0146 -0.0447,-0.0413 -0.0448,-0.0664 -7.1e-4,-0.10092 0.37109,-0.62371 1.02485,-1.44104 0.60544,-0.75692 1.15493,-1.39937 1.45358,-1.6995 0.11807,-0.11865 0.17537,-0.16656 0.21562,-0.18027 0.0858,-0.0292 0.34224,0.0867 0.5793,0.26184 0.0564,0.0416 0.0927,0.0712 0.33505,0.27294 0.1616,0.13449 0.22227,0.18715 0.2183,0.18945 -0.003,0.002 -0.0888,0.0805 -0.19055,0.17505 -0.54578,0.50683 -0.60679,0.56253 -0.71276,0.6508 -0.53892,0.4489 -1.86935,1.35043 -2.50628,1.69833 -0.0928,0.0507 -0.21247,0.10879 -0.2629,0.12766 -0.0467,0.0175 -0.0898,0.0219 -0.10937,0.0111 z m 0.17544,-0.16713 c 0.4021,-0.1879 1.68384,-1.02985 2.38706,-1.568 0.23047,-0.17638 0.29596,-0.23209 0.55847,-0.47512 0.30989,-0.2869 0.47864,-0.44677 0.47864,-0.45347 0,-0.006 -0.15713,-0.14043 -0.33008,-0.28143 -0.0796,-0.0649 -0.11366,-0.0905 -0.17188,-0.12931 -0.17166,-0.11438 -0.33895,-0.19664 -0.39992,-0.19664 -0.0248,0 -0.0411,0.0111 -0.10893,0.0741 -0.42972,0.39915 -1.90191,2.1934 -2.37668,2.89661 -0.0605,0.0896 -0.0891,0.13597 -0.0891,0.14447 0,0.01 0.0138,0.007 0.0524,-0.0112 z"
       id="path31251"
       transform="scale(0.26458333)" />
    <path
       style="opacity:1;fill:#2d0b55;fill-opacity:1;stroke:none;stroke-width:0.00390625;stroke-opacity:1"
       d="m 802.7623,541.24512 c 0.009,-0.0145 0.0374,-0.058 0.0633,-0.0967 0.45153,-0.67233 1.87849,-2.41709 2.35294,-2.87696 0.0732,-0.0709 0.10476,-0.0962 0.12483,-0.1 0.054,-0.0101 0.31158,0.12544 0.47979,0.25257 0.0446,0.0337 0.21522,0.17404 0.34306,0.28217 l 0.0735,0.0622 -0.009,0.01 c -0.0399,0.0431 -0.63005,0.59126 -0.71416,0.66332 -0.4958,0.42477 -1.79531,1.31477 -2.49804,1.71084 -0.0837,0.0472 -0.22174,0.1191 -0.22856,0.1191 -0.002,0 0.003,-0.0119 0.0123,-0.0264 z"
       id="path31290"
       transform="scale(0.26458333)" />
    <g
       id="g31516"
       transform="translate(0.99276948,0.81374564)"
       style="paint-order:markers fill stroke">
      <path
         style="fill:url(#linearGradient27219);fill-opacity:1;stroke:none;stroke-width:0.279312px;stroke-linecap:butt;stroke-linejoin:miter;stroke-opacity:1;paint-order:markers fill stroke"
         d="m 179.41646,110.22706 c -0.0175,-0.06 -0.8102,-2.29051 -0.45258,-2.61303 0.39725,-0.35826 1.09214,-0.27294 1.65149,-0.35645 1.78436,-0.26645 3.58168,-0.46783 5.3742,-0.69261 2.52383,-0.31649 8.64709,-0.85543 11.17906,-0.26302 0.19007,0.0444 0.22964,0.33229 0.41972,0.37677 0.53759,0.12578 1.15968,-0.21084 1.65696,0.0162 1.86868,0.85334 3.83383,2.04791 5.83773,2.66584 1.92387,0.59325 6.74517,0.0661 8.69908,0.0853 2.07586,0.0204 3.63893,0.0761 5.37419,-0.6926 0.57036,-0.25267 6.05576,-0.56033 7.03117,-0.67636 1.73184,-0.20601 2.13986,-0.60784 4.13693,-0.33208 1.30107,0.17965 2.05953,1.59615 3.34133,1.89604 3.19603,0.74777 8.16888,-0.22804 11.59877,0.11375 1.94604,0.19392 3.44147,1.3282 5.40706,1.54365 2.29534,0.25162 6.08187,0.3433 8.28484,0.0812 1.28354,-0.15267 4.18905,-1.78912 5.78296,-1.06125 3.81671,1.74294 -3.52014,-0.34343 2.50736,1.51521 1.82645,0.56321 3.40984,0.70495 5.40157,1.17094 2.09747,0.49075 4.09307,1.21025 6.23554,1.55179 1.13103,0.18029 4.96671,0.23193 5.39062,0.42552 0.35162,0.16057 0.5239,0.53964 0.83942,0.75354 0.84525,0.57298 1.45781,0.38783 2.4964,0.76979 0.67185,0.24708 1.02807,1.2099 1.6789,1.50709 0.96004,0.43841 2.39275,0.8615 3.33035,1.15063 3.15065,0.97153 5.59018,-4.41996 9.075,-2.51959 1.81007,0.98708 1.60516,2.37052 2.54022,3.75146 0.20535,0.30329 0.6185,0.45905 0.83943,0.75355 0.51367,0.6847 -0.37387,2.24544 0.0438,2.98168 0.19816,0.34927 0.23319,1.22437 0.43615,1.4949 0.22092,0.2945 0.61851,0.45904 0.83943,0.75354 0.21902,0.29193 0.16172,2.26343 0.0383,2.60896 -0.43671,1.22299 -0.68611,1.31807 -1.61862,2.59272 -0.30953,0.42311 0.11348,1.26269 -0.39234,1.48678 -0.24538,0.10869 -0.56765,-0.0842 -0.82848,-0.008 -2.547,0.74217 -4.50944,2.53939 -5.31396,4.79241 -0.25974,0.72733 0.2329,12.12424 0.6114,13.4216 0.15766,0.54048 0.64735,0.96996 0.85038,1.49896 0.23913,0.62316 0.24408,3.64448 0.0602,4.09981 -0.23387,0.57925 -0.87343,0.94947 -1.22081,1.47865 -0.28647,0.43637 -0.14447,1.03111 -0.39235,1.48677 -0.98418,1.80923 -3.96852,3.25855 -5.73915,4.04292 -0.85941,0.38073 -4.39599,0.20289 -5.37968,0.3199 -2.07434,0.24676 -4.0315,1.23485 -6.1917,1.42991 -1.581,0.14275 -12.94967,0.29959 -15.32697,-0.15032 -0.38398,-0.0727 -0.48781,-0.59297 -0.83943,-0.75354 -0.66948,-0.30573 -1.43167,-0.42747 -2.08217,-0.76574 -0.94342,-0.49059 -1.59075,-1.36468 -2.51283,-1.88792 -1.45526,-0.82579 -3.14972,-1.62344 -4.58952,-2.28094 -0.98695,-0.45069 -3.74653,-0.0367 -4.97091,-0.0488 -4.60976,-0.0452 -10.49618,0.46358 -14.91271,-0.14625 -3.247,-0.44835 -3.88148,-2.34561 -6.2684,-3.78803 -0.23179,-0.14009 -0.59667,0.13195 -0.82848,-0.008 -0.25917,-0.15661 -0.23667,-0.52542 -0.42519,-0.74948 -0.50783,-0.60356 -1.7796,-1.18628 -2.09859,-1.88386 -0.86973,-1.902 -0.97345,-8.22971 -1.36868,-8.58451 -0.66363,-0.59573 -1.63028,-0.84137 -2.50188,-1.1425 -2.1556,-0.74475 -8.68555,-1.43876 -10.36701,-0.84698 -0.90175,0.31737 -1.25682,1.34042 -2.04383,1.84323 -0.45495,0.29067 -2.17932,0.99082 -2.88326,1.08969 -0.6825,0.0959 -6.34002,0.10896 -6.62788,-0.065 -0.99663,-0.60226 -2.29296,-3.23919 -2.95993,-4.12823 -1.31782,-1.75664 -1.0322,0.35888 -2.51831,-2.26063 -0.12677,-0.22346 0.0799,-0.50885 -0.011,-0.74542 -0.1284,-0.33457 -0.66015,-0.43754 -0.83943,-0.75355 -0.12362,-0.2179 -0.56244,-5.48047 -0.50186,-5.96741 0.24923,-2.00336 1.21711,-5.2218 0.31019,-7.07742 -0.69997,-1.43221 -4.23033,-4.15307 -5.87057,-4.9021 -0.12432,-0.0568 -0.27617,-0.003 -0.41425,-0.004 -0.27798,-0.12694 -0.58451,-0.21172 -0.83396,-0.38083 -0.31554,-0.2139 -0.4878,-0.59297 -0.83943,-0.75355 -0.4775,-0.21805 -3.90117,-1.06759 -4.16433,-1.53146 -0.47376,-0.83509 -0.0612,-0.87612 -0.44163,-1.8676 -0.12839,-0.33458 -0.71103,-0.41898 -0.83943,-0.75355 -0.29748,-0.77513 0.30795,-1.85168 -0.0383,-2.60897 -0.23691,-0.51811 -1.11924,-1.00472 -0.85038,-1.49896 0.43352,-0.79693 1.70704,-0.90043 2.46354,-1.46646 0.14837,-0.11101 -0.22444,-0.37486 -0.41972,-0.37677"
         id="path22961"
         transform="matrix(0.67104882,-0.07525025,0.08736782,0.77910801,81.765055,71.558034)" />
      <rect
         style="opacity:1;fill:#2d0b55;fill-opacity:1;stroke:none;stroke-width:0.264583;stroke-opacity:1;paint-order:markers fill stroke"
         id="rect31511"
         width="1.6194862"
         height="1.2979276"
         x="211.80484"
         y="142.19324" />
    </g>
    <path
       style="opacity:1;fill:#363097;fill-opacity:1;stroke:none;stroke-width:0.395134px;stroke-linecap:butt;stroke-linejoin:miter;stroke-opacity:1"
       d="m 179.20714,137.10075 c 8.16619,-6.12434 7.04824,-8.25046 10.00882,-6.60909 2.96058,1.64138 1.6296,4.23887 7.22849,1.21011 5.5989,-3.02874 7.09556,-9.30015 19.7099,-6.39517 12.61436,2.90497 12.54336,4.47949 16.32328,1.41064 3.77994,-3.06886 -2.25957,-3.72739 8.84355,-7.68552 11.10309,-3.95812 9.47348,-8.19699 15.39466,-4.91423 5.92116,3.28276 11.04666,10.7509 11.04666,10.7509 l 2.93692,2.16622 c 0,0 -2.80401,8.34405 4.8979,-0.94273 7.70188,-9.28679 7.04822,-8.25047 9.59185,-10.82122 2.54362,-2.57075 -1.02328,-4.22549 3.17362,-3.08222 4.19691,1.14327 10.65334,6.01393 10.65334,6.01393 0,0 -1.77159,-1.0898 1.07062,3.1758 2.84223,4.26561 -1.40201,4.17202 2.84223,4.26561 4.24422,0.0936 1.18897,0.55158 4.24422,0.0936 3.05528,-0.45799 0.69192,11.57333 0.69192,11.57333 z"
       id="path31551" />
    <path
       style="fill:#33277d;fill-opacity:1;stroke:#32267a;stroke-width:0.308185px;stroke-linecap:butt;stroke-linejoin:miter;stroke-opacity:1"
       d="m 204.40171,135.19316 c 0,0 -2.32974,3.43861 8.74254,-2.58303 11.0723,-6.02162 13.98947,-1.72675 13.98947,-1.72675 l 9.32572,-2.15371 c 0,0 2.5e-4,0.42966 5.82786,-2.58133 5.82762,-3.01097 -6.99498,0.43373 8.15812,-5.16062 15.15308,-5.59434 15.15308,-5.59434 15.15308,-5.59434 0,0 2.9102,-7.73551 7.57367,-7.73822 4.6635,-0.003 15.1511,-9.031598 15.1511,-9.031598 l 7.00145,10.737338 v 0 l 12.82509,0.85187 -2.40137,32.38964 -104.2574,-0.53305 z"
       id="path31588" />
    <g
       id="g2082"
       transform="translate(0.99276948,0.81374564)"
       style="paint-order:markers fill stroke">
      <path
         style="fill:url(#linearGradient27219);fill-opacity:1;stroke:none;stroke-width:0.279312px;stroke-linecap:butt;stroke-linejoin:miter;stroke-opacity:1;paint-order:markers fill stroke"
         d="m 179.41646,110.22706 c -0.0175,-0.06 -0.8102,-2.29051 -0.45258,-2.61303 0.39725,-0.35826 1.09214,-0.27294 1.65149,-0.35645 1.78436,-0.26645 3.58168,-0.46783 5.3742,-0.69261 2.52383,-0.31649 8.64709,-0.85543 11.17906,-0.26302 0.19007,0.0444 0.22964,0.33229 0.41972,0.37677 0.53759,0.12578 1.15968,-0.21084 1.65696,0.0162 1.86868,0.85334 3.83383,2.04791 5.83773,2.66584 1.92387,0.59325 6.74517,0.0661 8.69908,0.0853 2.07586,0.0204 3.63893,0.0761 5.37419,-0.6926 0.57036,-0.25267 6.05576,-0.56033 7.03117,-0.67636 1.73184,-0.20601 2.13986,-0.60784 4.13693,-0.33208 1.30107,0.17965 2.05953,1.59615 3.34133,1.89604 3.19603,0.74777 8.16888,-0.22804 11.59877,0.11375 1.94604,0.19392 3.44147,1.3282 5.40706,1.54365 2.29534,0.25162 6.08187,0.3433 8.28484,0.0812 1.28354,-0.15267 4.18905,-1.78912 5.78296,-1.06125 3.81671,1.74294 -3.52014,-0.34343 2.50736,1.51521 1.82645,0.56321 3.40984,0.70495 5.40157,1.17094 2.09747,0.49075 4.09307,1.21025 6.23554,1.55179 1.13103,0.18029 4.96671,0.23193 5.39062,0.42552 0.35162,0.16057 0.5239,0.53964 0.83942,0.75354 0.84525,0.57298 1.45781,0.38783 2.4964,0.76979 0.67185,0.24708 1.02807,1.2099 1.6789,1.50709 0.96004,0.43841 2.39275,0.8615 3.33035,1.15063 3.15065,0.97153 5.59018,-4.41996 9.075,-2.51959 1.81007,0.98708 1.60516,2.37052 2.54022,3.75146 0.20535,0.30329 0.6185,0.45905 0.83943,0.75355 0.51367,0.6847 -0.37387,2.24544 0.0438,2.98168 0.19816,0.34927 0.23319,1.22437 0.43615,1.4949 0.22092,0.2945 0.61851,0.45904 0.83943,0.75354 0.21902,0.29193 0.16172,2.26343 0.0383,2.60896 -0.43671,1.22299 -0.68611,1.31807 -1.61862,2.59272 -0.30953,0.42311 0.11348,1.26269 -0.39234,1.48678 -0.24538,0.10869 -0.56765,-0.0842 -0.82848,-0.008 -2.547,0.74217 -4.50944,2.53939 -5.31396,4.79241 -0.25974,0.72733 0.2329,12.12424 0.6114,13.4216 0.15766,0.54048 0.64735,0.96996 0.85038,1.49896 0.23913,0.62316 0.24408,3.64448 0.0602,4.09981 -0.23387,0.57925 -0.87343,0.94947 -1.22081,1.47865 -0.28647,0.43637 -0.14447,1.03111 -0.39235,1.48677 -0.98418,1.80923 -3.96852,3.25855 -5.73915,4.04292 -0.85941,0.38073 -4.39599,0.20289 -5.37968,0.3199 -2.07434,0.24676 -4.0315,1.23485 -6.1917,1.42991 -1.581,0.14275 -12.94967,0.29959 -15.32697,-0.15032 -0.38398,-0.0727 -0.48781,-0.59297 -0.83943,-0.75354 -0.66948,-0.30573 -1.43167,-0.42747 -2.08217,-0.76574 -0.94342,-0.49059 -1.59075,-1.36468 -2.51283,-1.88792 -1.45526,-0.82579 -3.14972,-1.62344 -4.58952,-2.28094 -0.98695,-0.45069 -3.74653,-0.0367 -4.97091,-0.0488 -4.60976,-0.0452 -10.49618,0.46358 -14.91271,-0.14625 -3.247,-0.44835 -3.88148,-2.34561 -6.2684,-3.78803 -0.23179,-0.14009 -0.59667,0.13195 -0.82848,-0.008 -0.25917,-0.15661 -0.23667,-0.52542 -0.42519,-0.74948 -0.50783,-0.60356 -1.7796,-1.18628 -2.09859,-1.88386 -0.86973,-1.902 -0.97345,-8.22971 -1.36868,-8.58451 -0.66363,-0.59573 -1.63028,-0.84137 -2.50188,-1.1425 -2.1556,-0.74475 -8.68555,-1.43876 -10.36701,-0.84698 -0.90175,0.31737 -1.25682,1.34042 -2.04383,1.84323 -0.45495,0.29067 -2.17932,0.99082 -2.88326,1.08969 -0.6825,0.0959 -6.34002,0.10896 -6.62788,-0.065 -0.99663,-0.60226 -2.29296,-3.23919 -2.95993,-4.12823 -1.31782,-1.75664 -1.0322,0.35888 -2.51831,-2.26063 -0.12677,-0.22346 0.0799,-0.50885 -0.011,-0.74542 -0.1284,-0.33457 -0.66015,-0.43754 -0.83943,-0.75355 -0.12362,-0.2179 -0.56244,-5.48047 -0.50186,-5.96741 0.24923,-2.00336 1.21711,-5.2218 0.31019,-7.07742 -0.69997,-1.43221 -4.23033,-4.15307 -5.87057,-4.9021 -0.12432,-0.0568 -0.27617,-0.003 -0.41425,-0.004 -0.27798,-0.12694 -0.58451,-0.21172 -0.83396,-0.38083 -0.31554,-0.2139 -0.4878,-0.59297 -0.83943,-0.75355 -0.4775,-0.21805 -3.90117,-1.06759 -4.16433,-1.53146 -0.47376,-0.83509 -0.0612,-0.87612 -0.44163,-1.8676 -0.12839,-0.33458 -0.71103,-0.41898 -0.83943,-0.75355 -0.29748,-0.77513 0.30795,-1.85168 -0.0383,-2.60897 -0.23691,-0.51811 -1.11924,-1.00472 -0.85038,-1.49896 0.43352,-0.79693 1.70704,-0.90043 2.46354,-1.46646 0.14837,-0.11101 -0.22444,-0.37486 -0.41972,-0.37677"
         id="path2078"
         transform="matrix(0.67104882,-0.07525025,0.08736782,0.77910801,81.765055,71.558034)" />
      <rect
         style="opacity:1;fill:#2d0b55;fill-opacity:1;stroke:none;stroke-width:0.264583;stroke-opacity:1;paint-order:markers fill stroke"
         id="rect2080"
         width="1.6194862"
         height="1.2979276"
         x="211.80484"
         y="142.19324" />
    </g>
    <path
       style="fill:#223172;fill-opacity:1;stroke:none;stroke-width:0.264583px;stroke-linecap:butt;stroke-linejoin:miter;stroke-opacity:1"
       d="m -18.04558,43.484217 h 9.7472483 L 4.6979974,42.906403 19.725003,42.521194 30.690657,42.713799 51.403558,43.099008 57.495586,41.94338 68.055103,42.906403 93.23549,42.135984 H 80.645301 l -7.716574,-1.155627 -10.965651,-0.77042 c 0,0 -21.931307,0.38521 -24.36812,0.38521 -2.436811,0 -10.153383,-0.192605 -10.153383,-0.192605 L 11.602297,38.861704 -11.14128,38.6691 v 5.585536"
       id="path2152" />
    <path
       style="fill:#223172;fill-opacity:1;stroke:none;stroke-width:0.264584px;stroke-linecap:butt;stroke-linejoin:miter;stroke-opacity:1"
       d="m 317.83299,30.809345 h -17.24537 l -22.99383,-0.577814 -26.58661,-0.385209 -19.40105,0.192605 -36.64641,0.385209 -10.77835,-1.155628 -18.68249,0.963023 -44.55053,-0.770419 h 22.27526 l 13.65259,-1.155627 19.40103,-0.77042 c 0,0 38.80209,0.38521 43.11343,0.38521 4.31135,0 17.96393,-0.192605 17.96393,-0.192605 l 28.02373,-1.540838 40.2392,-0.192604 v 5.585536"
       id="path2152-9" />
    <path
       style="fill:#223172;fill-opacity:1;stroke:none;stroke-width:0.264584px;stroke-linecap:butt;stroke-linejoin:miter;stroke-opacity:1"
       d="m 303.85965,15.866521 h -5.91147 l -7.88197,-0.626101 -9.11352,-0.4174 -6.65041,0.208702 -12.56188,0.417399 -3.69467,-1.252201 -6.40409,1.0435 -15.2713,-0.8348 h 7.63565 l 4.67991,-1.252199 6.65041,-0.834802 c 0,0 13.30081,0.417401 14.77868,0.417401 1.47787,0 6.15778,-0.208701 6.15778,-0.208701 l 9.60615,-1.669601 13.79343,-0.208699 v 6.052304"
       id="path2152-9-3" />
    <path
       style="opacity:1;fill:#fffff8;fill-opacity:1;fill-rule:evenodd;stroke:none;stroke-width:4.29972;paint-order:markers fill stroke"
       id="path3752"
       sodipodi:type="arc"
       sodipodi:cx="-26.50765"
       sodipodi:cy="18.63682"
       sodipodi:rx="0.56072623"
       sodipodi:ry="0.59124118"
       sodipodi:start="0"
       sodipodi:end="6.2115395"
       sodipodi:open="true"
       sodipodi:arc-type="arc"
       d="m -25.946924,18.63682 a 0.56072623,0.59124118 0 0 1 -0.550683,0.591146 0.56072623,0.59124118 0 0 1 -0.57041,-0.569971 0.56072623,0.59124118 0 0 1 0.530251,-0.611563 0.56072623,0.59124118 0 0 1 0.589403,0.548064"
       transform="scale(-1,1)" />
    <path
       style="opacity:1;fill:#fffff8;fill-opacity:1;fill-rule:evenodd;stroke:none;stroke-width:4.29972;paint-order:markers fill stroke"
       id="path3752-2"
       sodipodi:type="arc"
       sodipodi:cx="-236.97424"
       sodipodi:cy="23.393612"
       sodipodi:rx="0.56072623"
       sodipodi:ry="0.59124118"
       sodipodi:start="0"
       sodipodi:end="6.2115395"
       sodipodi:open="true"
       sodipodi:arc-type="arc"
       transform="scale(-1,1)"
       d="m -236.41352,23.393612 a 0.56072623,0.59124118 0 0 1 -0.55068,0.591146 0.56072623,0.59124118 0 0 1 -0.57041,-0.569971 0.56072623,0.59124118 0 0 1 0.53025,-0.611563 0.56072623,0.59124118 0 0 1 0.5894,0.548064" />
    <path
       style="opacity:1;fill:#fffff8;fill-opacity:1;fill-rule:evenodd;stroke:none;stroke-width:8.09753;paint-order:markers fill stroke"
       id="path3752-2-8"
       sodipodi:type="arc"
       sodipodi:cx="-282.60486"
       sodipodi:cy="9.7593718"
       sodipodi:rx="0.25723389"
       sodipodi:ry="0.36338067"
       sodipodi:start="0"
       sodipodi:end="6.2115395"
       sodipodi:open="true"
       sodipodi:arc-type="arc"
       transform="scale(-1,1)"
       d="m -282.34762,9.7593718 a 0.25723389,0.36338067 0 0 1 -0.25263,0.3633222 0.25723389,0.36338067 0 0 1 -0.26168,-0.3503077 0.25723389,0.36338067 0 0 1 0.24326,-0.3758707 0.25723389,0.36338067 0 0 1 0.27039,0.3368437" />
    <path
       style="opacity:1;fill:#fffff8;fill-opacity:1;fill-rule:evenodd;stroke:none;stroke-width:7.11839;paint-order:markers fill stroke"
       id="path3752-2-9"
       sodipodi:type="arc"
       sodipodi:cx="-272.90018"
       sodipodi:cy="33.03968"
       sodipodi:rx="0.33286637"
       sodipodi:ry="0.36338133"
       sodipodi:start="0"
       sodipodi:end="6.2115395"
       sodipodi:open="true"
       sodipodi:arc-type="arc"
       transform="scale(-1,1)"
       d="m -272.56731,33.03968 a 0.33286637,0.36338133 0 0 1 -0.32691,0.363324 0.33286637,0.36338133 0 0 1 -0.33861,-0.350309 0.33286637,0.36338133 0 0 1 0.31478,-0.375871 0.33286637,0.36338133 0 0 1 0.34989,0.336844" />
    <path
       style="opacity:1;fill:#fffff8;fill-opacity:1;fill-rule:evenodd;stroke:none;stroke-width:32.6586;paint-order:markers fill stroke"
       id="path3752-2-02"
       sodipodi:type="arc"
       sodipodi:cx="101.47359"
       sodipodi:cy="-6.9877019"
       sodipodi:rx="0.35071319"
       sodipodi:ry="0.016385097"
       sodipodi:start="0"
       sodipodi:end="6.2115395"
       sodipodi:open="true"
       sodipodi:arc-type="arc"
       transform="scale(1,-1)"
       d="m 101.8243,-6.9877019 a 0.35071319,0.0163851 0 0 1 -0.34443,0.016383 0.35071319,0.0163851 0 0 1 -0.35677,-0.015796 0.35071319,0.0163851 0 0 1 0.33165,-0.016948 0.35071319,0.0163851 0 0 1 0.36865,0.015189" />
    <path
       style="opacity:1;fill:#fffff8;fill-opacity:1;fill-rule:evenodd;stroke:none;stroke-width:4.29972;paint-order:markers fill stroke"
       id="path3752-2-3"
       sodipodi:type="arc"
       sodipodi:cx="-95.682716"
       sodipodi:cy="5.5760512"
       sodipodi:rx="0.56072623"
       sodipodi:ry="0.59124118"
       sodipodi:start="0"
       sodipodi:end="6.2115395"
       sodipodi:open="true"
       sodipodi:arc-type="arc"
       transform="scale(-1,1)"
       d="m -95.12199,5.5760512 a 0.56072623,0.59124118 0 0 1 -0.550683,0.5911464 0.56072623,0.59124118 0 0 1 -0.57041,-0.5699709 0.56072623,0.59124118 0 0 1 0.530251,-0.6115633 0.56072623,0.59124118 0 0 1 0.589403,0.5480641" />
    <path
       style="opacity:1;fill:#fffff8;fill-opacity:1;fill-rule:evenodd;stroke:none;stroke-width:8.92412;paint-order:markers fill stroke"
       id="path3752-2-3-9"
       sodipodi:type="arc"
       sodipodi:cx="-68.745071"
       sodipodi:cy="38.722809"
       sodipodi:rx="0.23848373"
       sodipodi:ry="0.32270578"
       sodipodi:start="0"
       sodipodi:end="6.2115395"
       sodipodi:open="true"
       sodipodi:arc-type="arc"
       transform="scale(-1,1)"
       d="m -68.506588,38.722809 a 0.23848373,0.32270578 0 0 1 -0.234212,0.322654 0.23848373,0.32270578 0 0 1 -0.242602,-0.311096 0.23848373,0.32270578 0 0 1 0.225522,-0.333798 0.23848373,0.32270578 0 0 1 0.25068,0.299139" />
    <path
       style="opacity:1;fill:#fffff8;fill-opacity:1;fill-rule:evenodd;stroke:none;stroke-width:6.41844;paint-order:markers fill stroke"
       id="path3752-2-3-97"
       sodipodi:type="arc"
       sodipodi:cx="-69.282135"
       sodipodi:cy="22.07361"
       sodipodi:rx="0.34589788"
       sodipodi:ry="0.43011993"
       sodipodi:start="0"
       sodipodi:end="6.2115395"
       sodipodi:open="true"
       sodipodi:arc-type="arc"
       transform="scale(-1,1)"
       d="m -68.936237,22.07361 a 0.34589788,0.43011993 0 0 1 -0.339703,0.430051 0.34589788,0.43011993 0 0 1 -0.351871,-0.414646 0.34589788,0.43011993 0 0 1 0.327098,-0.444904 0.34589788,0.43011993 0 0 1 0.363588,0.398709" />
    <path
       style="opacity:1;fill:#fffff8;fill-opacity:1;fill-rule:evenodd;stroke:none;stroke-width:8.26297;paint-order:markers fill stroke"
       id="path3752-2-3-0"
       sodipodi:type="arc"
       sodipodi:cx="-125.56716"
       sodipodi:cy="40.387726"
       sodipodi:rx="0.23848373"
       sodipodi:ry="0.37641284"
       sodipodi:start="0"
       sodipodi:end="6.2115395"
       sodipodi:open="true"
       sodipodi:arc-type="arc"
       transform="scale(-1,1)"
       d="m -125.32868,40.387726 a 0.23848373,0.37641284 0 0 1 -0.23421,0.376352 0.23848373,0.37641284 0 0 1 -0.2426,-0.362871 0.23848373,0.37641284 0 0 1 0.22552,-0.389351 0.23848373,0.37641284 0 0 1 0.25068,0.348924" />
    <path
       style="opacity:1;fill:#fffff8;fill-opacity:1;fill-rule:evenodd;stroke:none;stroke-width:6.86107;paint-order:markers fill stroke"
       id="path3752-2-3-3"
       sodipodi:type="arc"
       sodipodi:cx="-7.8412361"
       sodipodi:cy="26.423885"
       sodipodi:rx="0.34589788"
       sodipodi:ry="0.37641284"
       sodipodi:start="0"
       sodipodi:end="6.2115395"
       sodipodi:open="true"
       sodipodi:arc-type="arc"
       transform="scale(-1,1)"
       d="m -7.4953382,26.423885 a 0.34589788,0.37641284 0 0 1 -0.3397027,0.376353 0.34589788,0.37641284 0 0 1 -0.3518712,-0.362871 0.34589788,0.37641284 0 0 1 0.3270983,-0.389351 0.34589788,0.37641284 0 0 1 0.3635882,0.348924" />
    <path
       style="opacity:1;fill:#fffff8;fill-opacity:1;fill-rule:evenodd;stroke:none;stroke-width:17.247;paint-order:markers fill stroke"
       id="path3752-2-0"
       sodipodi:type="arc"
       sodipodi:cx="216.61877"
       sodipodi:cy="21.115013"
       sodipodi:rx="0.046900056"
       sodipodi:ry="0.4393346"
       sodipodi:start="0"
       sodipodi:end="6.2115395"
       sodipodi:open="true"
       sodipodi:arc-type="arc"
       d="m 216.66567,21.115013 a 0.04690006,0.4393346 0 0 1 -0.0461,0.439264 0.04690006,0.4393346 0 0 1 -0.0477,-0.423529 0.04690006,0.4393346 0 0 1 0.0444,-0.454435 0.04690006,0.4393346 0 0 1 0.0493,0.407251" />
    <path
       style="opacity:1;fill:#fffff8;fill-opacity:1;fill-rule:evenodd;stroke:none;stroke-width:4.29972;paint-order:markers fill stroke"
       id="path3752-2-0-3"
       sodipodi:type="arc"
       sodipodi:cx="-246.39246"
       sodipodi:cy="6.6838899"
       sodipodi:rx="0.56072623"
       sodipodi:ry="0.59124118"
       sodipodi:start="0"
       sodipodi:end="6.2115395"
       sodipodi:open="true"
       sodipodi:arc-type="arc"
       transform="scale(-1,1)"
       d="m -245.83173,6.6838899 a 0.56072623,0.59124118 0 0 1 -0.55068,0.5911463 0.56072623,0.59124118 0 0 1 -0.57041,-0.5699709 0.56072623,0.59124118 0 0 1 0.53025,-0.6115633 0.56072623,0.59124118 0 0 1 0.5894,0.5480641" />
    <path
       style="opacity:1;fill:#fffff8;fill-opacity:1;fill-rule:evenodd;stroke:none;stroke-width:16.6135;paint-order:markers fill stroke"
       id="path3752-2-0-3-6"
       sodipodi:type="arc"
       sodipodi:cx="-265.38077"
       sodipodi:cy="21.646687"
       sodipodi:rx="0.10500652"
       sodipodi:ry="0.21147475"
       sodipodi:start="0"
       sodipodi:end="6.2115395"
       sodipodi:open="true"
       sodipodi:arc-type="arc"
       transform="scale(-1,1)"
       d="m -265.27576,21.646687 a 0.10500652,0.21147475 0 0 1 -0.10313,0.21144 0.10500652,0.21147475 0 0 1 -0.10682,-0.203866 0.10500652,0.21147475 0 0 1 0.0993,-0.218744 0.10500652,0.21147475 0 0 1 0.11038,0.196031" />
    <path
       style="opacity:1;fill:#fffff8;fill-opacity:1;fill-rule:evenodd;stroke:none;stroke-width:31.0533;paint-order:markers fill stroke"
       id="path3752-2-0-7"
       sodipodi:type="arc"
       sodipodi:cx="47.09103"
       sodipodi:cy="35.09042"
       sodipodi:rx="0.046900056"
       sodipodi:ry="0.13552147"
       sodipodi:start="0"
       sodipodi:end="6.2115395"
       sodipodi:open="true"
       sodipodi:arc-type="arc"
       d="m 47.13793,35.09042 a 0.04690006,0.13552147 0 0 1 -0.04606,0.1355 0.04690006,0.13552147 0 0 1 -0.04771,-0.130646 0.04690006,0.13552147 0 0 1 0.04435,-0.14018 0.04690006,0.13552147 0 0 1 0.0493,0.125625" />
    <path
       style="opacity:1;fill:#fffff8;fill-opacity:1;fill-rule:evenodd;stroke:none;stroke-width:18.6234;paint-order:markers fill stroke"
       id="path3752-2-0-9"
       sodipodi:type="arc"
       sodipodi:cx="-177.90486"
       sodipodi:cy="-18.525465"
       sodipodi:rx="0.10500652"
       sodipodi:ry="0.16829167"
       sodipodi:start="0"
       sodipodi:end="6.2115395"
       sodipodi:open="true"
       sodipodi:arc-type="arc"
       transform="scale(-1)"
       d="m -177.79985,-18.525465 a 0.10500652,0.16829167 0 0 1 -0.10313,0.168265 0.10500652,0.16829167 0 0 1 -0.10682,-0.162238 0.10500652,0.16829167 0 0 1 0.0993,-0.174076 0.10500652,0.16829167 0 0 1 0.11038,0.156002" />
    <path
       style="opacity:1;fill:#fffff8;fill-opacity:1;fill-rule:evenodd;stroke:none;stroke-width:4.29972;paint-order:markers fill stroke"
       id="path3752-4"
       sodipodi:type="arc"
       sodipodi:cx="-6.9877005"
       sodipodi:cy="5.7724495"
       sodipodi:rx="0.56072623"
       sodipodi:ry="0.59124118"
       sodipodi:start="0"
       sodipodi:end="6.2115395"
       sodipodi:open="true"
       sodipodi:arc-type="arc"
       transform="scale(-1,1)"
       d="M -6.4269742,5.7724495 A 0.56072623,0.59124118 0 0 1 -6.9776576,6.3635958 0.56072623,0.59124118 0 0 1 -7.5480669,5.7936249 0.56072623,0.59124118 0 0 1 -7.0178162,5.1820617 0.56072623,0.59124118 0 0 1 -6.4284128,5.7301258" />
    <path
       style="opacity:1;fill:#fffff8;fill-opacity:1;fill-rule:evenodd;stroke:none;stroke-width:4.29972;paint-order:markers fill stroke"
       id="path3752-83"
       sodipodi:type="arc"
       sodipodi:cx="-202.33955"
       sodipodi:cy="10.937273"
       sodipodi:rx="0.56072623"
       sodipodi:ry="0.59124118"
       sodipodi:start="0"
       sodipodi:end="6.2115395"
       sodipodi:open="true"
       sodipodi:arc-type="arc"
       transform="scale(-1,1)"
       d="m -201.77883,10.937273 a 0.56072623,0.59124118 0 0 1 -0.55068,0.591146 0.56072623,0.59124118 0 0 1 -0.57041,-0.569971 0.56072623,0.59124118 0 0 1 0.53025,-0.611563 0.56072623,0.59124118 0 0 1 0.5894,0.548064" />
    <path
       style="opacity:1;fill:#fffff8;fill-opacity:1;fill-rule:evenodd;stroke:none;stroke-width:19.3671;paint-order:markers fill stroke"
       id="path3752-83-5"
       sodipodi:type="arc"
       sodipodi:cx="199.38683"
       sodipodi:cy="-36.350456"
       sodipodi:rx="0.13230631"
       sodipodi:ry="0.12350537"
       sodipodi:start="0"
       sodipodi:end="6.2115395"
       sodipodi:open="true"
       sodipodi:arc-type="arc"
       transform="scale(1,-1)"
       d="m 199.51913,-36.350456 a 0.13230631,0.12350537 0 0 1 -0.12993,0.123485 0.13230631,0.12350537 0 0 1 -0.1346,-0.119062 0.13230631,0.12350537 0 0 1 0.12512,-0.12775 0.13230631,0.12350537 0 0 1 0.13907,0.114486" />
    <path
       style="opacity:1;fill:#fffff8;fill-opacity:1;fill-rule:evenodd;stroke:none;stroke-width:4.29972;paint-order:markers fill stroke"
       id="path3752-9"
       sodipodi:type="arc"
       sodipodi:cx="-148.2608"
       sodipodi:cy="13.975404"
       sodipodi:rx="0.56072623"
       sodipodi:ry="0.59124118"
       sodipodi:start="0"
       sodipodi:end="6.2115395"
       sodipodi:open="true"
       sodipodi:arc-type="arc"
       transform="scale(-1,1)"
       d="m -147.70008,13.975404 a 0.56072623,0.59124118 0 0 1 -0.55068,0.591146 0.56072623,0.59124118 0 0 1 -0.57041,-0.569971 0.56072623,0.59124118 0 0 1 0.53025,-0.611563 0.56072623,0.59124118 0 0 1 0.5894,0.548064" />
    <path
       style="opacity:1;fill:#fffff8;fill-opacity:1;fill-rule:evenodd;stroke:none;stroke-width:8.50717;paint-order:markers fill stroke"
       id="path3752-8"
       sodipodi:type="arc"
       sodipodi:cx="54.686363"
       sodipodi:cy="11.149404"
       sodipodi:rx="0.22338796"
       sodipodi:ry="0.37911004"
       sodipodi:start="0"
       sodipodi:end="6.2115395"
       sodipodi:open="true"
       sodipodi:arc-type="arc"
       d="m 54.909751,11.149404 a 0.22338796,0.37911004 0 0 1 -0.219387,0.379049 0.22338796,0.37911004 0 0 1 -0.227245,-0.365472 0.22338796,0.37911004 0 0 1 0.211246,-0.39214 0.22338796,0.37911004 0 0 1 0.234813,0.351424" />
    <path
       style="opacity:1;fill:#fffff8;fill-opacity:1;fill-rule:evenodd;stroke:none;stroke-width:9.51832;paint-order:markers fill stroke"
       id="path3752-8-0"
       sodipodi:type="arc"
       sodipodi:cx="99.346901"
       sodipodi:cy="26.094088"
       sodipodi:rx="0.22338796"
       sodipodi:ry="0.30284125"
       sodipodi:start="0"
       sodipodi:end="6.2115395"
       sodipodi:open="true"
       sodipodi:arc-type="arc"
       d="m 99.570289,26.094088 a 0.22338796,0.30284125 0 0 1 -0.219387,0.302792 0.22338796,0.30284125 0 0 1 -0.227246,-0.291946 0.22338796,0.30284125 0 0 1 0.211247,-0.313251 0.22338796,0.30284125 0 0 1 0.234813,0.280726" />
    <g
       id="g23053">
      <g
         id="g16868"
         transform="matrix(1.11491,0,0,1.1158465,37.573175,31.271214)"
         style="fill:#2e0851;fill-opacity:1;stroke-width:0.896557">
        <rect
           style="opacity:1;fill:#2e0851;fill-opacity:1;fill-rule:evenodd;stroke:none;stroke-width:0.249549;paint-order:markers fill stroke"
           id="rect15863"
           width="23.393621"
           height="9.7220259"
           x="171.3506"
           y="91.143944" />
        <rect
           style="opacity:1;fill:#2e0851;fill-opacity:1;fill-rule:evenodd;stroke:none;stroke-width:0.249549;paint-order:markers fill stroke"
           id="rect15865"
           width="13.263437"
           height="17.621162"
           x="171.3506"
           y="73.522781" />
        <rect
           style="fill:#2e0851;fill-opacity:1;fill-rule:evenodd;stroke:none;stroke-width:0.249549;paint-order:markers fill stroke"
           id="rect15865-3"
           width="11.071601"
           height="13.975405"
           x="172.44652"
           y="59.547379" />
        <rect
           style="fill:#2e0851;fill-opacity:1;fill-rule:evenodd;stroke:none;stroke-width:0.249549;paint-order:markers fill stroke"
           id="rect15865-3-6"
           width="9.9606886"
           height="13.975405"
           x="173.00197"
           y="45.571976" />
        <rect
           style="fill:#2e0851;fill-opacity:1;fill-rule:evenodd;stroke:none;stroke-width:0.249549;paint-order:markers fill stroke"
           id="rect15865-3-6-5"
           width="8.7454357"
           height="13.975405"
           x="173.53113"
           y="31.596569" />
        <rect
           style="fill:#2e0851;fill-opacity:1;fill-rule:evenodd;stroke:none;stroke-width:0.24955;paint-order:markers fill stroke"
           id="rect15865-3-6-5-8-7"
           width="10.264503"
           height="3.7794592"
           x="172.77159"
           y="29.706839" />
        <rect
           style="fill:#2e0851;fill-opacity:1;fill-rule:evenodd;stroke:none;stroke-width:0.249551;paint-order:markers fill stroke"
           id="rect15865-3-6-5-8-7-1"
           width="6.3149319"
           height="7.6789813"
           x="174.72888"
           y="22.692345" />
        <path
           style="opacity:1;fill:#2e0851;fill-opacity:1;fill-rule:evenodd;stroke:none;stroke-width:0.249549;paint-order:markers fill stroke"
           d="m 175.59306,21.634007 2.02955,-2.195452 1.06355,1.016364 c 0.58495,0.559001 1.61692,1.546958 2.29327,2.195458 l 1.22973,1.17909 h -4.32282 -4.32281 z"
           id="path16526" />
        <path
           style="fill:#2e0851;fill-opacity:1;fill-rule:evenodd;stroke:none;stroke-width:0.249549;paint-order:markers fill stroke"
           d="m 179.19636,88.948484 4.79463,-2.195452 2.51254,1.016364 c 1.3819,0.559001 3.81983,1.546958 5.41765,2.195458 l 2.90512,1.17909 h -10.21228 -10.21224 z"
           id="path16526-4" />
      </g>
      <rect
         style="opacity:1;mix-blend-mode:normal;fill:#f9cf61;fill-opacity:0.98943663;fill-rule:evenodd;stroke:none;stroke-width:0.443022;paint-order:markers fill stroke;filter:url(#filter19909)"
         id="rect19885"
         width="3.0381312"
         height="5.7724495"
         x="162.84384"
         y="43.445282"
         transform="matrix(0.49999994,0,0,0.78947368,152.24639,23.557121)" />
    </g>
    <path
       style="opacity:1;mix-blend-mode:normal;fill:#f9cf61;fill-opacity:0.989437;fill-rule:evenodd;stroke:none;stroke-width:0.36994;paint-order:markers fill stroke;filter:url(#filter23683)"
       d="m 88.308802,67.910067 c -0.691873,-0.492381 -0.679415,-15.36325 0.01317,-15.758603 0.346142,-0.197585 20.999788,0.461159 72.172408,2.301928 39.42812,1.418297 71.81486,2.579735 71.97053,2.580971 0.15566,0.0014 0.28303,1.226398 0.28303,2.722584 0,2.613934 -0.0332,2.724841 -0.84909,2.835492 -0.467,0.06334 -31.67096,1.296114 -69.34213,2.739507 -37.67116,1.443393 -69.681747,2.689481 -71.134629,2.769086 -1.89925,0.104063 -2.774174,0.0504 -3.113323,-0.190965 z"
       id="path23324"
       transform="matrix(1.0065042,-0.28809467,0.2118034,0.50181876,-13.99387,97.432488)" />
    <path
       style="fill:#32267a;fill-opacity:1;stroke:none;stroke-width:0.264583px;stroke-linecap:butt;stroke-linejoin:miter;stroke-opacity:1"
       d="m -3.2093121,89.493267 9.3272589,-7.145301 c 0,0 0.6203742,-10.054084 4.0938582,-0.03233 3.473483,10.021757 -0.2298293,10.423194 9.837105,10.715892 10.066934,0.292701 9.901557,-3.055722 18.047857,3.579413 8.1463,6.635129 11.753075,11.817329 22.228927,12.851189 10.475855,1.03385 14.606463,1.74562 18.107647,-2.74833 3.501184,-4.49395 8.339381,-4.53215 13.825372,1.00741 5.485998,5.53956 8.591977,8.12038 10.581447,10.71001 1.98948,2.58963 6.95163,12.59964 9.96574,13.32022 3.0141,0.72059 9.76827,1.78383 12.46532,3.62349 2.69705,1.83966 10.88011,9.21889 10.88011,9.21889 0,0 4.03406,6.29541 9.2628,6.62631 5.22875,0.33091 10.77452,-0.45727 12.31832,0.64712 1.5438,1.10438 2.3249,1.84261 2.3249,1.84261 L 0.67720055,153.10741 -1.1416767,86.127214"
       id="path23687" />
  </g>
</svg>
