<?xml version="1.0" encoding="UTF-8" standalone="no"?>
<!-- Created with Inkscape (http://www.inkscape.org/) -->

<svg
   width="210mm"
   height="297mm"
   viewBox="0 0 210 297"
   version="1.1"
   id="svg5"
   inkscape:version="1.1.2 (b8e25be833, 2022-02-05)"
   sodipodi:docname="laisvatema.svg"
   xmlns:inkscape="http://www.inkscape.org/namespaces/inkscape"
   xmlns:sodipodi="http://sodipodi.sourceforge.net/DTD/sodipodi-0.dtd"
   xmlns:xlink="http://www.w3.org/1999/xlink"
   xmlns="http://www.w3.org/2000/svg"
   xmlns:svg="http://www.w3.org/2000/svg">
  <sodipodi:namedview
     id="namedview7"
     pagecolor="#ffffff"
     bordercolor="#666666"
     borderopacity="1.0"
     inkscape:pageshadow="2"
     inkscape:pageopacity="0.0"
     inkscape:pagecheckerboard="0"
     inkscape:document-units="mm"
     showgrid="false"
     inkscape:zoom="0.70644949"
     inkscape:cx="489.0654"
     inkscape:cy="621.41739"
     inkscape:window-width="1920"
     inkscape:window-height="1017"
     inkscape:window-x="-8"
     inkscape:window-y="-8"
     inkscape:window-maximized="1"
     inkscape:current-layer="layer1"
     inkscape:snap-page="false"
     inkscape:snap-text-baseline="false"
     inkscape:snap-intersection-paths="false" />
  <defs
     id="defs2">
    <linearGradient
       inkscape:collect="always"
       id="linearGradient47238">
      <stop
         style="stop-color:#f9f9f9;stop-opacity:1"
         offset="0"
         id="stop47234" />
      <stop
         style="stop-color:#999999;stop-opacity:1"
         offset="1"
         id="stop47236" />
    </linearGradient>
    <linearGradient
       inkscape:collect="always"
       id="linearGradient45266">
      <stop
         style="stop-color:#000000;stop-opacity:1;"
         offset="0"
         id="stop45262" />
      <stop
         style="stop-color:#000000;stop-opacity:0;"
         offset="1"
         id="stop45264" />
    </linearGradient>
    <linearGradient
       inkscape:collect="always"
       id="linearGradient33137">
      <stop
         style="stop-color:#ff5555;stop-opacity:1;"
         offset="0"
         id="stop33133" />
      <stop
         style="stop-color:#ff5555;stop-opacity:0;"
         offset="1"
         id="stop33135" />
    </linearGradient>
    <linearGradient
       inkscape:collect="always"
       id="linearGradient29264">
      <stop
         style="stop-color:#ffffff;stop-opacity:1;"
         offset="0"
         id="stop29260" />
      <stop
         style="stop-color:#ffffff;stop-opacity:0;"
         offset="1"
         id="stop29262" />
    </linearGradient>
    <linearGradient
       inkscape:collect="always"
       id="linearGradient26775">
      <stop
         style="stop-color:#000000;stop-opacity:1;"
         offset="0"
         id="stop26771" />
      <stop
         style="stop-color:#000000;stop-opacity:0"
         offset="1"
         id="stop26773" />
    </linearGradient>
    <linearGradient
       inkscape:collect="always"
       id="linearGradient20387">
      <stop
         style="stop-color:#00aa44;stop-opacity:1"
         offset="0"
         id="stop20383" />
      <stop
         style="stop-color:#008435;stop-opacity:1"
         offset="1"
         id="stop20385" />
    </linearGradient>
    <radialGradient
       inkscape:collect="always"
       xlink:href="#linearGradient20387"
       id="radialGradient3767"
       gradientUnits="userSpaceOnUse"
       gradientTransform="matrix(1.0541389,0.32090501,-0.25755492,0.84604055,28.438507,-4.7361021)"
       cx="81.477036"
       cy="129.24081"
       fx="81.477036"
       fy="129.24081"
       r="65.756149" />
    <linearGradient
       inkscape:collect="always"
       xlink:href="#linearGradient26775"
       id="linearGradient26777"
       x1="106.96194"
       y1="196.62881"
       x2="40.30555"
       y2="141.30869"
       gradientUnits="userSpaceOnUse" />
    <linearGradient
       inkscape:collect="always"
       xlink:href="#linearGradient29264"
       id="linearGradient29266"
       x1="63.889122"
       y1="86.823639"
       x2="81.040016"
       y2="130.75327"
       gradientUnits="userSpaceOnUse" />
    <linearGradient
       inkscape:collect="always"
       xlink:href="#linearGradient33137"
       id="linearGradient33139"
       x1="350.20862"
       y1="77.565628"
       x2="385.48599"
       y2="36.362751"
       gradientUnits="userSpaceOnUse"
       gradientTransform="matrix(0.92199789,0,0,0.88567133,28.344188,6.8003924)" />
    <radialGradient
       inkscape:collect="always"
       xlink:href="#linearGradient45266"
       id="radialGradient45268"
       cx="-39.512436"
       cy="-47.751999"
       fx="-39.512436"
       fy="-47.751999"
       r="42.134117"
       gradientTransform="matrix(1.8666667,0,0,0.33777776,167.76245,174.55384)"
       gradientUnits="userSpaceOnUse" />
    <radialGradient
       inkscape:collect="always"
       xlink:href="#linearGradient45266"
       id="radialGradient45352"
       gradientUnits="userSpaceOnUse"
       gradientTransform="matrix(1.6133333,0,0,0.20888891,196.51601,201.91918)"
       cx="-39.512436"
       cy="-47.751999"
       fx="-39.512436"
       fy="-47.751999"
       r="42.134117" />
    <radialGradient
       inkscape:collect="always"
       xlink:href="#linearGradient47238"
       id="radialGradient47240"
       cx="105.0544"
       cy="147.93757"
       fx="105.0544"
       fy="147.93757"
       r="105.42892"
       gradientTransform="matrix(1,0,0,1.4174067,0,-61.750139)"
       gradientUnits="userSpaceOnUse" />
  </defs>
  <g
     inkscape:label="Sluoksnis 1"
     inkscape:groupmode="layer"
     id="layer1">
    <rect
       style="opacity:1;fill:url(#radialGradient47240);fill-opacity:1;stroke:none;stroke-width:0;stroke-opacity:1"
       id="rect46866"
       width="210.85785"
       height="298.87134"
       x="-0.37452549"
       y="-1.4981019" />
    <ellipse
       style="opacity:1;fill:url(#radialGradient45268);fill-opacity:1;stroke:none;stroke-width:0;stroke-opacity:1"
       id="path45062"
       cx="94.00589"
       cy="158.42429"
       rx="78.650352"
       ry="14.231969" />
    <ellipse
       style="opacity:1;fill:url(#radialGradient45352);fill-opacity:1;stroke:none;stroke-width:0;stroke-opacity:1"
       id="ellipse45350"
       cx="132.7693"
       cy="191.94437"
       rx="67.976387"
       ry="8.8013487" />
    <g
       id="g45014"
       transform="matrix(0.8654435,0,0,0.83467392,17.707791,69.994977)">
      <g
         id="g29355"
         transform="translate(-16.528907,-88.208489)">
        <ellipse
           style="opacity:1;mix-blend-mode:normal;fill:url(#radialGradient3767);fill-opacity:1;stroke-width:0"
           id="circle1981"
           cx="85.893967"
           cy="141.58121"
           rx="65.756149"
           ry="58.153095" />
        <path
           id="path920"
           style="fill:#00ba55;fill-opacity:1;stroke:none;stroke-width:0.999999px;stroke-linecap:butt;stroke-linejoin:miter;stroke-opacity:1"
           d="m 324.63867,315.31836 c -7.96005,0.0418 -15.91322,0.4218 -23.83203,1.13867 l -11.78906,8.08594 c 0,0 -0.60129,25.89176 -3.00977,37.33203 -2.40848,11.44028 -6.02232,7.22462 -11.4414,15.6543 -5.41908,8.42967 -4.21485,21.67578 -4.21485,21.67578 0,0 10.23661,22.27792 12.04297,25.89062 1.80636,3.61274 6.02149,28.30078 6.02149,28.30078 0,0 -5.6e-4,16.25644 0.60156,24.08399 0.60212,7.82755 6.62333,30.10685 8.42969,39.13867 1.80636,9.03179 0,18.06333 0,27.69727 0,9.6339 6.02036,22.27788 7.22461,25.89062 1.20423,3.6127 -7.82618,14.45091 -7.82618,16.85938 0,2.40846 1.80609,21.07449 2.40821,31.31054 0.60212,10.23602 12.04297,28.90235 12.04297,28.90235 l -12.64454,22.27734 8.42969,12.64453 0.60156,49.97656 5.1543,22.33204 c 3.92954,0.21285 7.86424,0.34309 11.80078,0.39062 9.08217,-0.0507 18.15438,-0.54168 27.17578,-1.4707 l 0.42578,-6.80078 c 0,0 -0.60295,-13.24693 -1.20507,-18.66602 -0.60211,-5.41909 -3.00977,-19.2673 -3.00977,-25.89062 0,-6.62332 1.80637,-9.63505 4.21484,-15.65625 2.40849,-6.02121 -1.20507,-18.06334 -1.20507,-23.48243 0,-5.41905 -4.21485,-16.25669 -4.21485,-21.67578 0,-5.41908 5.6e-4,-24.08452 -0.60156,-31.91211 -0.60212,-7.82755 -3.61161,-11.44083 -5.41797,-20.47265 -1.80636,-9.03179 0.60045,-22.27737 1.80469,-30.70703 1.20424,-8.42967 -0.60045,-12.64622 -1.80469,-19.26954 -1.20424,-6.62332 -3.61356,-20.47074 -5.41992,-37.33007 -1.80636,-16.85938 4.81696,-12.04354 8.42969,-19.8711 3.61271,-7.82759 -3.00977,-24.08426 -3.00977,-30.10547 0,-6.0212 -3.6144,-18.66606 -6.625,-31.31054 -3.0106,-12.64453 3.01116,-16.85992 3.61328,-20.47266 0.60212,-3.6127 -6.62304,-25.28711 -6.62304,-25.28711 l 7.2246,-18.06445 -4.21484,-31.91211 0.25195,-9.03711 c -3.26131,-0.11934 -6.52496,-0.18186 -9.78906,-0.1875 z m 53.12891,5.09766 c 0,0 -4.45341,13.15793 -6.25977,19.78125 -1.80636,6.62332 -5.6e-4,6.62417 0.60157,13.84961 0.60211,7.22542 -1.20313,11.43945 -1.20313,11.43945 0,0 -2.40848,6.62335 -8.42969,21.07422 -6.0212,14.45091 1.80609,15.65571 6.62305,24.6875 4.81696,9.03182 8.42915,18.66464 17.46094,39.13672 9.03182,20.47207 1.20507,16.8602 1.20507,26.49414 10e-6,9.6339 6e-4,15.05248 -0.60156,30.10547 -0.60211,15.05297 -1.80664,21.07478 -1.80664,33.11718 0,12.04241 -4.21622,14.45033 -9.0332,30.10547 -4.81696,15.65511 -3.01061,16.25756 -4.21484,31.31055 -1.20425,15.05302 4.81698,18.06444 8.42968,22.2793 3.61274,4.2148 0,27.69699 0,34.32031 0,6.62332 5.42019,16.25669 7.22656,21.67578 1.80635,5.41909 -6.62385,21.67691 -7.82812,28.90234 -1.20423,7.22544 -6.62305,21.07422 -6.62305,21.07422 l -0.10937,20.74805 c 10.52214,-1.85566 20.89737,-4.31197 31.06054,-7.35352 1.26141,-6.77316 2.63059,-13.27478 3.97266,-16.40625 3.6127,-8.42967 1.80443,-10.83654 4.21289,-22.8789 2.40851,-12.04241 -0.60186,-9.63394 1.80664,-16.85938 2.40847,-7.22543 5.6e-4,-13.24721 -0.60156,-24.6875 -0.60215,-11.44025 1.20368,-9.03127 0.60156,-17.46094 -0.60211,-8.42967 -3.61217,-12.6451 -4.8164,-20.47265 -1.20424,-7.82756 0.60156,-13.84961 0.60156,-13.84961 0,0 5.42021,-8.42861 7.22656,-13.84766 1.80635,-5.41908 0.60072,-9.03267 -0.60351,-18.06445 -1.20424,-9.03179 -1.80554,-12.64428 -3.00977,-27.69727 -1.20427,-15.05299 2.40849,-15.05245 4.21484,-25.89062 1.80635,-10.83818 1.20508,-15.05274 1.20508,-15.05274 0,0 6.62275,-19.26924 9.03125,-30.10742 2.40847,-10.83813 3.61328,-15.65429 3.61328,-15.65429 0,0 -5.41911,-21.67578 -4.21484,-25.89063 1.20423,-4.21485 0,-14.45117 0,-14.45117 0,0 -13.84987,-18.6652 -11.44141,-21.67578 2.40847,-3.01062 -8.74804,-19.99414 -8.74804,-19.99414 0,0 9.25157,-42.19772 8.74023,-51.48633 -12.4285,-4.34495 -25.23304,-7.79625 -38.28906,-10.32031 z m -136.29688,7.73632 c -16.39861,5.15252 -32.13991,11.81407 -46.96484,19.875 l 8.4082,13.84766 -2.4082,16.25586 6.62305,11.44141 c 0,0 -3.01061,9.03179 -4.21485,12.64453 -1.20424,3.6127 1.20424,3.61215 4.21485,13.24609 3.01059,9.6339 -1.20452,11.44062 -1.80664,18.66602 -0.60212,7.22543 -1.80665,18.66601 -1.80665,18.66601 10e-6,0 7.82897,22.2785 9.03321,33.71875 1.20424,11.44029 2.4082,11.43974 2.4082,17.46094 0,6.0212 -0.60268,18.66548 -3.61328,27.69727 -3.0106,9.03177 -1.80664,10.83789 -1.80664,10.83789 0,0 4.21624,26.49332 4.81836,29.5039 0.60212,3.01058 10.83761,14.45036 13.24609,17.46094 2.40848,3.01062 3.00977,25.28906 3.00977,25.28906 0,0 -1.20313,14.45145 -1.20313,20.47266 0,6.0212 7.22461,29.5039 7.22461,29.5039 l -3.61328,12.64454 14.45117,11.43945 0.60352,12.64453 9.03125,7.82813 3.00976,8.42968 9.03321,13.84961 -3.16797,17.01953 c 10.93654,2.33255 22.03955,4.00567 33.23242,5.00782 l -4.17383,-25.03907 -19.87109,-31.31054 c 0,0 -4.21484,-42.14707 -4.21485,-45.75977 0,-3.61274 4.81697,-20.47264 4.21485,-28.90234 -0.60212,-8.42967 -7.22517,-15.6546 -10.83789,-30.10547 -3.61272,-14.45087 -1.80664,-9.63391 -1.80664,-12.64453 0,-3.01059 -9.63337,-22.27874 -9.03125,-27.09571 0.60212,-4.81697 3.61272,-12.04214 4.21484,-19.26757 0.60212,-7.22544 0.60156,-18.66602 0.60156,-18.66602 l 7.22657,-9.63477 -10.23633,-60.8125 -3.61328,-21.07421 -9.63282,-23.48438 6.62305,-28.90039 z m 221.33594,24.28321 c 2.05359,12.98194 3.23438,25.69531 3.23438,25.69531 l 2.4082,55.99805 4.21484,27.0957 c 0,0 1.80664,12.64285 1.80664,22.87891 0,10.23605 -10.83789,31.91406 -10.83789,31.91406 l -5.41992,22.8789 c 0,0 -14.45117,7.22711 -14.45117,10.83985 0,3.6127 1.20508,17.46094 1.20508,17.46094 l -3.61328,20.47265 c 0,0 -4.21429,10.23606 -4.81641,16.85938 -0.60212,6.62332 -5.41852,19.2662 -4.81641,22.8789 0.60212,3.61274 0.60186,13.24722 2.40821,20.47266 1.80638,7.22544 2.40875,15.65538 1.80664,22.88086 -0.60212,7.22543 -4.21485,15.05275 -4.21485,23.48242 0,8.42967 -5.36035,10.71271 1.80469,22.88086 l 7.16602,12.16797 c 15.45762,-7.21943 30.01083,-15.86101 43.41797,-25.78125 -4.80782,-8.96777 -9.72477,-15.81263 -10.24024,-22.51367 -0.60212,-7.82756 -5.42044,-11.44116 -0.60352,-22.2793 4.81698,-10.83817 8.42969,-10.83765 8.42969,-21.67578 0,-10.83817 -1.20312,-23.483 -1.20312,-31.31055 0,-7.82755 1.80553,-16.25644 3.00976,-19.86914 1.20424,-3.6127 15.05274,-18.66601 15.05274,-18.66601 v -19.26758 c 0,-3.01059 6.02148,-25.28906 6.02148,-25.28907 l -8.42969,-21.07421 c 0,0 3.01172,-10.83958 3.01172,-13.24805 0,-2.4085 -7.82812,-28.29883 -7.82812,-28.29883 0,0 5.41796,1.80637 9.63281,-8.42969 4.21482,-10.23605 19.87051,-21.67581 16.25781,-30.10546 -3.61273,-8.42971 -10.83873,-27.69841 -12.04297,-30.70899 -0.42499,-1.06248 0.52354,-3.10382 1.26368,-5.51562 -13.06569,-12.39225 -27.70785,-23.40681 -43.63477,-32.82422 z m -284.68945,5.33007 c -13.82714,8.91379 -26.5764,19.0666 -38.04492,30.29688 l 0.82421,18.9707 -0.60351,30.10547 10.23633,28.30078 -3.61133,15.05274 9.63281,36.12695 -4.21484,17.46094 9.03125,31.31054 -6.01953,19.86915 13.84765,30.70898 -4.8164,10.23633 9.63281,22.27734 1.80664,18.06446 16.25781,24.08398 4.21485,14.45117 17.46093,17.46094 15.81836,15.51562 0.002,0.002 c 6.20757,2.28532 12.51744,4.34691 18.91406,6.17968 l -8.24024,-22.29882 -21.07421,-30.70703 -15.65626,-24.08594 2.41016,-22.88086 -9.0332,-15.6543 -2.4082,-29.5039 -2.40821,-36.72852 -3.00976,-28.30078 2.4082,-43.35156 -6.02149,-13.84961 -0.60156,-23.48243 -4.81836,-18.06445 1.20508,-42.14844 c 0,0 -1.92175,-21.10034 -3.12109,-35.41797 z m -55.64453,49.72266 c -10.4857,13.00372 -19.33746,26.97948 -26.398441,41.67969 l 0.447265,2.54883 -1.93164,16.73047 5.148437,7.7207 -5.148437,25.0957 0.644531,44.40039 5.791015,13.51172 -0.64453,14.80078 6.43555,26.38282 6.43359,13.51171 1.28711,12.22657 7.07812,7.07812 6.43555,21.23438 15.44336,23.16406 -1.43945,6.62109 c 9.67714,9.22038 20.23152,17.68898 31.54687,25.3125 l -1.15039,-18.41992 -10.93945,-13.51367 -3.86133,-18.01563 c 0,0 -9.65145,-12.22688 -10.29492,-14.80078 -0.64347,-2.57386 -0.6438,-20.59123 -2.57422,-23.80859 -1.93041,-3.21736 -8.36523,-7.72103 -8.36523,-10.29492 0,-2.57386 -3.21697,-9.65261 -4.50391,-19.30469 -1.28694,-9.65204 -1.93164,-16.73047 -1.93164,-16.73047 l 0.64453,-15.44336 -9.65234,-28.95508 1.92968,-7.07812 -10.29492,-30.24414 3.86133,-13.51172 c 0,0 4.50423,-9.0085 7.07813,-14.15625 2.57386,-5.14779 1.92968,-34.74805 1.92968,-34.74805 z m 427.625,35.1875 c 0,0 -26.25251,-41.06134 -27.45674,-38.65284 -1.20424,2.40847 1.20312,63.22234 3.00947,83.09229 1.80635,19.86996 1.80664,26.49386 1.80664,37.33204 0,10.83813 -1.20423,12.64343 0,26.49218 1.20423,13.84876 -3.61353,20.47239 -5.41992,27.09571 -1.80635,6.62332 -13.95478,4.64813 -4.81641,14.45117 9.13833,9.80303 -2.40738,6.62362 -5.41797,14.45117 -3.01062,7.82755 -4.81754,9.03041 -7.82812,20.4707 -3.01058,11.44029 -7.22627,12.04269 -5.41992,22.88086 1.80635,10.83814 15.90039,26.47461 15.90039,26.47461 11.9341,-12.51059 22.25067,-26.16098 30.75781,-40.69726 -1.81738,-6.75164 -4.44679,-7.82504 -3.30469,-14.67774 1.20427,-7.22543 2.40794,-1.20452 4.81641,-18.66601 2.4085,-17.46146 4.81641,-31.31055 4.81641,-31.31055 0,0 3.61383,-25.8912 3.01171,-33.71875 -0.60211,-7.82755 -3.74218,-33.85547 -3.74218,-33.85547 8.12091,-13.58192 10.17036,-24.4904 12.92968,-28.66601 -3.57308,-11.13277 -8.13479,-21.99859 -13.64257,-32.4961 z"
           transform="scale(0.26458333)"
           sodipodi:nodetypes="cccsscscssssssccccccccssssssssssssssccccccsscsssssssssssscccsssssscsssscscscsccccccccssscssscsscscccccccccccsssssscccccccccccsccsccssssscccssssscsccscsssccccccccccccccccccccccccccccccccccccccccccccccccccccccccssssccccccscccsssssssssccsscsccc" />
        <path
           id="path2265"
           style="fill:#166423;fill-opacity:1;stroke:none;stroke-width:0.999999px;stroke-linecap:butt;stroke-linejoin:miter;stroke-opacity:1"
           d="m 324.4707,315.32422 a 248.52718,219.79123 0 0 0 -0.0469,0.002 248.52718,219.79123 0 0 0 -13.90821,0.46094 c -3.23404,0.17923 -6.46687,0.37694 -9.6914,0.66797 -0.006,5.3e-4 -0.0117,10e-4 -0.0176,0.002 3.218,5.07037 -0.4393,3.55372 -4.16602,27.15625 -3.8608,24.4519 -0.64397,8.36551 -3.86132,18.01758 -3.21736,9.65206 -5.79119,19.9467 -7.07813,23.16406 -1.28695,3.21736 7.0779,34.74849 12.86914,45.6875 5.79124,10.93901 1.93075,3.86121 2.57422,18.01758 0.64347,14.15637 3.21803,23.16444 5.14844,41.18164 1.93041,18.0172 0,4.50391 0,4.50391 0,0 1.28639,34.10321 3.2168,46.97265 1.93042,12.86941 0.53671,20.63382 5.04101,28.35547 4.50429,7.72165 5.2543,14.75743 0.75,19.26172 -4.50429,4.50429 -2.57422,10.93996 -2.57422,14.80078 0,3.86083 -1.28728,7.72103 -2.57422,10.29492 -1.28694,2.5739 5.14771,22.52179 7.07813,32.17383 1.93041,9.65208 1.28745,16.73041 3.86133,23.8086 2.57389,7.07818 -3.8615,29.59934 -5.14844,42.46875 -1.22953,12.29515 -0.54608,15.85208 5.11523,42.45898 1.19302,0.0473 2.38641,0.087 3.58008,0.11914 5.98527,-0.006 11.96834,-0.20358 17.9375,-0.5918 -3.04258,-7.28246 -10.14085,-24.39845 -11.18945,-29.11718 -1.28694,-5.79122 5.14878,-21.23414 7.72266,-27.02539 2.57387,-5.79122 1.28749,-37.96491 -3.2168,-53.40821 -4.5043,-15.4433 -0.64453,-36.67753 -0.64453,-42.46875 0,-5.79125 -1.93092,-27.66897 -3.86133,-35.39062 -1.93041,-7.72169 -5.14738,-30.88704 -4.50391,-40.53906 0.64347,-9.65209 1.28816,-38.60841 1.93164,-53.40821 0.64347,-14.79983 -0.64363,-36.6785 -1.28711,-50.1914 -0.64346,-13.51291 -11.58398,-42.46875 -11.58398,-42.46875 l 6.43555,-25.73829 z m 53.29688,5.0918 c 1.6184,6.17599 3.16797,12.45467 3.16797,14.83203 0,4.50429 -7.5e-4,5.79085 1.92968,27.02539 1.9304,21.23455 -1.4e-4,2.57382 -1.28711,7.07812 -1.2869,4.5043 -1.92968,29.601 -1.92968,32.81836 0,3.21736 4.50384,9.00805 11.58203,25.73828 7.07818,16.73027 1.93001,8.36423 4.50391,23.16407 2.57387,14.79979 1.28813,10.93969 1.93164,27.66992 0.64346,16.73023 -10e-4,11.58253 -0.64454,37.96484 -0.64346,26.38231 -1.28729,17.37367 -2.57421,29.59961 -1.28697,12.22594 -1.92899,4.50385 -3.85938,11.58203 -1.93043,7.07819 -7.08008,27.66936 -7.08008,30.88672 0,3.21736 0.64453,14.80028 0.64453,33.46094 0,18.66066 3.21781,12.8695 10.93946,37.96484 7.72165,25.09538 1.93057,7.07768 1.28711,18.66016 -0.64347,11.58247 -5.14788,29.60023 -8.36524,41.82617 -3.21736,12.22594 -2.57365,8.36447 -5.79101,17.37305 -3.05903,8.56531 -4.471,9.61351 -9.01758,12.45703 5.72541,-1.01171 11.40842,-2.20264 17.03906,-3.56836 a 248.52718,219.79123 0 0 0 0.0371,-0.008 c 3.1e-4,-6.3e-4 -3.1e-4,-0.001 0,-0.002 1.01862,-2.05484 1.75145,-2.86977 2.87891,-4.37304 1.93043,-2.5739 7.07919,-13.51412 7.72265,-24.45313 0.64347,-10.93901 2.57366,-11.58164 5.79102,-38.60742 3.21736,-27.02578 0,-19.94732 0,-35.39063 0,-15.4433 -1.93019,-4.506 -5.79102,-28.31445 -3.86082,-23.80841 3.85988,-12.86763 7.72071,-23.80664 3.86082,-10.93901 2.57421,-16.08773 2.57421,-37.32226 0,-21.23456 -2.57421,-37.32168 -2.57421,-47.61719 0,-10.29555 7.07826,-28.3123 8.36523,-34.10352 1.28693,-5.79125 0.64346,-39.25245 0,-43.11328 -0.64346,-3.86082 -13.51204,-19.30267 -16.08594,-26.38086 -2.57386,-7.07818 6.4336,-21.23437 6.4336,-21.23437 0,0 0.64509,-23.1663 -2.57227,-32.81836 -2.2229,-6.6687 -5.30473,-17.18369 -7.41602,-24.4668 -3.16132,-0.85365 -6.34241,-1.64932 -9.53906,-2.39062 a 248.52718,219.79123 0 0 0 -0.29297,-0.0684 c -3.21775,-0.7425 -6.45164,-1.42883 -9.70117,-2.05664 a 248.52718,219.79123 0 0 0 -0.0273,-0.006 z m -129.98828,5.7832 a 248.52718,219.79123 0 0 0 -23.20118,7.88867 c -1.18601,5.11066 -2.27632,9.9272 -2.1621,11.18359 0.64347,7.07818 -7.4961,54.96708 -7.4961,64.61914 v 36.03516 c 0,10.29555 0.64308,7.72207 4.50391,40.53906 3.86083,32.81704 2.57422,33.45931 2.57422,58.55469 0,25.09535 3.85942,15.44285 19.30273,56.625 15.4433,41.18215 1.93164,12.22674 1.93164,36.03516 0,23.80845 0.64325,20.59026 5.79102,38.60742 5.14777,18.0172 14.15563,28.31433 24.45117,42.4707 10.29553,14.15634 1.28711,18.6606 1.28711,29.59961 0,0.73399 0.082,1.27019 0.0996,1.95899 0.0181,0.003 0.0366,0.005 0.0547,0.008 5.66388,1.02938 11.36639,1.88492 17.09765,2.5625 a 248.52718,219.79123 0 0 0 0.01,0.002 c -1.23637,-5.23134 -2.67729,-11.18601 -3.10547,-13.54101 -1.28694,-7.07819 -10.29525,-26.38104 -12.86914,-27.66797 -2.57388,-1.28693 -11.58203,-23.8086 -11.58203,-23.8086 0,0 1.28711,-55.98187 1.28711,-59.19921 0,-3.21737 -7.72211,-25.09532 -10.93946,-29.59961 -3.21736,-4.50429 -3.02929,-23.5625 -3.02929,-23.5625 l -5.33594,-54.29883 -4.40234,-33.10547 -1.61915,-28.27149 1.625,-60.02734 c -6.64912,-4.43275 -6.82611,-50.29031 5.72657,-73.60742 z m 206.27343,21.27344 c 6.85295,10.98979 15.1436,26.86758 18.10938,45.08593 4.50429,27.66927 6.58008,14.75769 6.58008,28.91407 0,14.15637 0.64453,9.00875 0.64453,23.80859 0,14.79984 1.28534,9.0098 2.57226,31.53125 1.28693,22.52152 -3.85931,27.02468 -10.9375,51.47656 -7.07818,24.45192 -3.86094,12.87015 -8.36523,20.5918 -4.50429,7.72165 -0.64308,0.64264 -4.50391,16.08594 -3.86082,15.4433 -3.86255,19.30462 -5.79296,26.38281 -1.9304,7.07819 -5.79138,18.66078 -8.36524,30.88672 -2.5739,12.22594 0.64383,31.52935 2.57422,46.97265 1.93043,15.44331 0.64489,25.09653 3.21875,31.53125 2.38732,5.96829 -4.03754,15.42838 -9.0957,28.55274 a 248.52718,219.79123 0 0 0 0.0137,-0.006 c 3.87466,-1.78467 7.68383,-3.67471 11.44531,-5.63672 a 248.52718,219.79123 0 0 0 12.4043,-6.89258 c -0.35925,-2.95541 -0.81323,-5.86236 -1.25586,-8.29687 -1.28693,-7.07819 -1.93061,-17.37391 -1.28711,-23.8086 0.64346,-6.43472 3.86147,-23.16506 5.14844,-30.88672 1.28693,-7.72166 2.57333,-16.7297 3.21679,-25.73828 0.64347,-9.00861 1.93072,-18.0159 2.57422,-27.66796 0.64347,-9.65205 -8.8e-4,-7.72165 0.64258,-22.52149 0.64346,-14.79984 8.36592,-24.45232 13.51367,-33.46094 5.14779,-9.00858 4.50391,-7.72138 4.50391,-12.86914 0,-5.14775 -3.85938,-48.26062 -3.85938,-77.21679 0,-28.95621 7.07813,-19.94727 7.07813,-19.94727 l 1.92969,-19.94922 -13.48633,-48.46094 c -8.2e-4,-6e-4 -0.007,-0.005 -0.008,-0.006 a 248.52718,219.79123 0 0 0 -29.21289,-18.45507 z m -275.43359,9.96484 a 248.52718,219.79123 0 0 0 -21.9043,15.70508 l -3.25586,47.29101 7.40821,67.31836 c 0,0 5.79207,49.54543 6.43554,53.40625 0.64347,3.86083 0.64258,42.47071 0.64258,42.47071 l 22.52149,94.58984 c 0,0 23.8082,36.67685 28.3125,37.32031 3.74738,0.53534 9.04027,16.81827 10.79297,22.52149 0.005,0.002 0.0104,0.004 0.0156,0.006 3.61941,1.31445 7.27344,2.55296 10.95899,3.71484 l 0.11132,-1.78906 -15.44336,-29.59961 -19.94726,-22.52149 -2.57422,-7.07812 -22.52148,-86.22656 4.5039,-16.72852 c -3.64648,-17.1595 8.98655,-22.8559 -7.92969,-53.28516 l 3.42579,-19.42773 -12.22657,-80.43359 z m -56.14648,50.05273 c -0.003,0.003 -0.005,0.007 -0.008,0.01 -2.66135,3.29923 -5.19647,6.67488 -7.64648,10.09766 a 248.52718,219.79123 0 0 0 -1.03516,1.45703 c -2.42849,3.45225 -4.7713,6.95188 -6.98047,10.51953 -2.96996,13.36954 -5.77734,26.40326 -5.77734,27.93359 0,3.21736 3.2168,73.35547 3.2168,73.35547 0,0 7.72265,50.19173 7.72265,52.76563 0,2.57389 17.37305,53.4082 17.37305,53.4082 l 14.15625,40.53711 16.71289,22.16211 a 248.52718,219.79123 0 0 0 7.04102,5.35937 c -6.80999,-13.50817 -19.20543,-38.43364 -21.17969,-46.82422 -2.57388,-10.93901 -20.5918,-50.83428 -20.5918,-60.48632 0,-9.65209 -6.43359,-52.1211 -6.43359,-52.1211 l -6.43555,-52.76562 -1.28711,-41.18164 z m 409.2207,6.08985 c 0.57081,13.76578 8.17969,74.81445 8.17969,74.81445 0,0 6.43466,37.32215 7.07812,51.47852 0.64347,14.15637 -20.59181,62.41601 -20.59179,62.41601 0,0 -5.79138,11.58278 -8.36524,32.17383 -2.5739,20.59109 -0.64382,29.59881 -2.57422,38.60742 -0.20319,0.94821 -0.68715,2.54906 -0.96484,3.69141 a 248.52718,219.79123 0 0 0 0.0195,-0.0195 c 2.47956,-2.56988 4.8648,-5.20768 7.20703,-7.875 a 248.52718,219.79123 0 0 0 6.11914,-7.33203 c 0.78622,-0.97637 1.62243,-1.92042 2.39063,-2.90821 -0.71262,-7.89662 -1.25782,-17.13448 -1.25782,-22.87695 0,-9.00862 -1.93095,-9.00932 3.2168,-20.5918 5.14779,-11.58247 4.50473,-10.93969 10.93945,-27.66992 6.43473,-16.73027 7.07831,-15.44167 8.36524,-25.09375 1.28697,-9.65204 2.57422,-16.08733 2.57422,-19.30469 0,-3.21736 -1.93076,-7.72253 -2.57422,-21.8789 -0.79251,-19.66182 -0.79368,-23.51245 -0.64453,-17.37305 0,0 -0.64258,1.2861 -0.64258,-6.43555 l 6.02148,-3.2539 c 0,0 -9.78195,-20.18232 -7.85156,-25.33008 0.92722,-2.47256 1.67403,-14.01863 2.21289,-25.2832 a 248.52718,219.79123 0 0 0 -0.45312,-0.85938 c 0.008,1.03798 -6.0811,-9.79083 -11.33789,-19.11328 a 248.52718,219.79123 0 0 0 -7.06641,-9.98242 z"
           transform="scale(0.26458333)" />
        <path
           style="fill:none;stroke:#000000;stroke-width:0.264583px;stroke-linecap:butt;stroke-linejoin:miter;stroke-opacity:1"
           d="M 153.73729,114.2389 Z"
           id="path2279" />
        <path
           id="ellipse14691"
           style="opacity:0.44;fill:#afe9af;fill-opacity:1;stroke-width:0"
           d="m 85.849538,83.429532 c -36.316105,-2.1e-5 -65.756151,26.035968 -65.756193,58.153028 0.0041,8.8361 2.284941,17.5552 6.669361,25.49509 -3.045255,-6.80664 -4.610033,-14.06055 -4.612122,-21.38061 4.2e-5,-32.11706 29.950651,-59.828402 66.266757,-59.82838 25.117879,0.0015 47.529989,14.33299 58.560769,34.2899 C 137.04433,97.989471 112.8136,83.430462 85.849538,83.429532 Z"
           sodipodi:nodetypes="ccccccc" />
        <path
           id="ellipse24426"
           style="opacity:0.164201;mix-blend-mode:normal;fill:url(#linearGradient26777);fill-opacity:1;stroke-width:0"
           d="m 139.5677,115.32455 c 3.6838,7.11597 5.99667,8.48304 5.99757,16.27982 -4e-5,30.57831 -29.8896,54.30498 -65.241931,54.30495 -22.155262,-0.0153 -41.903488,-2.53536 -53.560633,-18.83167 10.298857,19.91775 33.161505,32.74647 58.387029,32.76221 35.352335,2e-5 64.011085,-24.78858 64.011125,-55.3669 -0.001,-10.29876 -3.3235,-20.39309 -9.59316,-29.14841 z"
           sodipodi:nodetypes="ccccccc" />
        <path
           id="path27327"
           style="opacity:0.427515;fill:url(#linearGradient29266);fill-opacity:1;stroke-width:0"
           d="m 124.10691,98.156992 c 2.11174,6.399658 -35.942863,4.916618 -53.904301,11.357688 -17.961431,6.44107 -42.887628,24.07686 -45.141385,17.72583 -2.944801,-8.29837 20.141017,-31.154208 39.097174,-38.778323 18.994316,-7.639463 57.319112,1.726372 59.948512,9.694805 z"
           sodipodi:nodetypes="sssss" />
      </g>
      <g
         id="g43820"
         transform="translate(-225.62857,37.416248)">
        <path
           id="path32205"
           style="opacity:0.544379;fill:#ff8080;fill-opacity:1;stroke:none;stroke-width:0"
           d="m 297.97766,59.365369 a 60.698347,50.918326 0 0 0 60.65469,50.079681 60.698347,50.918326 0 0 0 60.65473,-50.079681 z" />
        <path
           id="path29931"
           style="opacity:1;fill:url(#linearGradient33139);fill-opacity:1;stroke:none;stroke-width:0"
           d="m 297.99089,59.378598 a 60.69835,51.341358 0 0 0 60.65469,50.495752 60.69835,51.341358 0 0 0 60.65473,-50.495752 z" />
        <path
           id="path31401"
           style="opacity:1;fill:#afe9af;fill-opacity:1;stroke:none;stroke-width:0"
           d="m 1116.002,224.37305 a 238.7224,199.89588 0 0 0 238.5507,196.60351 238.7224,199.89588 0 0 0 238.5508,-196.60351 h -9.1484 a 228.037,189.73169 0 0 1 -227.8731,186.60742 228.037,189.73169 0 0 1 -227.1836,-175.18164 232.85695,213.29096 0 0 1 -2.6836,-11.42578 z"
           transform="scale(0.26458333)" />
        <path
           id="path30821"
           style="opacity:1;fill:#2c892c;fill-opacity:1;stroke:none;stroke-width:0"
           d="m 1105.3574,224.37305 c 2.2361,119.52991 112.8757,215.41657 248.6406,215.48633 135.765,-0.0697 246.4046,-95.95638 248.6407,-215.48633 h -9.5352 c -15.145,112.29965 -103.5134,192.12402 -221.253,192.16015 -111.3353,14.87794 -251.8307,-70.95081 -255.8485,-192.16015 z"
           sodipodi:nodetypes="ccccccc"
           transform="scale(0.26458333)" />
        <path
           id="path39287"
           style="fill:#00ba55;fill-opacity:1;stroke:none;stroke-width:0.999999px;stroke-linecap:butt;stroke-linejoin:miter;stroke-opacity:1"
           d="m 1119.0469,250.14062 -11.0489,2.35547 c 1.9353,11.73273 4.8927,23.16528 8.8477,34.21289 l 3.8418,-1.55664 6.5332,-6.88672 c -3.5526,-9.06211 -6.2588,-18.46601 -8.1738,-28.125 z m 456.6972,36.83399 c -5.1575,11.84652 -11.2542,23.07831 -18.2363,33.60547 l 0.3633,0.68945 6.8125,11.00586 2.291,1.52734 c 7.6781,-11.20125 14.2919,-23.03511 19.625,-35.43359 -2.0196,-1.943 -4.1125,-3.99202 -5.1445,-5.13867 -1.3761,-1.52897 -3.4801,-3.93165 -5.711,-6.25586 z m -428.1757,29.02734 c -1.4321,1.23923 -2.3575,2.61133 -2.3575,2.61133 l -5.7011,5.875 -4.2852,0.39453 c 8.0722,13.13384 17.5775,25.48124 28.4082,36.82031 1.5785,-2.27892 3.4215,-5.15846 3.5215,-6.45898 0.1727,-2.24619 -3.1094,-5.875 -3.1094,-5.875 l 5.7012,-2.9375 1.334,-2.38672 c -8.6728,-8.73555 -16.5798,-18.09542 -23.5117,-28.04297 z m 361.8457,55.91016 c -9.9567,7.56714 -20.6301,14.27425 -31.9512,20.04492 l 3.3672,13.69141 0.3008,3.39648 c 11.8496,-6.22352 23.0266,-13.32392 33.498,-21.14062 -0.8832,-1.09994 -1.8999,-2.43599 -3.1406,-4.26758 -3.9445,-5.8228 -2.648,-9.20462 -2.0742,-11.72461 z m -289.8555,9.79492 c -0.073,3.09821 -0.2776,6.27275 -0.7402,6.36524 -0.8639,0.1728 -2.4202,7.25705 -3.1114,10.36718 -0.2677,1.20499 -0.4883,2.55549 -0.7226,3.93946 12.4098,7.38619 25.6273,13.78444 39.4902,19.1289 l -3.3457,-6.13476 4.8379,-8.8125 -1.0742,-7.15625 c -12.1749,-4.99379 -24.0106,-10.93287 -35.334,-17.69727 z m 222.5371,24.53125 c -8.7921,2.6904 -17.8458,4.90509 -27.1699,6.55664 l -2.752,13.03125 c 0,0 1.0606,3.67298 2.1856,7.48438 9.5355,-2.09855 18.8341,-4.7115 27.9004,-7.74805 -0.2027,-0.36959 -0.7383,-1.30859 -0.7383,-1.30859 0,0 2.6221,-12.05304 1.8359,-13.36329 -0.339,-0.56502 -0.8194,-2.58482 -1.2617,-4.65234 z m -114.5742,11.1211 c -4e-4,0.0222 0.013,0.0641 0.01,0.082 -0.2619,1.31025 4.1934,10.2207 4.1934,10.2207 l -4.1934,4.97851 2.8184,6.19922 c 7.7879,0.65125 15.6701,1.01544 23.6484,1.01954 3.4358,-0.002 6.8439,-0.10715 10.2461,-0.23047 0,-7.07932 -0.069,-15.5518 -0.5507,-19.56641 -0.1143,-0.9519 -0.1821,-1.82163 -0.2286,-2.65039 -11.7743,1.0345 -23.8113,1.00171 -35.9433,-0.0527 z"
           transform="scale(0.26458333)" />
        <path
           id="path37938"
           style="fill:#166423;fill-opacity:1;stroke:none;stroke-width:0.999999px;stroke-linecap:butt;stroke-linejoin:miter;stroke-opacity:1"
           d="m 1120.3477,256.31445 -10.1211,7.5918 c 0.9233,4.06928 1.9558,8.10213 3.1308,12.08594 l 11.1953,-5.22461 c -1.6058,-4.74302 -3.0329,-9.55315 -4.205,-14.45313 z m 452.5234,37.08203 c -3.3382,7.05095 -7.0555,13.8422 -11.0664,20.40821 1.5845,3.41925 4.7174,9.61392 7.9219,15.88476 5.1406,-7.88317 9.7307,-16.07575 13.7461,-24.53906 -4.2143,-5.15243 -8.6743,-9.78581 -10.6016,-11.75391 z m -421.1621,28.24414 c -2.3006,3.22146 -4.9042,6.86013 -9.6817,13.66602 3.6842,5.27911 7.6413,10.38973 11.8047,15.35938 l 10.6309,-13.60743 c -4.5126,-4.95703 -8.7655,-10.10008 -12.7539,-15.41797 z m 350.2383,55.68946 c -5.6055,3.88415 -11.4156,7.50752 -17.4239,10.85937 l 4.5821,16.44336 c 7.2158,-4.12348 14.1922,-8.54324 20.8672,-13.28515 -3.2256,-4.72988 -5.8703,-10.04707 -8.0254,-14.01758 z m -274.5957,8.8457 -6.377,19.61914 c 6.5414,3.65753 13.2852,7.05226 20.2207,10.16992 2.8625,-6.94317 5.778,-14.22197 7.5195,-19.2207 -7.268,-3.19842 -14.4,-6.72512 -21.3632,-10.56836 z m 206.6172,22.41211 c -4.0704,1.0807 -8.2109,2.02273 -12.3907,2.88867 0.019,1.14484 0.1615,10.85756 0.1934,20.04883 3.6811,-0.91824 7.3256,-1.90685 10.9355,-2.96875 0.1824,-4.79455 3.6565,-9.18062 4.0586,-10.78906 0.3339,-1.33567 -0.8303,-5.43012 -2.7968,-9.17969 z m -98.5684,9.2793 2.1465,21.45312 c 5.4441,0.31627 10.9179,0.53622 16.4511,0.53907 1.9773,-10e-4 3.9302,-0.0914 5.8965,-0.13282 -2.3605,-9.30762 -4.181,-16.97443 -5.3086,-21.75976 -6.3425,0.26566 -12.7431,0.22753 -19.1855,-0.0996 z"
           transform="scale(0.26458333)" />
        <g
           id="g43371"
           transform="rotate(17.520856,275.60194,154.55197)">
          <path
             id="path40430"
             style="opacity:1;stroke-width:0"
             d="m 330.15073,81.053833 c 0.008,0.97624 0.0387,1.840882 -0.6912,2.030036 -0.0974,0.02524 -0.13334,0.05853 -0.25967,0.0614 -0.11136,0.0025 -0.45707,-0.01509 -0.54993,-0.0507 -0.52769,-0.202343 -0.53734,-1.065702 -0.49799,-2.027509 0.0315,-0.770017 0.37715,-1.655705 0.70599,-2.055289 0.14194,-0.17248 0.11487,-0.161849 0.2857,-0.161848 0.11188,2e-6 0.0491,-0.01258 0.14704,0.06599 0.39812,0.319268 0.86006,1.252527 0.86006,2.137922 z"
             sodipodi:nodetypes="ssssssssss" />
          <ellipse
             style="opacity:0.272189;fill:#ffffff;fill-opacity:1;stroke:none;stroke-width:0;stroke-opacity:1"
             id="path43287"
             cx="338.41141"
             cy="-2.1385059"
             rx="0.19598196"
             ry="1.4227928"
             transform="matrix(0.96980487,0.24388217,-0.25799236,0.96614696,0,0)" />
        </g>
        <g
           id="g43377"
           transform="rotate(44.360173,332.5081,46.894012)">
          <path
             id="path43373"
             style="opacity:1;stroke-width:0"
             d="m 330.15073,81.053833 c 0.008,0.97624 0.0387,1.840882 -0.6912,2.030036 -0.0974,0.02524 -0.13334,0.05853 -0.25967,0.0614 -0.11136,0.0025 -0.45707,-0.01509 -0.54993,-0.0507 -0.52769,-0.202343 -0.53734,-1.065702 -0.49799,-2.027509 0.0315,-0.770017 0.37715,-1.655705 0.70599,-2.055289 0.14194,-0.17248 0.11487,-0.161849 0.2857,-0.161848 0.11188,2e-6 0.0491,-0.01258 0.14704,0.06599 0.39812,0.319268 0.86006,1.252527 0.86006,2.137922 z"
             sodipodi:nodetypes="ssssssssss" />
          <ellipse
             style="opacity:0.272189;fill:#ffffff;fill-opacity:1;stroke:none;stroke-width:0;stroke-opacity:1"
             id="ellipse43375"
             cx="338.41141"
             cy="-2.1385059"
             rx="0.19598196"
             ry="1.4227928"
             transform="matrix(0.96980487,0.24388217,-0.25799236,0.96614696,0,0)" />
        </g>
        <g
           id="g43383"
           transform="rotate(30.12872,319.83597,55.029015)">
          <path
             id="path43379"
             style="opacity:1;stroke-width:0"
             d="m 330.15073,81.053833 c 0.008,0.97624 0.0387,1.840882 -0.6912,2.030036 -0.0974,0.02524 -0.13334,0.05853 -0.25967,0.0614 -0.11136,0.0025 -0.45707,-0.01509 -0.54993,-0.0507 -0.52769,-0.202343 -0.53734,-1.065702 -0.49799,-2.027509 0.0315,-0.770017 0.37715,-1.655705 0.70599,-2.055289 0.14194,-0.17248 0.11487,-0.161849 0.2857,-0.161848 0.11188,2e-6 0.0491,-0.01258 0.14704,0.06599 0.39812,0.319268 0.86006,1.252527 0.86006,2.137922 z"
             sodipodi:nodetypes="ssssssssss" />
          <ellipse
             style="opacity:0.272189;fill:#ffffff;fill-opacity:1;stroke:none;stroke-width:0;stroke-opacity:1"
             id="ellipse43381"
             cx="338.41141"
             cy="-2.1385059"
             rx="0.19598196"
             ry="1.4227928"
             transform="matrix(0.96980487,0.24388217,-0.25799236,0.96614696,0,0)" />
        </g>
        <g
           id="g43389"
           transform="matrix(0.86489993,0.41472332,-0.50194434,0.71460944,72.646236,-122.87983)">
          <path
             id="path43385"
             style="opacity:1;stroke-width:0"
             d="m 330.15073,81.053833 c 0.008,0.97624 0.0387,1.840882 -0.6912,2.030036 -0.0974,0.02524 -0.13334,0.05853 -0.25967,0.0614 -0.11136,0.0025 -0.45707,-0.01509 -0.54993,-0.0507 -0.52769,-0.202343 -0.53734,-1.065702 -0.49799,-2.027509 0.0315,-0.770017 0.37715,-1.655705 0.70599,-2.055289 0.14194,-0.17248 0.11487,-0.161849 0.2857,-0.161848 0.11188,2e-6 0.0491,-0.01258 0.14704,0.06599 0.39812,0.319268 0.86006,1.252527 0.86006,2.137922 z"
             sodipodi:nodetypes="ssssssssss" />
          <ellipse
             style="opacity:0.272189;fill:#ffffff;fill-opacity:1;stroke:none;stroke-width:0;stroke-opacity:1"
             id="ellipse43387"
             cx="338.41141"
             cy="-2.1385059"
             rx="0.19598196"
             ry="1.4227928"
             transform="matrix(0.96980487,0.24388217,-0.25799236,0.96614696,0,0)" />
        </g>
        <g
           id="g43395"
           transform="rotate(-28.267048,390.40503,2.4562206)">
          <path
             id="path43391"
             style="opacity:1;stroke-width:0"
             d="m 330.15073,81.053833 c 0.008,0.97624 0.0387,1.840882 -0.6912,2.030036 -0.0974,0.02524 -0.13334,0.05853 -0.25967,0.0614 -0.11136,0.0025 -0.45707,-0.01509 -0.54993,-0.0507 -0.52769,-0.202343 -0.53734,-1.065702 -0.49799,-2.027509 0.0315,-0.770017 0.37715,-1.655705 0.70599,-2.055289 0.14194,-0.17248 0.11487,-0.161849 0.2857,-0.161848 0.11188,2e-6 0.0491,-0.01258 0.14704,0.06599 0.39812,0.319268 0.86006,1.252527 0.86006,2.137922 z"
             sodipodi:nodetypes="ssssssssss" />
          <ellipse
             style="opacity:0.272189;fill:#ffffff;fill-opacity:1;stroke:none;stroke-width:0;stroke-opacity:1"
             id="ellipse43393"
             cx="338.41141"
             cy="-2.1385059"
             rx="0.19598196"
             ry="1.4227928"
             transform="matrix(0.96980487,0.24388217,-0.25799236,0.96614696,0,0)" />
        </g>
        <g
           id="g43401"
           transform="matrix(0.84576113,-0.50995455,0.60052049,0.71820986,64.251714,201.04977)">
          <path
             id="path43397"
             style="opacity:1;stroke-width:0"
             d="m 330.15073,81.053833 c 0.008,0.97624 0.0387,1.840882 -0.6912,2.030036 -0.0974,0.02524 -0.13334,0.05853 -0.25967,0.0614 -0.11136,0.0025 -0.45707,-0.01509 -0.54993,-0.0507 -0.52769,-0.202343 -0.53734,-1.065702 -0.49799,-2.027509 0.0315,-0.770017 0.37715,-1.655705 0.70599,-2.055289 0.14194,-0.17248 0.11487,-0.161849 0.2857,-0.161848 0.11188,2e-6 0.0491,-0.01258 0.14704,0.06599 0.39812,0.319268 0.86006,1.252527 0.86006,2.137922 z"
             sodipodi:nodetypes="ssssssssss" />
          <ellipse
             style="opacity:0.272189;fill:#ffffff;fill-opacity:1;stroke:none;stroke-width:0;stroke-opacity:1"
             id="ellipse43399"
             cx="338.41141"
             cy="-2.1385059"
             rx="0.19598196"
             ry="1.4227928"
             transform="matrix(0.96980487,0.24388217,-0.25799236,0.96614696,0,0)" />
        </g>
        <g
           id="g43407"
           transform="translate(31.343031,14.767838)">
          <path
             id="path43403"
             style="opacity:1;stroke-width:0"
             d="m 330.15073,81.053833 c 0.008,0.97624 0.0387,1.840882 -0.6912,2.030036 -0.0974,0.02524 -0.13334,0.05853 -0.25967,0.0614 -0.11136,0.0025 -0.45707,-0.01509 -0.54993,-0.0507 -0.52769,-0.202343 -0.53734,-1.065702 -0.49799,-2.027509 0.0315,-0.770017 0.37715,-1.655705 0.70599,-2.055289 0.14194,-0.17248 0.11487,-0.161849 0.2857,-0.161848 0.11188,2e-6 0.0491,-0.01258 0.14704,0.06599 0.39812,0.319268 0.86006,1.252527 0.86006,2.137922 z"
             sodipodi:nodetypes="ssssssssss" />
          <ellipse
             style="opacity:0.272189;fill:#ffffff;fill-opacity:1;stroke:none;stroke-width:0;stroke-opacity:1"
             id="ellipse43405"
             cx="338.41141"
             cy="-2.1385059"
             rx="0.19598196"
             ry="1.4227928"
             transform="matrix(0.96980487,0.24388217,-0.25799236,0.96614696,0,0)" />
        </g>
        <g
           id="g43413"
           transform="rotate(24.997338,310.90578,112.77463)">
          <path
             id="path43409"
             style="opacity:1;stroke-width:0"
             d="m 330.15073,81.053833 c 0.008,0.97624 0.0387,1.840882 -0.6912,2.030036 -0.0974,0.02524 -0.13334,0.05853 -0.25967,0.0614 -0.11136,0.0025 -0.45707,-0.01509 -0.54993,-0.0507 -0.52769,-0.202343 -0.53734,-1.065702 -0.49799,-2.027509 0.0315,-0.770017 0.37715,-1.655705 0.70599,-2.055289 0.14194,-0.17248 0.11487,-0.161849 0.2857,-0.161848 0.11188,2e-6 0.0491,-0.01258 0.14704,0.06599 0.39812,0.319268 0.86006,1.252527 0.86006,2.137922 z"
             sodipodi:nodetypes="ssssssssss" />
          <ellipse
             style="opacity:0.272189;fill:#ffffff;fill-opacity:1;stroke:none;stroke-width:0;stroke-opacity:1"
             id="ellipse43411"
             cx="338.41141"
             cy="-2.1385059"
             rx="0.19598196"
             ry="1.4227928"
             transform="matrix(0.96980487,0.24388217,-0.25799236,0.96614696,0,0)" />
        </g>
        <g
           id="g43419"
           transform="rotate(24.997338,304.83858,82.982425)">
          <path
             id="path43415"
             style="opacity:1;stroke-width:0"
             d="m 330.15073,81.053833 c 0.008,0.97624 0.0387,1.840882 -0.6912,2.030036 -0.0974,0.02524 -0.13334,0.05853 -0.25967,0.0614 -0.11136,0.0025 -0.45707,-0.01509 -0.54993,-0.0507 -0.52769,-0.202343 -0.53734,-1.065702 -0.49799,-2.027509 0.0315,-0.770017 0.37715,-1.655705 0.70599,-2.055289 0.14194,-0.17248 0.11487,-0.161849 0.2857,-0.161848 0.11188,2e-6 0.0491,-0.01258 0.14704,0.06599 0.39812,0.319268 0.86006,1.252527 0.86006,2.137922 z"
             sodipodi:nodetypes="ssssssssss" />
          <ellipse
             style="opacity:0.272189;fill:#ffffff;fill-opacity:1;stroke:none;stroke-width:0;stroke-opacity:1"
             id="ellipse43417"
             cx="338.41141"
             cy="-2.1385059"
             rx="0.19598196"
             ry="1.4227928"
             transform="matrix(0.96980487,0.24388217,-0.25799236,0.96614696,0,0)" />
        </g>
        <g
           id="g43425"
           transform="rotate(-51.193341,367.61745,8.283449)">
          <path
             id="path43421"
             style="opacity:1;stroke-width:0"
             d="m 330.15073,81.053833 c 0.008,0.97624 0.0387,1.840882 -0.6912,2.030036 -0.0974,0.02524 -0.13334,0.05853 -0.25967,0.0614 -0.11136,0.0025 -0.45707,-0.01509 -0.54993,-0.0507 -0.52769,-0.202343 -0.53734,-1.065702 -0.49799,-2.027509 0.0315,-0.770017 0.37715,-1.655705 0.70599,-2.055289 0.14194,-0.17248 0.11487,-0.161849 0.2857,-0.161848 0.11188,2e-6 0.0491,-0.01258 0.14704,0.06599 0.39812,0.319268 0.86006,1.252527 0.86006,2.137922 z"
             sodipodi:nodetypes="ssssssssss" />
          <ellipse
             style="opacity:0.272189;fill:#ffffff;fill-opacity:1;stroke:none;stroke-width:0;stroke-opacity:1"
             id="ellipse43423"
             cx="338.41141"
             cy="-2.1385059"
             rx="0.19598196"
             ry="1.4227928"
             transform="matrix(0.96980487,0.24388217,-0.25799236,0.96614696,0,0)" />
        </g>
        <g
           id="g43431"
           transform="rotate(-76.881984,361.45487,23.852632)">
          <path
             id="path43427"
             style="opacity:1;stroke-width:0"
             d="m 330.15073,81.053833 c 0.008,0.97624 0.0387,1.840882 -0.6912,2.030036 -0.0974,0.02524 -0.13334,0.05853 -0.25967,0.0614 -0.11136,0.0025 -0.45707,-0.01509 -0.54993,-0.0507 -0.52769,-0.202343 -0.53734,-1.065702 -0.49799,-2.027509 0.0315,-0.770017 0.37715,-1.655705 0.70599,-2.055289 0.14194,-0.17248 0.11487,-0.161849 0.2857,-0.161848 0.11188,2e-6 0.0491,-0.01258 0.14704,0.06599 0.39812,0.319268 0.86006,1.252527 0.86006,2.137922 z"
             sodipodi:nodetypes="ssssssssss" />
          <ellipse
             style="opacity:0.272189;fill:#ffffff;fill-opacity:1;stroke:none;stroke-width:0;stroke-opacity:1"
             id="ellipse43429"
             cx="338.41141"
             cy="-2.1385059"
             rx="0.19598196"
             ry="1.4227928"
             transform="matrix(0.96980487,0.24388217,-0.25799236,0.96614696,0,0)" />
        </g>
        <g
           id="g43437"
           transform="rotate(20.47302,326.95748,146.45907)">
          <path
             id="path43433"
             style="opacity:1;stroke-width:0"
             d="m 330.15073,81.053833 c 0.008,0.97624 0.0387,1.840882 -0.6912,2.030036 -0.0974,0.02524 -0.13334,0.05853 -0.25967,0.0614 -0.11136,0.0025 -0.45707,-0.01509 -0.54993,-0.0507 -0.52769,-0.202343 -0.53734,-1.065702 -0.49799,-2.027509 0.0315,-0.770017 0.37715,-1.655705 0.70599,-2.055289 0.14194,-0.17248 0.11487,-0.161849 0.2857,-0.161848 0.11188,2e-6 0.0491,-0.01258 0.14704,0.06599 0.39812,0.319268 0.86006,1.252527 0.86006,2.137922 z"
             sodipodi:nodetypes="ssssssssss" />
          <ellipse
             style="opacity:0.272189;fill:#ffffff;fill-opacity:1;stroke:none;stroke-width:0;stroke-opacity:1"
             id="ellipse43435"
             cx="338.41141"
             cy="-2.1385059"
             rx="0.19598196"
             ry="1.4227928"
             transform="matrix(0.96980487,0.24388217,-0.25799236,0.96614696,0,0)" />
        </g>
        <g
           id="g43455"
           transform="matrix(0.34285874,-0.74617249,0.54801276,0.38366893,232.33712,287.08159)">
          <path
             id="path43451"
             style="opacity:1;stroke-width:0"
             d="m 330.15073,81.053833 c 0.008,0.97624 0.0387,1.840882 -0.6912,2.030036 -0.0974,0.02524 -0.13334,0.05853 -0.25967,0.0614 -0.11136,0.0025 -0.45707,-0.01509 -0.54993,-0.0507 -0.52769,-0.202343 -0.53734,-1.065702 -0.49799,-2.027509 0.0315,-0.770017 0.37715,-1.655705 0.70599,-2.055289 0.14194,-0.17248 0.11487,-0.161849 0.2857,-0.161848 0.11188,2e-6 0.0491,-0.01258 0.14704,0.06599 0.39812,0.319268 0.86006,1.252527 0.86006,2.137922 z"
             sodipodi:nodetypes="ssssssssss" />
          <ellipse
             style="opacity:0.272189;fill:#ffffff;fill-opacity:1;stroke:none;stroke-width:0;stroke-opacity:1"
             id="ellipse43453"
             cx="338.41141"
             cy="-2.1385059"
             rx="0.19598196"
             ry="1.4227928"
             transform="matrix(0.96980487,0.24388217,-0.25799236,0.96614696,0,0)" />
        </g>
        <g
           id="g43461"
           transform="matrix(0.59912024,-0.56158743,0.36268045,0.5621234,146.12547,215.98774)">
          <path
             id="path43457"
             style="opacity:1;stroke-width:0"
             d="m 330.15073,81.053833 c 0.008,0.97624 0.0387,1.840882 -0.6912,2.030036 -0.0974,0.02524 -0.13334,0.05853 -0.25967,0.0614 -0.11136,0.0025 -0.45707,-0.01509 -0.54993,-0.0507 -0.52769,-0.202343 -0.53734,-1.065702 -0.49799,-2.027509 0.0315,-0.770017 0.37715,-1.655705 0.70599,-2.055289 0.14194,-0.17248 0.11487,-0.161849 0.2857,-0.161848 0.11188,2e-6 0.0491,-0.01258 0.14704,0.06599 0.39812,0.319268 0.86006,1.252527 0.86006,2.137922 z"
             sodipodi:nodetypes="ssssssssss" />
          <ellipse
             style="opacity:0.272189;fill:#ffffff;fill-opacity:1;stroke:none;stroke-width:0;stroke-opacity:1"
             id="ellipse43459"
             cx="338.41141"
             cy="-2.1385059"
             rx="0.19598196"
             ry="1.4227928"
             transform="matrix(0.96980487,0.24388217,-0.25799236,0.96614696,0,0)" />
        </g>
        <g
           id="g43467"
           transform="matrix(0.34285874,-0.74617249,0.54801276,0.38366893,243.16666,288.80247)">
          <path
             id="path43463"
             style="opacity:1;stroke-width:0"
             d="m 330.15073,81.053833 c 0.008,0.97624 0.0387,1.840882 -0.6912,2.030036 -0.0974,0.02524 -0.13334,0.05853 -0.25967,0.0614 -0.11136,0.0025 -0.45707,-0.01509 -0.54993,-0.0507 -0.52769,-0.202343 -0.53734,-1.065702 -0.49799,-2.027509 0.0315,-0.770017 0.37715,-1.655705 0.70599,-2.055289 0.14194,-0.17248 0.11487,-0.161849 0.2857,-0.161848 0.11188,2e-6 0.0491,-0.01258 0.14704,0.06599 0.39812,0.319268 0.86006,1.252527 0.86006,2.137922 z"
             sodipodi:nodetypes="ssssssssss" />
          <ellipse
             style="opacity:0.272189;fill:#ffffff;fill-opacity:1;stroke:none;stroke-width:0;stroke-opacity:1"
             id="ellipse43465"
             cx="338.41141"
             cy="-2.1385059"
             rx="0.19598196"
             ry="1.4227928"
             transform="matrix(0.96980487,0.24388217,-0.25799236,0.96614696,0,0)" />
        </g>
        <g
           id="g43473"
           transform="matrix(0.70190766,-0.4262055,0.23917705,0.62475129,115.13994,175.06191)">
          <path
             id="path43469"
             style="opacity:1;stroke-width:0"
             d="m 330.15073,81.053833 c 0.008,0.97624 0.0387,1.840882 -0.6912,2.030036 -0.0974,0.02524 -0.13334,0.05853 -0.25967,0.0614 -0.11136,0.0025 -0.45707,-0.01509 -0.54993,-0.0507 -0.52769,-0.202343 -0.53734,-1.065702 -0.49799,-2.027509 0.0315,-0.770017 0.37715,-1.655705 0.70599,-2.055289 0.14194,-0.17248 0.11487,-0.161849 0.2857,-0.161848 0.11188,2e-6 0.0491,-0.01258 0.14704,0.06599 0.39812,0.319268 0.86006,1.252527 0.86006,2.137922 z"
             sodipodi:nodetypes="ssssssssss" />
          <ellipse
             style="opacity:0.272189;fill:#ffffff;fill-opacity:1;stroke:none;stroke-width:0;stroke-opacity:1"
             id="ellipse43471"
             cx="338.41141"
             cy="-2.1385059"
             rx="0.19598196"
             ry="1.4227928"
             transform="matrix(0.96980487,0.24388217,-0.25799236,0.96614696,0,0)" />
        </g>
        <g
           id="g43479"
           transform="matrix(0.32167226,-0.75554778,0.55861821,0.36805642,235.62522,301.24154)">
          <path
             id="path43475"
             style="opacity:1;stroke-width:0"
             d="m 330.15073,81.053833 c 0.008,0.97624 0.0387,1.840882 -0.6912,2.030036 -0.0974,0.02524 -0.13334,0.05853 -0.25967,0.0614 -0.11136,0.0025 -0.45707,-0.01509 -0.54993,-0.0507 -0.52769,-0.202343 -0.53734,-1.065702 -0.49799,-2.027509 0.0315,-0.770017 0.37715,-1.655705 0.70599,-2.055289 0.14194,-0.17248 0.11487,-0.161849 0.2857,-0.161848 0.11188,2e-6 0.0491,-0.01258 0.14704,0.06599 0.39812,0.319268 0.86006,1.252527 0.86006,2.137922 z"
             sodipodi:nodetypes="ssssssssss" />
          <ellipse
             style="opacity:0.272189;fill:#ffffff;fill-opacity:1;stroke:none;stroke-width:0;stroke-opacity:1"
             id="ellipse43477"
             cx="338.41141"
             cy="-2.1385059"
             rx="0.19598196"
             ry="1.4227928"
             transform="matrix(0.96980487,0.24388217,-0.25799236,0.96614696,0,0)" />
        </g>
        <g
           id="g43485"
           transform="matrix(0.78452059,0.24259623,-0.3089063,0.5933774,91.727257,-60.854811)">
          <path
             id="path43481"
             style="opacity:1;stroke-width:0"
             d="m 330.15073,81.053833 c 0.008,0.97624 0.0387,1.840882 -0.6912,2.030036 -0.0974,0.02524 -0.13334,0.05853 -0.25967,0.0614 -0.11136,0.0025 -0.45707,-0.01509 -0.54993,-0.0507 -0.52769,-0.202343 -0.53734,-1.065702 -0.49799,-2.027509 0.0315,-0.770017 0.37715,-1.655705 0.70599,-2.055289 0.14194,-0.17248 0.11487,-0.161849 0.2857,-0.161848 0.11188,2e-6 0.0491,-0.01258 0.14704,0.06599 0.39812,0.319268 0.86006,1.252527 0.86006,2.137922 z"
             sodipodi:nodetypes="ssssssssss" />
          <ellipse
             style="opacity:0.272189;fill:#ffffff;fill-opacity:1;stroke:none;stroke-width:0;stroke-opacity:1"
             id="ellipse43483"
             cx="338.41141"
             cy="-2.1385059"
             rx="0.19598196"
             ry="1.4227928"
             transform="matrix(0.96980487,0.24388217,-0.25799236,0.96614696,0,0)" />
        </g>
        <g
           id="g43491"
           transform="matrix(0.78452059,0.24259623,-0.3089063,0.5933774,103.98156,-46.729616)">
          <path
             id="path43487"
             style="opacity:1;stroke-width:0"
             d="m 330.15073,81.053833 c 0.008,0.97624 0.0387,1.840882 -0.6912,2.030036 -0.0974,0.02524 -0.13334,0.05853 -0.25967,0.0614 -0.11136,0.0025 -0.45707,-0.01509 -0.54993,-0.0507 -0.52769,-0.202343 -0.53734,-1.065702 -0.49799,-2.027509 0.0315,-0.770017 0.37715,-1.655705 0.70599,-2.055289 0.14194,-0.17248 0.11487,-0.161849 0.2857,-0.161848 0.11188,2e-6 0.0491,-0.01258 0.14704,0.06599 0.39812,0.319268 0.86006,1.252527 0.86006,2.137922 z"
             sodipodi:nodetypes="ssssssssss" />
          <ellipse
             style="opacity:0.272189;fill:#ffffff;fill-opacity:1;stroke:none;stroke-width:0;stroke-opacity:1"
             id="ellipse43489"
             cx="338.41141"
             cy="-2.1385059"
             rx="0.19598196"
             ry="1.4227928"
             transform="matrix(0.96980487,0.24388217,-0.25799236,0.96614696,0,0)" />
        </g>
        <g
           id="g43497"
           transform="matrix(0.78452059,0.24259623,-0.3089063,0.5933774,94.963764,-52.261296)">
          <path
             id="path43493"
             style="opacity:1;stroke-width:0"
             d="m 330.15073,81.053833 c 0.008,0.97624 0.0387,1.840882 -0.6912,2.030036 -0.0974,0.02524 -0.13334,0.05853 -0.25967,0.0614 -0.11136,0.0025 -0.45707,-0.01509 -0.54993,-0.0507 -0.52769,-0.202343 -0.53734,-1.065702 -0.49799,-2.027509 0.0315,-0.770017 0.37715,-1.655705 0.70599,-2.055289 0.14194,-0.17248 0.11487,-0.161849 0.2857,-0.161848 0.11188,2e-6 0.0491,-0.01258 0.14704,0.06599 0.39812,0.319268 0.86006,1.252527 0.86006,2.137922 z"
             sodipodi:nodetypes="ssssssssss" />
          <ellipse
             style="opacity:0.272189;fill:#ffffff;fill-opacity:1;stroke:none;stroke-width:0;stroke-opacity:1"
             id="ellipse43495"
             cx="338.41141"
             cy="-2.1385059"
             rx="0.19598196"
             ry="1.4227928"
             transform="matrix(0.96980487,0.24388217,-0.25799236,0.96614696,0,0)" />
        </g>
        <g
           id="g43749"
           transform="rotate(-37.194923,364.81891,15.901808)">
          <path
             id="path43745"
             style="opacity:1;stroke-width:0"
             d="m 330.15073,81.053833 c 0.008,0.97624 0.0387,1.840882 -0.6912,2.030036 -0.0974,0.02524 -0.13334,0.05853 -0.25967,0.0614 -0.11136,0.0025 -0.45707,-0.01509 -0.54993,-0.0507 -0.52769,-0.202343 -0.53734,-1.065702 -0.49799,-2.027509 0.0315,-0.770017 0.37715,-1.655705 0.70599,-2.055289 0.14194,-0.17248 0.11487,-0.161849 0.2857,-0.161848 0.11188,2e-6 0.0491,-0.01258 0.14704,0.06599 0.39812,0.319268 0.86006,1.252527 0.86006,2.137922 z"
             sodipodi:nodetypes="ssssssssss" />
          <ellipse
             style="opacity:0.272189;fill:#ffffff;fill-opacity:1;stroke:none;stroke-width:0;stroke-opacity:1"
             id="ellipse43747"
             cx="338.41141"
             cy="-2.1385059"
             rx="0.19598196"
             ry="1.4227928"
             transform="matrix(0.96980487,0.24388217,-0.25799236,0.96614696,0,0)" />
        </g>
      </g>
    </g>
  </g>
</svg>
