<?xml version="1.0" encoding="UTF-8" standalone="no"?>
<!-- Created with Inkscape (http://www.inkscape.org/) -->

<svg
   width="210mm"
   height="297mm"
   viewBox="0 0 210 297"
   version="1.1"
   id="svg5"
   inkscape:version="1.1.1 (3bf5ae0d25, 2021-09-20)"
   sodipodi:docname="Laisva tema.svg"
   xmlns:inkscape="http://www.inkscape.org/namespaces/inkscape"
   xmlns:sodipodi="http://sodipodi.sourceforge.net/DTD/sodipodi-0.dtd"
   xmlns="http://www.w3.org/2000/svg"
   xmlns:svg="http://www.w3.org/2000/svg">
  <sodipodi:namedview
     id="namedview7"
     pagecolor="#ffffff"
     bordercolor="#666666"
     borderopacity="1.0"
     inkscape:pageshadow="2"
     inkscape:pageopacity="0.0"
     inkscape:pagecheckerboard="0"
     inkscape:document-units="mm"
     showgrid="false"
     inkscape:zoom="0.44785584"
     inkscape:cx="496.81166"
     inkscape:cy="582.77682"
     inkscape:window-width="1284"
     inkscape:window-height="728"
     inkscape:window-x="0"
     inkscape:window-y="30"
     inkscape:window-maximized="0"
     inkscape:current-layer="layer1" />
  <defs
     id="defs2">
    <inkscape:path-effect
       effect="spiro"
       id="path-effect10179"
       is_visible="true"
       lpeversion="1" />
    <inkscape:path-effect
       effect="spiro"
       id="path-effect10175"
       is_visible="true"
       lpeversion="1" />
    <inkscape:path-effect
       effect="spiro"
       id="path-effect10171"
       is_visible="true"
       lpeversion="1" />
  </defs>
  <g
     inkscape:label="Layer 1"
     inkscape:groupmode="layer"
     id="layer1">
    <rect
       style="fill:#00112b;fill-opacity:1;fill-rule:evenodd;stroke-width:1.22204;stroke-linejoin:bevel;paint-order:stroke fill markers"
       id="rect44243"
       width="18.730759"
       height="295.81073"
       x="1.5915805"
       y="0.59663671" />
    <rect
       style="fill:#afdde9;fill-rule:evenodd;stroke-width:1.09346;stroke-linejoin:bevel;paint-order:stroke fill markers"
       id="rect4680"
       width="189.53915"
       height="296.97955"
       x="20.322338"
       y="0.01859534" />
    <g
       id="g6768"
       transform="translate(-13.758336,-35.454183)">
      <rect
         style="fill:#004455;fill-rule:evenodd;stroke-width:0.881988;stroke-linejoin:bevel;paint-order:stroke fill markers"
         id="rect11300"
         width="17.656311"
         height="7.3822861"
         x="119.57248"
         y="143.1162"
         ry="3.691143" />
      <path
         id="rect6224"
         style="fill:#ffccaa;fill-rule:evenodd;stroke-width:0.881988;stroke-linejoin:bevel;paint-order:stroke fill markers"
         d="M 79.988625,112.42766 H 188.71435 c 0,0 15.70661,82.63721 1.85856,107.26022 C 171.31388,253.9321 84.613495,236.75149 77.66544,223.1619 64.855829,198.10779 79.988625,112.42766 79.988625,112.42766 Z"
         sodipodi:nodetypes="ccssc" />
      <path
         style="fill:#00222b;fill-rule:evenodd;stroke-width:1.96936;stroke-linejoin:bevel;paint-order:stroke fill markers"
         d="m 119.98734,150.1078 c -1.7255,-0.48082 -2.55607,-1.49549 -2.55607,-3.12264 0,-2.94198 1.87457,-3.79188 8.36354,-3.79188 6.41576,0 8.36357,0.85851 8.36357,3.6863 0,1.78774 -0.79332,2.7465 -2.67716,3.23546 -2.0858,0.54138 -9.5419,0.53668 -11.49388,-0.007 z"
         id="path11668" />
      <path
         id="rect4864"
         style="fill:#004455;fill-rule:evenodd;stroke-width:1.04446;stroke-linejoin:bevel;paint-order:stroke fill markers"
         d="m 88.17223,63.237847 c 46.626,-8.146043 77.42656,-19.445378 100.9583,1.984289 13.52531,12.317064 0,51.095174 0,51.095174 0,0 -50.85524,-9.00834 -106.09174,0 C 76.929816,117.3136 48.607265,110.68709 43.529272,93.532373 35.897714,67.751097 65.46482,30.292749 59.53611,41.941061 50.538722,59.618496 78.585144,64.912822 88.17223,63.237847 Z"
         sodipodi:nodetypes="sscssss" />
      <path
         id="rect17445"
         style="fill:#004455;fill-rule:evenodd;stroke-width:0.333065;stroke-linejoin:bevel;paint-order:stroke fill markers"
         d="m 84.104306,195.07843 c 2.618684,3.6058 14.85468,5.54189 19.109874,0.91312 4.07493,-4.43266 7.56084,-1.45663 14.2071,-1.45412 7.12469,0.003 11.37852,-1.90455 15.33335,-2.34905 0.96145,-0.10807 1.86697,0.2697 2.73492,1.37589 5.40068,6.8831 14.70716,4.00386 16.41228,1.8698 5.41652,-6.77907 -6.31671,19.19902 -11.97378,23.65059 -6.67051,5.24902 -23.30046,-8.71337 -23.30046,-8.71337 0,0 -14.78162,13.89966 -21.03499,9.24684 -5.895427,-4.3865 -16.709837,-31.72948 -11.488294,-24.5397 z"
         sodipodi:nodetypes="ssssssscss" />
      <g
         id="g8682"
         transform="rotate(-5.3013292,608.88872,-3927.7197)">
        <path
           id="rect6963"
           style="fill:#e9c6af;fill-rule:evenodd;stroke-width:1.55062;stroke-linejoin:bevel;paint-order:stroke fill markers"
           d="m -259.21161,104.477 c 4.62126,-5.934719 13.3719,-14.692451 13.3719,-14.692451 l -0.20439,40.406911 -26.91712,2.44492 c -15.69526,1.42563 4.9799,-16.89721 13.74961,-28.15938 z"
           sodipodi:nodetypes="sccss" />
        <path
           id="rect7717"
           style="fill:#ffffff;fill-rule:evenodd;stroke-width:0.775169;stroke-linejoin:bevel;paint-order:stroke fill markers"
           d="m -250.97506,99.451974 c 0.6088,-0.47674 1.21705,0.249533 0.7861,0.916626 -4.62108,7.15325 -5.58071,8.50143 -7.84927,11.13296 -3.97165,4.6071 -6.05744,7.36 -10.47759,10.32208 -0.5953,0.39892 -1.18756,-0.20521 -0.78612,-0.91662 3.11916,-5.52755 6.4841,-9.34746 8.85792,-12.19575 2.83651,-3.40347 4.72527,-5.54455 9.46896,-9.259296 z"
           sodipodi:nodetypes="sssssss" />
        <rect
           style="fill:#ffccaa;fill-rule:evenodd;stroke-width:1.62546;stroke-linejoin:bevel;paint-order:stroke fill markers"
           id="rect18786"
           width="34.265118"
           height="38.400566"
           x="-249.40257"
           y="191.46477"
           transform="rotate(5.3013293)" />
        <path
           id="rect25944"
           style="fill:#0b1728;fill-opacity:1;fill-rule:evenodd;stroke-width:1.14556;stroke-linejoin:bevel;paint-order:stroke fill markers"
           d="m -330.07212,192.83614 -11.78979,69.5108 173.53381,16.1023 -3.82007,-73.92582 -47.87562,-11.5622 -34.95593,44.22168 -26.22196,-49.89841 z"
           sodipodi:nodetypes="cccccccc" />
        <path
           sodipodi:type="star"
           style="fill:#00112b;fill-opacity:1;fill-rule:evenodd;stroke-width:4.38425;stroke-linejoin:bevel;paint-order:stroke fill markers"
           id="path26184-9"
           inkscape:flatsided="true"
           sodipodi:sides="3"
           sodipodi:cx="-446.57227"
           sodipodi:cy="446.57227"
           sodipodi:r1="87.081596"
           sodipodi:r2="43.540798"
           sodipodi:arg1="1.5707963"
           sodipodi:arg2="2.6179939"
           inkscape:rounded="0"
           inkscape:randomized="0"
           transform="matrix(0.42335563,0.03928343,-0.03489277,0.37603774,-47.300182,54.051797)"
           inkscape:transform-center-x="1.1712581e-06"
           inkscape:transform-center-y="8.2216562"
           d="m -446.57226,533.65386 -75.41488,-130.62239 150.82975,0 z" />
      </g>
      <path
         style="fill:#004455;fill-rule:evenodd;stroke-width:1.96936;stroke-linejoin:bevel;paint-order:stroke fill markers"
         d="M 75.943606,115.47863 C 58.721085,112.03521 46.294855,103.08679 43.355844,92.011429 42.31759,88.0989 42.544704,78.754324 43.807663,73.421059 c 2.210083,-9.332784 7.575546,-21.360231 13.088071,-29.338793 2.253599,-3.26176 3.620862,-4.344495 2.166157,-1.715412 -1.195392,2.160491 -1.738617,6.025131 -1.185616,8.435053 1.538975,6.706652 11.189924,11.886383 23.875308,12.814033 4.290031,0.313725 4.746813,0.244104 28.901047,-4.405158 33.54283,-6.456347 44.92492,-7.40725 57.09343,-4.769759 8.88319,1.925405 19.49847,7.998827 23.00019,13.159322 4.32133,6.368362 5.23184,16.581446 2.71878,30.496267 -1.05935,5.865748 -3.93866,16.906808 -4.56052,17.488008 -0.21084,0.19704 -3.39316,-0.0336 -7.07182,-0.51253 -31.16422,-4.05735 -68.79025,-3.81686 -96.131701,0.61441 -4.794356,0.77704 -4.835686,0.77616 -9.757383,-0.20787 z"
         id="path9798" />
      <path
         style="fill:#004455;fill-rule:evenodd;stroke-width:1.79482;stroke-linejoin:bevel;paint-order:stroke fill markers"
         d="m 157.16667,149.92891 c -3.42477,-0.63691 -5.72906,-3.24859 -5.72906,-6.49327 0,-6.72977 9.08172,-9.06964 13.42458,-3.45881 1.37296,1.77379 1.37296,5.14383 0,6.91762 -1.90784,2.46487 -4.74423,3.5833 -7.69552,3.03446 z"
         id="path9837" />
      <path
         style="fill:#004455;fill-rule:evenodd;stroke-width:1.79482;stroke-linejoin:bevel;paint-order:stroke fill markers"
         d="m 94.339252,150.60318 c -3.424741,-0.63691 -5.729021,-3.24859 -5.729021,-6.49327 0,-6.72977 9.081664,-9.06964 13.424509,-3.45881 1.37296,1.77379 1.37296,5.14383 0,6.91762 -1.90783,2.46487 -4.744212,3.5833 -7.695488,3.03446 z"
         id="path9837-0" />
      <path
         id="rect10603"
         style="fill:#004455;fill-rule:evenodd;stroke-width:1.05573;stroke-linejoin:bevel;paint-order:stroke fill markers"
         d="m 75.322755,127.61973 c -4.766207,0 -8.603729,2.93778 -8.603729,6.5865 v 20.69938 c 0,3.64872 3.837522,6.58609 8.603729,6.58609 h 39.943555 c 4.76623,0 8.60326,-2.93737 8.60326,-6.58609 v -20.69938 c 0,-3.64872 -3.83703,-6.5865 -8.60326,-6.5865 z m 2.72744,4.25453 H 112.4636 c 3.57468,0 6.45257,2.20311 6.45257,4.93966 v 15.52433 c 0,2.73654 -2.87789,4.93967 -6.45257,4.93967 H 78.050195 c -3.574664,0 -6.452541,-2.20313 -6.452541,-4.93967 v -15.52433 c 0,-2.73655 2.877877,-4.93966 6.452541,-4.93966 z" />
      <path
         style="fill:#00222b;fill-rule:evenodd;stroke-width:2.33208;stroke-linejoin:bevel;paint-order:stroke fill markers"
         d="m 188.44494,146.63645 c -3.09281,0.62494 -4.30628,0.29467 -4.37201,-1.18985 -0.0948,-2.14097 2.3855,-4.04157 9.75505,-7.47506 11.22424,-5.2294 15.35018,-6.2235 15.91277,-3.83397 0.39399,1.67344 -0.52526,2.96392 -3.33217,4.67786 -3.55753,2.17229 -15.29177,7.28116 -17.96364,7.82102 z"
         id="path11994" />
      <path
         id="rect10603-5"
         style="fill:#004455;fill-rule:evenodd;stroke-width:1.05573;stroke-linejoin:bevel;paint-order:stroke fill markers"
         d="m 140.53645,127.18551 c -4.76626,0 -8.60383,2.93778 -8.60383,6.5865 v 20.69938 c 0,3.64873 3.83757,6.58609 8.60383,6.58609 h 39.9437 c 4.76623,0 8.60324,-2.93736 8.60324,-6.58609 v -20.69938 c 0,-3.64872 -3.83701,-6.5865 -8.60324,-6.5865 z m 2.72746,4.25453 h 34.41353 c 3.57468,0 6.45257,2.20312 6.45257,4.93966 v 15.52433 c 0,2.73655 -2.87789,4.93967 -6.45257,4.93967 h -34.41353 c -3.57469,0 -6.4526,-2.20312 -6.4526,-4.93967 V 136.3797 c 0,-2.73654 2.87791,-4.93966 6.4526,-4.93966 z" />
      <path
         style="fill:#004455;fill-rule:evenodd;stroke-width:1.96936;stroke-linejoin:bevel;paint-order:stroke fill markers"
         d="m 76.872874,115.70656 c -14.735752,-2.87249 -27.130475,-10.19209 -31.47598,-18.587842 -2.143152,-4.140695 -2.676308,-6.81594 -2.662169,-13.357984 0.0097,-4.472233 0.264087,-6.924021 1.072938,-10.339675 1.514004,-6.393368 4.330637,-13.75391 7.75852,-20.274881 2.897972,-5.512933 7.49176,-12.669278 7.892308,-12.294917 0.110415,0.1032 -0.23526,1.250762 -0.768182,2.550136 -1.316338,3.209541 -1.305563,7.105043 0.02674,9.677281 2.870877,5.542588 12.644165,9.92502 23.499141,10.53724 3.950758,0.222831 5.375081,0.0085 25.7874,-3.879623 11.88318,-2.263511 24.32396,-4.520723 27.64617,-5.016028 23.8743,-3.559417 38.07156,-1.200516 50.51673,8.393422 3.52618,2.718317 5.39061,5.067842 6.76031,8.519163 3.1033,7.819566 2.37997,21.375351 -2.01226,37.711578 -0.86144,3.20398 -1.75163,5.99868 -1.97822,6.21045 -0.23954,0.22386 -3.30947,0.0118 -7.33438,-0.50673 -29.75424,-3.83299 -63.61794,-3.83113 -91.254595,0.005 -9.036555,1.25432 -10.121818,1.30695 -13.474487,0.65341 z"
         id="path11361" />
      <path
         style="fill:#00222b;fill-rule:evenodd;stroke-width:1.96936;stroke-linejoin:bevel;paint-order:stroke fill markers"
         d="m 73.620427,161.08501 c -2.505415,-0.47247 -4.596573,-1.66752 -5.594454,-3.1971 -0.841514,-1.28987 -0.907005,-2.25233 -0.907005,-13.33217 0,-13.59434 0.06276,-13.85327 3.811552,-15.72412 l 1.992949,-0.99458 h 22.302568 22.302703 l 2.04972,1.08563 c 4.00692,2.12225 3.97209,1.99586 4.12822,14.97847 0.15372,12.77975 0.0113,13.57235 -2.80093,15.57696 -0.88017,0.62743 -2.70813,1.33713 -4.06216,1.57713 -2.77142,0.49121 -40.637975,0.51731 -43.223163,0.0298 z m 42.135093,-4.34562 c 3.1792,-1.349 3.39945,-2.13839 3.39945,-12.18365 0,-9.71022 -0.23327,-10.67499 -2.91187,-12.04314 -1.36868,-0.69909 -3.23682,-0.76729 -21.017063,-0.76729 -19.365893,0 -19.527437,0.007 -21.177362,0.9664 -0.914437,0.53152 -1.907584,1.46893 -2.207029,2.08313 -0.358166,0.73468 -0.544404,4.08841 -0.544404,9.8029 0,9.99896 0.222463,10.79359 3.399426,12.14165 1.805828,0.76626 3.26386,0.82485 20.529369,0.82485 17.265613,0 18.723623,-0.0586 20.529483,-0.82485 z"
         id="path11400" />
      <path
         style="fill:#004455;fill-rule:evenodd;stroke-width:1.96936;stroke-linejoin:bevel;paint-order:stroke fill markers"
         d="m 71.994199,160.40508 c -1.022207,-0.33777 -2.41069,-1.18774 -3.085523,-1.88882 -1.168096,-1.21351 -1.243486,-1.58328 -1.57098,-7.70599 -0.189195,-3.53722 -0.152348,-9.3099 0.0819,-12.82818 0.47182,-7.08623 0.663825,-7.52606 3.975275,-9.10563 1.620235,-0.77285 3.055307,-0.8223 23.865939,-0.8223 h 22.14214 l 2.21491,1.12666 c 3.50585,1.78332 3.48655,1.69654 3.48655,15.69042 v 12.34406 l -1.69853,1.45503 c -0.9342,0.80026 -2.50236,1.66363 -3.4848,1.91859 -1.15039,0.29854 -9.31212,0.45764 -22.927359,0.44692 -17.001173,-0.0134 -21.504916,-0.1369 -22.999527,-0.63076 z m 43.013531,-3.25779 c 0.91339,-0.23714 2.16791,-0.93574 2.78782,-1.55244 1.12529,-1.11948 1.1271,-1.13724 1.1271,-11.06422 v -9.94295 l -1.2046,-1.1258 c -0.66252,-0.6192 -2.02159,-1.30292 -3.02015,-1.5194 -2.04228,-0.44273 -35.681732,-0.55634 -38.44372,-0.12983 -1.087957,0.168 -2.407685,0.82794 -3.393598,1.69697 l -1.613322,1.42205 0.141143,9.77189 c 0.139875,9.68321 0.151468,9.78214 1.27714,10.90108 0.624789,0.62106 1.774777,1.3027 2.555511,1.51476 1.989074,0.54029 37.716616,0.56533 39.786676,0.0279 z"
         id="path11629" />
      <path
         style="fill:#00222b;fill-rule:evenodd;stroke-width:1.96936;stroke-linejoin:bevel;paint-order:stroke fill markers"
         d="m 69.640207,159.81908 c -3.376917,-1.69263 -3.474552,-2.03774 -3.647121,-12.89299 -0.165241,-10.39369 0.293909,-14.97071 1.641399,-16.3623 2.020075,-2.08618 2.132779,-2.09675 25.394967,-2.38012 l 21.972538,-0.26766 2.43841,1.24036 c 1.34114,0.68219 2.68506,1.64149 2.98652,2.13177 0.37528,0.61031 0.59509,4.77656 0.69705,13.21187 l 0.14894,12.32046 -1.26078,1.22988 c -2.68383,2.61811 -2.21583,2.57272 -26.528271,2.57272 -20.757468,0 -22.346526,-0.0536 -23.843652,-0.80399 z m 45.095623,-3.17403 c 1.08806,-0.57153 1.97544,-1.44553 2.27032,-2.23607 0.2785,-0.74665 0.48408,-5.32481 0.48408,-10.78038 v -9.48259 l -1.94013,-1.20035 -1.9401,-1.20035 -19.084798,-0.13332 c -12.210128,-0.0853 -19.677476,0.0285 -20.730261,0.316 -0.905031,0.24712 -2.235251,1.02459 -2.956007,1.72772 l -1.310518,1.27841 0.0766,9.22221 c 0.08596,10.34978 0.351817,11.52423 2.871333,12.68425 1.38794,0.63904 3.828092,0.7241 21.021695,0.73284 19.082606,0.01 19.485456,-0.008 21.237786,-0.92837 z"
         id="path11744" />
      <path
         style="fill:#00222b;fill-rule:evenodd;stroke-width:1.96936;stroke-linejoin:bevel;paint-order:stroke fill markers"
         d="m 137.93447,160.7689 c -2.63379,-0.4404 -4.10001,-1.11128 -5.6092,-2.56652 l -1.59274,-1.53581 v -12.60036 -12.60036 l 1.89777,-1.65443 c 2.87111,-2.50299 4.09678,-2.62576 26.21299,-2.62576 22.11617,0 23.34185,0.12277 26.21295,2.62576 l 1.89776,1.65443 v 12.59596 12.59597 l -1.39392,1.38475 c -2.85165,2.83288 -2.47994,2.7913 -25.5552,2.85913 -11.49983,0.0338 -21.43151,-0.0259 -22.07041,-0.13276 z m 40.50997,-4.06923 c 0.94191,-0.24449 2.24871,-1.04005 2.90401,-1.7679 l 1.19146,-1.32337 v -9.55363 -9.55363 l -1.31436,-1.22842 c -0.72292,-0.67562 -2.13425,-1.44116 -3.13632,-1.70118 -2.60851,-0.67687 -36.41797,-0.64808 -38.85059,0.0331 -1.00311,0.28087 -2.33418,1.07752 -2.95794,1.77032 -1.12661,1.25134 -1.13408,1.32212 -1.13408,10.74654 v 9.48691 l 1.20013,1.33299 c 0.66007,0.73315 1.86235,1.51217 2.6717,1.73116 2.07059,0.56026 37.27884,0.58448 39.42599,0.0271 z"
         id="path11783" />
    </g>
    <text
       xml:space="preserve"
       style="font-style:normal;font-weight:normal;font-size:20.6059px;line-height:1.25;font-family:sans-serif;text-align:center;text-anchor:middle;fill:#ffffff;fill-opacity:1;stroke:none;stroke-width:0.515147"
       x="10.903953"
       y="69.519882"
       id="text49656"
       transform="scale(1.030583,0.97032461)"><tspan
         sodipodi:role="line"
         id="tspan49654"
         style="text-align:center;text-anchor:middle;fill:#ffffff;stroke-width:0.515147"
         x="10.903953"
         y="69.519882">I</tspan><tspan
         sodipodi:role="line"
         style="text-align:center;text-anchor:middle;fill:#ffffff;stroke-width:0.515147"
         x="10.903953"
         y="95.27726"
         id="tspan53452">N</tspan><tspan
         sodipodi:role="line"
         style="text-align:center;text-anchor:middle;fill:#ffffff;stroke-width:0.515147"
         x="10.903953"
         y="121.03462"
         id="tspan54504">K</tspan><tspan
         sodipodi:role="line"
         style="text-align:center;text-anchor:middle;fill:#ffffff;stroke-width:0.515147"
         x="10.903953"
         y="146.79201"
         id="tspan56198">S</tspan><tspan
         sodipodi:role="line"
         style="text-align:center;text-anchor:middle;fill:#ffffff;stroke-width:0.515147"
         x="10.903953"
         y="172.54938"
         id="tspan57172">C</tspan><tspan
         sodipodi:role="line"
         style="text-align:center;text-anchor:middle;fill:#ffffff;stroke-width:0.515147"
         x="10.903953"
         y="198.30675"
         id="tspan58036">A</tspan><tspan
         sodipodi:role="line"
         style="text-align:center;text-anchor:middle;fill:#ffffff;stroke-width:0.515147"
         x="10.903953"
         y="224.06412"
         id="tspan59214">P</tspan><tspan
         sodipodi:role="line"
         style="text-align:center;text-anchor:middle;fill:#ffffff;stroke-width:0.515147"
         x="10.903953"
         y="249.82149"
         id="tspan60086">E</tspan><tspan
         sodipodi:role="line"
         style="text-align:center;text-anchor:middle;fill:#ffffff;stroke-width:0.515147"
         x="10.903953"
         y="275.57889"
         id="tspan51086" /></text>
  </g>
</svg>
